SplineFontDB: 3.2
FontName: ParibartanF
FullName: ParibartanF
FamilyName: Paribartan
Weight: Regular
Copyright: Copyright 2024 The Paribartan Project Authors (github.com/mitradranirban/paribartan)
Version: 0.100
ItalicAngle: 0
UnderlinePosition: 0
UnderlineWidth: 0
Ascent: 800
Descent: 200
InvalidEm: 1
UFOAscent: 1200
UFODescent: -400
LayerCount: 2
Layer: 0 0 "Back" 1
Layer: 1 1 "public.default" 0 "glyphs"
StyleMap: 0x0040
FSType: 0
OS2Version: 0
OS2_WeightWidthSlopeOnly: 0
OS2_UseTypoMetrics: 0
CreationTime: 1734514292
ModificationTime: 1734689448
PfmFamily: 16
TTFWeight: 400
TTFWidth: 5
LineGap: 0
VLineGap: 0
Panose: 2 0 5 3 0 0 0 0 0 0
OS2TypoAscent: 1200
OS2TypoAOffset: 0
OS2TypoDescent: -400
OS2TypoDOffset: 0
OS2TypoLinegap: 0
OS2WinAscent: 1160
OS2WinAOffset: 0
OS2WinDescent: 348
OS2WinDOffset: 0
HheadAscent: 1200
HheadAOffset: 0
HheadDescent: -400
HheadDOffset: 0
OS2SubXSize: 650
OS2SubYSize: 700
OS2SubXOff: 0
OS2SubYOff: 140
OS2SupXSize: 650
OS2SupYSize: 700
OS2SupXOff: 0
OS2SupYOff: 480
OS2StrikeYSize: 49
OS2StrikeYPos: 258
OS2Vendor: 'anir'
OS2CodePages: 00000093.00000000
OS2UnicodeRanges: 2003806f.00002002.00000000.00000000
MarkAttachClasses: 1
DEI: 91125
LangName: 1033 "" "" "" "" "" "Version 0.100" "" "" "Dr Anirban Mitra" "Dr Anirban Mitra" "Variable Color Bengali Font" "https://fonts.atipra.in" "https://github.com/mitradranirban" "This Font Software is licensed under the SIL Open Font License, Version 1.1. This license is available with a FAQ at: https://openfontlicense.org+ACIA" "https://openfontlicense.org"
PickledDataWithLists: "(dp0
Vpublic.openTypeHeadModified
p1
V2024/12/18 07:18:57
p2
sVpublic.openTypePostUnderlinePosition
p3
I0
s."
Encoding: UnicodeBmp
UnicodeInterp: none
NameList: AGL For New Fonts
DisplaySize: -128
AntiAlias: 1
FitToEm: 1
WinInfo: 66870 10 4
BeginPrivate: 0
EndPrivate
BeginChars: 66908 1830

StartChar: .notdef
Encoding: 65536 -1 0
GlifName: _notdef
Width: 1000
VWidth: 0
Flags: W
LayerCount: 2
Fore
SplineSet
208 789 m 257,0,-1
 668 789 l 257,1,2
 674 789 674 789 678.5 784.5 c 128,-1,3
 683 780 683 780 683 774 c 257,4,-1
 683 10 l 257,5,6
 683 4 683 4 678.5 -0.5 c 128,-1,7
 674 -5 674 -5 668 -5 c 257,8,-1
 208 -5 l 257,9,10
 202 -5 202 -5 197.5 -0.5 c 128,-1,11
 193 4 193 4 193 10 c 257,12,-1
 193 774 l 257,13,14
 193 780 193 780 197.5 784.5 c 128,-1,15
 202 789 202 789 208 789 c 257,0,-1
258 727 m 257,16,17
 252 727 252 727 247.5 722.5 c 128,-1,18
 243 718 243 718 243 712 c 257,19,-1
 243 76 l 257,20,21
 243 70 243 70 247.5 65.5 c 128,-1,22
 252 61 252 61 258 61 c 257,23,-1
 620 61 l 257,24,25
 626 61 626 61 630.5 65.5 c 128,-1,26
 635 70 635 70 635 76 c 257,27,-1
 635 712 l 257,28,29
 635 718 635 718 630.5 722.5 c 128,-1,30
 626 727 626 727 620 727 c 257,31,-1
 258 727 l 257,16,17
371 616 m 257,32,33
 375 616 375 616 384 616 c 257,34,35
 438 616 438 616 475.5 578.5 c 128,-1,36
 513 541 513 541 513 488 c 257,37,38
 513 452 513 452 495 422 c 128,-1,39
 477 392 477 392 447 375 c 257,40,-1
 447 317 l 257,41,-1
 371 317 l 257,42,-1
 371 359 l 257,43,-1
 371 422 l 257,44,-1
 371 436 l 257,45,46
 377 434 377 434 384 434 c 257,47,48
 406 434 406 434 422 449.5 c 128,-1,49
 438 465 438 465 438 488 c 257,50,51
 438 510 438 510 422 525.5 c 128,-1,52
 406 541 406 541 384 541 c 257,53,54
 377 541 377 541 371 539 c 257,55,-1
 371 616 l 257,32,33
371 201 m 257,56,-1
 371 272 l 257,57,-1
 447 272 l 257,58,-1
 447 201 l 257,59,-1
 371 201 l 257,56,-1
EndSplineSet
EndChar

StartChar: A
Encoding: 65 65 1
GlifName: A_
Width: 752
VWidth: 0
Flags: W
LayerCount: 2
Fore
SplineSet
407 362 m 257,0,-1
 357 530 l 257,1,-1
 297 362 l 257,2,-1
 407 362 l 257,0,-1
550 -5 m 257,3,-1
 461 223 l 257,4,-1
 461 222 l 257,5,-1
 261 222 l 257,6,-1
 202 -5 l 257,7,-1
 50 -5 l 257,8,-1
 266 764 l 257,9,-1
 418 764 l 257,10,-1
 702 -5 l 257,11,-1
 550 -5 l 257,3,-1
EndSplineSet
EndChar

StartChar: AE
Encoding: 198 198 5
GlifName: A_E_
Width: 1024
VWidth: 0
Flags: W
LayerCount: 2
Fore
SplineSet
865 480 m 257,0,-1
 866 328 l 257,1,-1
 558 328 l 257,2,-1
 558 144 l 257,3,-1
 973 144 l 257,4,-1
 974 -8 l 257,5,-1
 407 -8 l 257,6,-1
 407 -7 l 257,7,-1
 406 -7 l 257,8,-1
 406 222 l 257,9,-1
 261 222 l 257,10,-1
 202 -5 l 257,11,-1
 50 -5 l 257,12,-1
 250 773 l 257,13,-1
 973 773 l 257,14,-1
 974 621 l 257,15,-1
 558 621 l 257,16,-1
 558 480 l 257,17,-1
 865 480 l 257,0,-1
407 362 m 257,18,-1
 341 530 l 257,19,-1
 297 362 l 257,20,-1
 407 362 l 257,18,-1
EndSplineSet
EndChar

StartChar: B
Encoding: 66 66 45
GlifName: B_
Width: 534
VWidth: 0
Flags: W
LayerCount: 2
Fore
SplineSet
202 449 m 257,0,1
 214 446 214 446 226 446 c 257,2,3
 271 446 271 446 302 477 c 128,-1,4
 333 508 333 508 333 552 c 257,5,6
 333 597 333 597 302 628 c 128,-1,7
 271 659 271 659 226 659 c 257,8,9
 214 659 214 659 202 656 c 257,10,-1
 202 449 l 257,0,1
202 131 m 257,11,12
 214 128 214 128 226 128 c 257,13,14
 271 128 271 128 302 159 c 128,-1,15
 333 190 333 190 333 234 c 257,16,17
 333 279 333 279 302 310 c 128,-1,18
 271 341 271 341 226 341 c 257,19,20
 214 341 214 341 202 338 c 257,21,-1
 202 131 l 257,11,12
202 775 m 257,22,23
 208 775 208 775 220 775 c 257,24,25
 327 775 327 775 402.5 699.5 c 128,-1,26
 478 624 478 624 478 517 c 257,27,28
 478 494 478 494 464 472 c 128,-1,29
 450 450 450 450 425.5 424 c 128,-1,30
 401 398 401 398 395 391 c 257,31,32
 397 389 397 389 427.5 357 c 128,-1,33
 458 325 458 325 471 302.5 c 128,-1,34
 484 280 484 280 484 255 c 257,35,36
 484 148 484 148 408.5 73 c 128,-1,37
 333 -2 333 -2 226 -2 c 257,38,39
 210 -2 210 -2 202 -1 c 257,40,-1
 50 -1 l 257,41,-1
 50 775 l 257,42,-1
 202 775 l 257,22,23
EndSplineSet
EndChar

StartChar: C
Encoding: 67 67 49
GlifName: C_
Width: 555
VWidth: 0
Flags: W
LayerCount: 2
Fore
SplineSet
432 607 m 257,0,1
 337 607 337 607 270 538.5 c 128,-1,2
 203 470 203 470 203 373 c 257,3,4
 203 275 203 275 270 206.5 c 128,-1,5
 337 138 337 138 432 138 c 257,6,7
 470 138 470 138 505 150 c 257,8,-1
 505 -12 l 257,9,10
 469 -19 469 -19 432 -19 c 257,11,12
 274 -19 274 -19 162 96.5 c 128,-1,13
 50 212 50 212 50 375 c 128,-1,14
 50 538 50 538 162 653 c 128,-1,15
 274 768 274 768 432 768 c 257,16,17
 469 768 469 768 505 761 c 257,18,-1
 505 595 l 257,19,20
 470 607 470 607 432 607 c 257,0,1
EndSplineSet
EndChar

StartChar: D
Encoding: 68 68 73
GlifName: D_
Width: 630
VWidth: 0
Flags: W
LayerCount: 2
Fore
SplineSet
202 138 m 257,0,1
 296 140 296 140 361.5 208.5 c 128,-1,2
 427 277 427 277 427 373 c 257,3,4
 427 469 427 469 361.5 537 c 128,-1,5
 296 605 296 605 202 607 c 257,6,-1
 202 138 l 257,0,1
50 763 m 257,7,8
 65 758 65 758 124 763 c 128,-1,9
 183 768 183 768 198 768 c 257,10,11
 356 768 356 768 468 653 c 128,-1,12
 580 538 580 538 580 375 c 257,13,14
 580 268 580 268 529.5 178 c 128,-1,15
 479 88 479 88 392 35 c 128,-1,16
 305 -18 305 -18 202 -19 c 257,17,-1
 50 -19 l 257,18,-1
 50 763 l 257,7,8
EndSplineSet
EndChar

StartChar: E
Encoding: 69 69 84
GlifName: E_
Width: 668
VWidth: 0
Flags: W
LayerCount: 2
Fore
SplineSet
509 480 m 257,0,-1
 510 328 l 257,1,-1
 202 328 l 257,2,-1
 202 144 l 257,3,-1
 617 144 l 257,4,-1
 618 -8 l 257,5,-1
 51 -8 l 257,6,-1
 51 -7 l 257,7,-1
 50 -7 l 257,8,-1
 50 769 l 257,9,-1
 50 773 l 257,10,-1
 617 773 l 257,11,-1
 618 621 l 257,12,-1
 202 621 l 257,13,-1
 202 480 l 257,14,-1
 509 480 l 257,0,-1
EndSplineSet
EndChar

StartChar: Eth
Encoding: 208 208 124
GlifName: E_th
Width: 690
VWidth: 0
Flags: W
LayerCount: 2
Fore
SplineSet
110 763 m 257,0,1
 125 758 125 758 184 763 c 128,-1,2
 243 768 243 768 258 768 c 257,3,4
 416 768 416 768 528 653 c 128,-1,5
 640 538 640 538 640 375 c 257,6,7
 640 268 640 268 589.5 178 c 128,-1,8
 539 88 539 88 452 35 c 128,-1,9
 365 -18 365 -18 262 -19 c 257,10,-1
 110 -19 l 257,11,-1
 110 339 l 257,12,-1
 50 339 l 257,13,-1
 50 491 l 257,14,-1
 110 491 l 257,15,-1
 110 763 l 257,0,1
262 138 m 257,16,17
 356 140 356 140 421.5 208.5 c 128,-1,18
 487 277 487 277 487 373 c 257,19,20
 487 469 487 469 421.5 537 c 128,-1,21
 356 605 356 605 262 607 c 257,22,-1
 262 491 l 257,23,-1
 321 491 l 257,24,-1
 321 339 l 257,25,-1
 262 339 l 257,26,-1
 262 138 l 257,16,17
EndSplineSet
EndChar

StartChar: Euro
Encoding: 8364 8364 128
GlifName: E_uro
Width: 605
VWidth: 0
Flags: W
LayerCount: 2
Fore
SplineSet
65 353 m 257,0,-1
 473 353 l 257,1,2
 479 353 479 353 483.5 348.5 c 128,-1,3
 488 344 488 344 488 338 c 257,4,-1
 488 282 l 257,5,6
 488 276 488 276 483.5 271.5 c 128,-1,7
 479 267 479 267 473 267 c 257,8,-1
 65 267 l 257,9,10
 59 267 59 267 54.5 271.5 c 128,-1,11
 50 276 50 276 50 282 c 257,12,-1
 50 338 l 257,13,14
 50 344 50 344 54.5 348.5 c 128,-1,15
 59 353 59 353 65 353 c 257,0,-1
65 528 m 257,16,-1
 473 528 l 257,17,18
 479 528 479 528 483.5 523.5 c 128,-1,19
 488 519 488 519 488 513 c 257,20,-1
 488 457 l 257,21,22
 488 451 488 451 483.5 446.5 c 128,-1,23
 479 442 479 442 473 442 c 257,24,-1
 65 442 l 257,25,26
 59 442 59 442 54.5 446.5 c 128,-1,27
 50 451 50 451 50 457 c 257,28,-1
 50 513 l 257,29,30
 50 519 50 519 54.5 523.5 c 128,-1,31
 59 528 59 528 65 528 c 257,16,-1
482 607 m 257,32,33
 387 607 387 607 320 538.5 c 128,-1,34
 253 470 253 470 253 373 c 257,35,36
 253 275 253 275 320 206.5 c 128,-1,37
 387 138 387 138 482 138 c 257,38,39
 520 138 520 138 555 150 c 257,40,-1
 555 -12 l 257,41,42
 519 -19 519 -19 482 -19 c 257,43,44
 324 -19 324 -19 212 96.5 c 128,-1,45
 100 212 100 212 100 375 c 128,-1,46
 100 538 100 538 212 653 c 128,-1,47
 324 768 324 768 482 768 c 257,48,49
 519 768 519 768 555 761 c 257,50,-1
 555 595 l 257,51,52
 520 607 520 607 482 607 c 257,32,33
EndSplineSet
EndChar

StartChar: F
Encoding: 70 70 132
GlifName: F_
Width: 668
VWidth: 0
Flags: W
LayerCount: 2
Fore
SplineSet
509 480 m 257,0,-1
 510 328 l 257,1,-1
 202 328 l 257,2,-1
 202 -7 l 257,3,-1
 50 -7 l 257,4,-1
 50 769 l 257,5,-1
 50 773 l 257,6,-1
 617 773 l 257,7,-1
 618 621 l 257,8,-1
 202 621 l 257,9,-1
 202 480 l 257,10,-1
 509 480 l 257,0,-1
EndSplineSet
EndChar

StartChar: G
Encoding: 71 71 136
GlifName: G_
Width: 651
VWidth: 0
Flags: W
LayerCount: 2
Fore
SplineSet
432 607 m 257,0,1
 337 607 337 607 270 538.5 c 128,-1,2
 203 470 203 470 203 373 c 257,3,4
 203 275 203 275 270 206.5 c 128,-1,5
 337 138 337 138 432 138 c 257,6,7
 441 138 441 138 449 139 c 257,8,-1
 449 308 l 257,9,-1
 601 308 l 257,10,-1
 601 -19 l 257,11,-1
 449 -19 l 257,12,13
 441 -19 441 -19 432 -19 c 257,14,15
 274 -19 274 -19 162 96.5 c 128,-1,16
 50 212 50 212 50 375 c 128,-1,17
 50 538 50 538 162 653 c 128,-1,18
 274 768 274 768 432 768 c 257,19,20
 469 768 469 768 505 761 c 257,21,-1
 505 595 l 257,22,23
 470 607 470 607 432 607 c 257,0,1
EndSplineSet
EndChar

StartChar: H
Encoding: 72 72 152
GlifName: H_
Width: 652
VWidth: 0
Flags: W
LayerCount: 2
Fore
SplineSet
450 769 m 257,0,-1
 602 769 l 257,1,-1
 602 -7 l 257,2,-1
 450 -7 l 257,3,-1
 450 328 l 257,4,-1
 202 328 l 257,5,-1
 202 -7 l 257,6,-1
 50 -7 l 257,7,-1
 50 769 l 257,8,-1
 202 769 l 257,9,-1
 202 480 l 257,10,-1
 450 480 l 257,11,-1
 450 769 l 257,0,-1
EndSplineSet
EndChar

StartChar: Hbar
Encoding: 294 294 156
GlifName: H_bar
Width: 747
VWidth: 0
Flags: W
LayerCount: 2
Fore
SplineSet
252 556 m 257,0,-1
 252 480 l 257,1,-1
 500 480 l 257,2,-1
 500 556 l 257,3,-1
 252 556 l 257,0,-1
500 769 m 257,4,-1
 652 769 l 257,5,-1
 652 708 l 257,6,-1
 697 708 l 257,7,-1
 697 556 l 257,8,-1
 652 556 l 257,9,-1
 652 -7 l 257,10,-1
 500 -7 l 257,11,-1
 500 328 l 257,12,-1
 252 328 l 257,13,-1
 252 -7 l 257,14,-1
 100 -7 l 257,15,-1
 100 556 l 257,16,-1
 50 556 l 257,17,-1
 50 708 l 257,18,-1
 100 708 l 257,19,-1
 100 769 l 257,20,-1
 252 769 l 257,21,-1
 252 708 l 257,22,-1
 500 708 l 257,23,-1
 500 769 l 257,4,-1
EndSplineSet
EndChar

StartChar: I
Encoding: 73 73 164
GlifName: I_
Width: 252
VWidth: 0
Flags: W
LayerCount: 2
Fore
SplineSet
50 769 m 257,0,-1
 202 769 l 257,1,-1
 202 -7 l 257,2,-1
 50 -7 l 257,3,-1
 50 769 l 257,0,-1
EndSplineSet
EndChar

StartChar: J
Encoding: 74 74 204
GlifName: J_
Width: 419
VWidth: 0
Flags: W
LayerCount: 2
Fore
SplineSet
50 1 m 257,0,-1
 50 169 l 257,1,2
 81 143 81 143 121 143 c 257,3,4
 170 143 170 143 202 180 c 257,5,-1
 202 756 l 257,6,-1
 369 756 l 257,7,-1
 366 179 l 257,8,9
 342 96 342 96 275 44 c 128,-1,10
 208 -8 208 -8 121 -8 c 257,11,12
 84 -8 84 -8 50 1 c 257,0,-1
EndSplineSet
EndChar

StartChar: K
Encoding: 75 75 212
GlifName: K_
Width: 753
VWidth: 0
Flags: W
LayerCount: 2
Fore
SplineSet
50 769 m 257,0,-1
 202 769 l 257,1,-1
 202 428 l 257,2,-1
 447 765 l 257,3,-1
 633 763 l 257,4,-1
 372 382 l 257,5,-1
 703 -8 l 257,6,-1
 511 -7 l 257,7,-1
 259 297 l 257,8,-1
 202 214 l 257,9,-1
 202 -7 l 257,10,-1
 50 -7 l 257,11,-1
 50 769 l 257,0,-1
EndSplineSet
EndChar

StartChar: L
Encoding: 76 76 216
GlifName: L_
Width: 718
VWidth: 0
Flags: W
LayerCount: 2
Fore
SplineSet
50 769 m 257,0,-1
 202 769 l 257,1,-1
 202 144 l 257,2,-1
 667 144 l 257,3,-1
 668 -8 l 257,4,-1
 51 -8 l 257,5,-1
 51 -7 l 257,6,-1
 50 -7 l 257,7,-1
 50 769 l 257,0,-1
EndSplineSet
EndChar

StartChar: Lcaron
Encoding: 317 317 224
GlifName: L_caron
Width: 718
VWidth: 0
Flags: W
LayerCount: 2
Fore
SplineSet
50 769 m 257,0,-1
 202 769 l 257,1,-1
 202 144 l 257,2,-1
 667 144 l 257,3,-1
 668 -8 l 257,4,-1
 51 -8 l 257,5,-1
 51 -7 l 257,6,-1
 50 -7 l 257,7,-1
 50 769 l 257,0,-1
252 515 m 257,8,-1
 252 772 l 257,9,-1
 404 772 l 257,10,-1
 359 515 l 257,11,-1
 252 515 l 257,8,-1
EndSplineSet
EndChar

StartChar: Lslash
Encoding: 321 321 232
GlifName: L_slash
Width: 869
VWidth: 0
Flags: W
LayerCount: 2
Fore
SplineSet
50 489 m 261,0,-1
 507 625 l 261,1,-1
 508 473 l 261,2,-1
 50 337 l 5,3,-1
 50 489 l 261,0,-1
201 769 m 257,4,-1
 353 769 l 257,5,-1
 353 144 l 257,6,-1
 818 144 l 257,7,-1
 819 -8 l 257,8,-1
 202 -8 l 257,9,-1
 202 -7 l 257,10,-1
 201 -7 l 257,11,-1
 201 769 l 257,4,-1
EndSplineSet
EndChar

StartChar: M
Encoding: 77 77 235
GlifName: M_
Width: 1052
VWidth: 0
Flags: W
LayerCount: 2
Fore
SplineSet
50 763 m 257,0,-1
 202 763 l 257,1,-1
 526 141 l 257,2,-1
 850 763 l 257,3,-1
 1002 763 l 257,4,-1
 1002 -7 l 257,5,-1
 850 -7 l 257,6,-1
 850 471 l 257,7,-1
 602 -5 l 257,8,-1
 450 -5 l 257,9,-1
 202 471 l 257,10,-1
 202 -7 l 257,11,-1
 50 -7 l 257,12,-1
 50 763 l 257,0,-1
EndSplineSet
EndChar

StartChar: N
Encoding: 78 78 239
GlifName: N_
Width: 852
VWidth: 0
Flags: W
LayerCount: 2
Fore
SplineSet
50 769 m 257,0,-1
 202 769 l 257,1,-1
 650 246 l 257,2,-1
 650 769 l 257,3,-1
 802 769 l 257,4,-1
 802 -7 l 257,5,-1
 650 -7 l 257,6,-1
 202 518 l 257,7,-1
 202 -7 l 257,8,-1
 50 -7 l 257,9,-1
 50 769 l 257,0,-1
EndSplineSet
EndChar

StartChar: O
Encoding: 79 79 255
GlifName: O_
Width: 864
VWidth: 0
Flags: W
LayerCount: 2
Fore
SplineSet
661 373 m 257,0,1
 661 470 661 470 594 538.5 c 128,-1,2
 527 607 527 607 432 607 c 128,-1,3
 337 607 337 607 270 538.5 c 128,-1,4
 203 470 203 470 203 373 c 257,5,6
 203 275 203 275 270 206.5 c 128,-1,7
 337 138 337 138 432 138 c 128,-1,8
 527 138 527 138 594 206.5 c 128,-1,9
 661 275 661 275 661 373 c 257,0,1
814 375 m 128,-1,11
 814 212 814 212 702 96.5 c 128,-1,12
 590 -19 590 -19 432 -19 c 128,-1,13
 274 -19 274 -19 162 96.5 c 128,-1,14
 50 212 50 212 50 375 c 128,-1,15
 50 538 50 538 162 653 c 128,-1,16
 274 768 274 768 432 768 c 128,-1,17
 590 768 590 768 702 653 c 128,-1,10
 814 538 814 538 814 375 c 128,-1,11
  PathStart: -1
EndSplineSet
EndChar

StartChar: OE
Encoding: 338 338 259
GlifName: O_E_
Width: 1068
VWidth: 0
Flags: W
LayerCount: 2
Fore
SplineSet
432 607 m 257,0,1
 337 607 337 607 270 538.5 c 128,-1,2
 203 470 203 470 203 373 c 257,3,4
 203 275 203 275 270 206.5 c 128,-1,5
 337 138 337 138 432 138 c 257,6,7
 441 138 441 138 450 139 c 257,8,-1
 450 606 l 257,9,10
 441 607 441 607 432 607 c 257,0,1
909 480 m 257,11,-1
 910 328 l 257,12,-1
 602 328 l 257,13,-1
 602 144 l 257,14,-1
 1017 144 l 257,15,-1
 1018 -8 l 257,16,-1
 505 -8 l 257,17,-1
 505 -12 l 257,18,19
 469 -19 469 -19 432 -19 c 257,20,21
 274 -19 274 -19 162 96.5 c 128,-1,22
 50 212 50 212 50 375 c 128,-1,23
 50 538 50 538 162 653 c 128,-1,24
 274 768 274 768 432 768 c 257,25,26
 441 768 441 768 450 768 c 257,27,-1
 450 769 l 257,28,-1
 450 773 l 257,29,-1
 1017 773 l 257,30,-1
 1018 621 l 257,31,-1
 602 621 l 257,32,-1
 602 480 l 257,33,-1
 909 480 l 257,11,-1
EndSplineSet
EndChar

StartChar: Oslash
Encoding: 216 216 291
GlifName: O_slash
Width: 864
VWidth: 0
Flags: W
LayerCount: 2
Fore
SplineSet
599 533 m 257,0,-1
 375 145 l 257,1,2
 403 138 403 138 432 138 c 257,3,4
 527 138 527 138 594 206.5 c 128,-1,5
 661 275 661 275 661 373 c 257,6,7
 661 466 661 466 599 533 c 257,0,-1
495 598 m 257,8,9
 464 607 464 607 432 607 c 257,10,11
 337 607 337 607 270 538.5 c 128,-1,12
 203 470 203 470 203 373 c 128,-1,13
 203 276 203 276 269 207 c 257,14,-1
 495 598 l 257,8,9
814 375 m 257,15,16
 814 212 814 212 702 96.5 c 128,-1,17
 590 -19 590 -19 432 -19 c 257,18,19
 361 -19 361 -19 295 7 c 257,20,-1
 240 -88 l 257,21,-1
 134 -27 l 257,22,-1
 190 70 l 257,23,24
 125 125 125 125 87.5 204.5 c 128,-1,25
 50 284 50 284 50 375 c 257,26,27
 50 538 50 538 162 653 c 128,-1,28
 274 768 274 768 432 768 c 257,29,30
 507 768 507 768 576 739 c 257,31,-1
 619 813 l 257,32,-1
 725 752 l 257,33,-1
 680 674 l 257,34,35
 743 619 743 619 778.5 541 c 128,-1,36
 814 463 814 463 814 375 c 257,15,16
EndSplineSet
EndChar

StartChar: P
Encoding: 80 80 299
GlifName: P_
Width: 534
VWidth: 0
Flags: W
LayerCount: 2
Fore
SplineSet
202 621 m 257,0,-1
 202 414 l 257,1,2
 214 411 214 411 226 411 c 257,3,4
 271 411 271 411 302 442 c 128,-1,5
 333 473 333 473 333 518 c 257,6,7
 333 562 333 562 302 593 c 128,-1,8
 271 624 271 624 226 624 c 257,9,10
 214 624 214 624 202 621 c 257,0,-1
202 -2 m 257,11,-1
 50 -2 l 257,12,-1
 50 774 l 257,13,-1
 202 774 l 257,14,15
 210 775 210 775 226 775 c 257,16,17
 333 775 333 775 408.5 700 c 128,-1,18
 484 625 484 625 484 518 c 128,-1,19
 484 411 484 411 408.5 335.5 c 128,-1,20
 333 260 333 260 226 260 c 257,21,22
 210 260 210 260 202 261 c 257,23,-1
 202 -2 l 257,11,-1
EndSplineSet
EndChar

StartChar: Q
Encoding: 81 81 303
GlifName: Q_
Width: 872
VWidth: 0
Flags: W
LayerCount: 2
Fore
SplineSet
814 375 m 257,0,1
 814 288 814 288 780 211.5 c 128,-1,2
 746 135 746 135 685 80 c 257,3,-1
 822 -57 l 257,4,-1
 684 -196 l 257,5,-1
 501 -13 l 257,6,7
 467 -19 467 -19 432 -19 c 257,8,9
 274 -19 274 -19 162 96.5 c 128,-1,10
 50 212 50 212 50 375 c 128,-1,11
 50 538 50 538 162 653 c 128,-1,12
 274 768 274 768 432 768 c 128,-1,13
 590 768 590 768 702 653 c 128,-1,14
 814 538 814 538 814 375 c 257,0,1
661 373 m 257,15,16
 661 470 661 470 594 538.5 c 128,-1,17
 527 607 527 607 432 607 c 128,-1,18
 337 607 337 607 270 538.5 c 128,-1,19
 203 470 203 470 203 373 c 257,20,21
 203 275 203 275 270 206.5 c 128,-1,22
 337 138 337 138 432 138 c 128,-1,23
 527 138 527 138 594 206.5 c 128,-1,24
 661 275 661 275 661 373 c 257,15,16
EndSplineSet
EndChar

StartChar: R
Encoding: 82 82 307
GlifName: R_
Width: 562
VWidth: 0
Flags: W
LayerCount: 2
Fore
SplineSet
202 -2 m 257,0,-1
 50 -2 l 257,1,-1
 50 774 l 257,2,-1
 202 774 l 257,3,4
 210 775 210 775 226 775 c 257,5,6
 333 775 333 775 408.5 700 c 128,-1,7
 484 625 484 625 484 518 c 257,8,9
 484 435 484 435 436.5 368.5 c 128,-1,10
 389 302 389 302 313 275 c 257,11,-1
 512 -8 l 257,12,-1
 372 -8 l 257,13,-1
 207 261 l 257,14,15
 204 261 204 261 202 261 c 257,16,-1
 202 -2 l 257,0,-1
202 621 m 257,17,-1
 202 414 l 257,18,19
 214 411 214 411 226 411 c 257,20,21
 271 411 271 411 302 442 c 128,-1,22
 333 473 333 473 333 518 c 257,23,24
 333 562 333 562 302 593 c 128,-1,25
 271 624 271 624 226 624 c 257,26,27
 214 624 214 624 202 621 c 257,17,-1
EndSplineSet
EndChar

StartChar: S
Encoding: 83 83 319
GlifName: S_
Width: 519
VWidth: 0
Flags: W
LayerCount: 2
Fore
SplineSet
50 52 m 257,0,-1
 125 177 l 257,1,2
 137 167 137 167 147 162 c 257,3,4
 185 140 185 140 227 150.5 c 128,-1,5
 269 161 269 161 292 197 c 257,6,7
 314 236 314 236 289.5 269.5 c 128,-1,8
 265 303 265 303 222 310 c 257,9,10
 155 346 155 346 114.5 393 c 128,-1,11
 74 440 74 440 63.5 502.5 c 128,-1,12
 53 565 53 565 96 634 c 257,13,14
 148 721 148 721 251 746.5 c 128,-1,15
 354 772 354 772 448 722 c 257,16,17
 451 719 451 719 458.5 714.5 c 128,-1,18
 466 710 466 710 469 707 c 257,19,-1
 394 582 l 257,20,21
 382 592 382 592 372 597 c 257,22,23
 334 618 334 618 291.5 607.5 c 128,-1,24
 249 597 249 597 227 560 c 257,25,26
 202 519 202 519 222.5 470 c 128,-1,27
 243 421 243 421 291 413 c 257,28,29
 340 387 340 387 373.5 360.5 c 128,-1,30
 407 334 407 334 431.5 298.5 c 128,-1,31
 456 263 456 263 454.5 219 c 128,-1,32
 453 175 453 175 422 125 c 257,33,34
 370 37 370 37 267.5 11.5 c 128,-1,35
 165 -14 165 -14 71 37 c 257,36,37
 68 40 68 40 60.5 44.5 c 128,-1,38
 53 49 53 49 50 52 c 257,0,-1
EndSplineSet
EndChar

StartChar: T
Encoding: 84 84 339
GlifName: T_
Width: 676
VWidth: 0
Flags: W
LayerCount: 2
Fore
SplineSet
50 609 m 257,0,-1
 50 761 l 257,1,-1
 626 761 l 257,2,-1
 626 609 l 257,3,-1
 414 609 l 257,4,-1
 414 -7 l 257,5,-1
 262 -7 l 257,6,-1
 262 609 l 257,7,-1
 50 609 l 257,0,-1
EndSplineSet
EndChar

StartChar: Thorn
Encoding: 222 222 347
GlifName: T_horn
Width: 534
VWidth: 0
Flags: W
LayerCount: 2
Fore
SplineSet
202 556 m 257,0,-1
 202 349 l 257,1,2
 214 346 214 346 226 346 c 257,3,4
 271 346 271 346 302 377 c 128,-1,5
 333 408 333 408 333 453 c 257,6,7
 333 497 333 497 302 528 c 128,-1,8
 271 559 271 559 226 559 c 257,9,10
 214 559 214 559 202 556 c 257,0,-1
202 -2 m 257,11,-1
 50 -2 l 257,12,-1
 50 898 l 257,13,-1
 197 898 l 257,14,-1
 202 709 l 257,15,16
 210 710 210 710 226 710 c 257,17,18
 333 710 333 710 408.5 635 c 128,-1,19
 484 560 484 560 484 453 c 128,-1,20
 484 346 484 346 408.5 270.5 c 128,-1,21
 333 195 333 195 226 195 c 257,22,23
 210 195 210 195 202 196 c 257,24,-1
 202 -2 l 257,11,-1
EndSplineSet
EndChar

StartChar: U
Encoding: 85 85 351
GlifName: U_
Width: 669
VWidth: 0
Flags: W
LayerCount: 2
Fore
SplineSet
616 179 m 257,0,1
 600 121 600 121 555.5 79.5 c 128,-1,2
 511 38 511 38 455 18.5 c 128,-1,3
 399 -1 399 -1 335 -1.5 c 128,-1,4
 271 -2 271 -2 214.5 17 c 128,-1,5
 158 36 158 36 114 78 c 128,-1,6
 70 120 70 120 53 179 c 257,7,-1
 50 756 l 257,8,-1
 217 756 l 257,9,-1
 217 180 l 257,10,11
 246 147 246 147 335 146.5 c 128,-1,12
 424 146 424 146 452 180 c 257,13,-1
 452 756 l 257,14,-1
 619 756 l 257,15,-1
 616 179 l 257,0,1
EndSplineSet
EndChar

StartChar: V
Encoding: 86 86 395
GlifName: V_
Width: 652
VWidth: 0
Flags: W
LayerCount: 2
Fore
SplineSet
50 764 m 257,0,-1
 202 764 l 257,1,-1
 326 287 l 257,2,-1
 450 764 l 257,3,-1
 602 764 l 257,4,-1
 402 -5 l 257,5,-1
 250 -5 l 257,6,-1
 50 764 l 257,0,-1
EndSplineSet
EndChar

StartChar: W
Encoding: 87 87 399
GlifName: W_
Width: 1053
VWidth: 0
Flags: W
LayerCount: 2
Fore
SplineSet
50 764 m 257,0,-1
 202 764 l 257,1,-1
 326 287 l 257,2,-1
 450 764 l 257,3,-1
 451 764 l 257,4,-1
 602 764 l 257,5,-1
 603 764 l 257,6,-1
 727 287 l 257,7,-1
 851 764 l 257,8,-1
 1003 764 l 257,9,-1
 803 -5 l 257,10,-1
 651 -5 l 257,11,-1
 526 474 l 257,12,-1
 402 -5 l 257,13,-1
 250 -5 l 257,14,-1
 50 764 l 257,0,-1
EndSplineSet
EndChar

StartChar: X
Encoding: 88 88 419
GlifName: X_
Width: 724
VWidth: 0
Flags: W
LayerCount: 2
Fore
SplineSet
50 765 m 257,0,-1
 236 763 l 257,1,-1
 366 536 l 257,2,-1
 498 764 l 257,3,-1
 673 763 l 257,4,-1
 453 383 l 257,5,-1
 674 -5 l 257,6,-1
 499 -7 l 257,7,-1
 363 228 l 257,8,-1
 229 -3 l 257,9,-1
 51 -6 l 257,10,-1
 274 379 l 257,11,-1
 50 765 l 257,0,-1
EndSplineSet
EndChar

StartChar: Y
Encoding: 89 89 423
GlifName: Y_
Width: 652
VWidth: 0
Flags: W
LayerCount: 2
Fore
SplineSet
249 446 m 257,0,-1
 50 760 l 257,1,-1
 202 760 l 257,2,-1
 326 589 l 257,3,-1
 450 760 l 257,4,-1
 602 760 l 257,5,-1
 402 445 l 257,6,-1
 401 445 l 257,7,-1
 401 -4 l 257,8,-1
 249 -4 l 257,9,-1
 249 446 l 257,0,-1
EndSplineSet
EndChar

StartChar: Z
Encoding: 90 90 443
GlifName: Z_
Width: 783
VWidth: 0
Flags: W
LayerCount: 2
Fore
SplineSet
50 5 m 257,0,-1
 50 157 l 257,1,-1
 480 605 l 257,2,-1
 50 605 l 257,3,-1
 50 757 l 257,4,-1
 733 757 l 257,5,-1
 733 605 l 257,6,-1
 301 157 l 257,7,-1
 733 157 l 257,8,-1
 733 5 l 257,9,-1
 50 5 l 257,0,-1
EndSplineSet
EndChar

StartChar: a
Encoding: 97 97 459
GlifName: a
Width: 534
VWidth: 0
Flags: W
LayerCount: 2
Fore
SplineSet
332 364 m 257,0,1
 320 367 320 367 308 367 c 257,2,3
 263 367 263 367 232 336 c 128,-1,4
 201 305 201 305 201 261 c 257,5,6
 201 216 201 216 232 185 c 128,-1,7
 263 154 263 154 308 154 c 257,8,9
 320 154 320 154 332 157 c 257,10,-1
 332 364 l 257,0,1
332 -4 m 257,11,-1
 332 4 l 257,12,13
 324 3 324 3 308 3 c 257,14,15
 201 3 201 3 125.5 78.5 c 128,-1,16
 50 154 50 154 50 261 c 257,17,18
 50 367 50 367 125 438.5 c 128,-1,19
 200 510 200 510 308 510 c 257,20,21
 324 510 324 510 332 509 c 257,22,-1
 484 509 l 257,23,-1
 484 -4 l 257,24,-1
 332 -4 l 257,11,-1
EndSplineSet
EndChar

StartChar: acutecomb
Encoding: 769 769 479
GlifName: acutecomb
Width: 0
VWidth: 0
Flags: W
LayerCount: 2
Fore
SplineSet
-37 511 m 257,0,-1
 -145 618 l 257,1,-1
 37 800 l 257,2,-1
 145 693 l 257,3,-1
 -37 511 l 257,0,-1
EndSplineSet
EndChar

StartChar: ae
Encoding: 230 230 487
GlifName: ae
Width: 905
VWidth: 0
Flags: W
LayerCount: 2
Fore
SplineSet
854 255 m 257,0,1
 854 245 854 245 854.5 227.5 c 128,-1,2
 855 210 855 210 855 203 c 257,3,-1
 508 200 l 257,4,5
 539 149 539 149 596 149 c 257,6,7
 630 149 630 149 733.5 151.5 c 128,-1,8
 837 154 837 154 845 157 c 257,9,-1
 845 1 l 257,10,11
 826 -2 826 -2 596 -2 c 257,12,13
 549 -2 549 -2 505 14 c 257,14,-1
 332 -4 l 257,15,-1
 332 4 l 257,16,17
 324 3 324 3 308 3 c 257,18,19
 201 3 201 3 125.5 78.5 c 128,-1,20
 50 154 50 154 50 261 c 257,21,22
 50 367 50 367 125 438.5 c 128,-1,23
 200 510 200 510 308 510 c 257,24,25
 324 510 324 510 332 509 c 257,26,-1
 505 509 l 257,27,-1
 596 513 l 257,28,29
 703 513 703 513 778.5 437.5 c 128,-1,30
 854 362 854 362 854 255 c 257,0,1
332 364 m 257,31,32
 320 367 320 367 308 367 c 257,33,34
 263 367 263 367 232 336 c 128,-1,35
 201 305 201 305 201 261 c 257,36,37
 201 216 201 216 232 185 c 128,-1,38
 263 154 263 154 308 154 c 257,39,40
 320 154 320 154 332 157 c 257,41,-1
 332 364 l 257,31,32
503 292 m 257,42,-1
 695 289 l 257,43,44
 691 293 691 293 675 312 c 128,-1,45
 659 331 659 331 650 340.5 c 128,-1,46
 641 350 641 350 625.5 360 c 128,-1,47
 610 370 610 370 596 370 c 257,48,49
 578 370 578 370 562.5 358 c 128,-1,50
 547 346 547 346 526.5 320.5 c 128,-1,51
 506 295 506 295 503 292 c 257,42,-1
EndSplineSet
EndChar

StartChar: ampersand
Encoding: 38 38 499
GlifName: ampersand
Width: 650
VWidth: 0
Flags: W
LayerCount: 2
Fore
SplineSet
322.666992188 153 m 257,0,-1
 209.666992188 267 l 257,1,2
 208.666992188 261 208.666992188 261 208.666992188 255 c 257,3,4
 208.666992188 211 208.666992188 211 239.666992188 180 c 128,-1,5
 270.666992188 149 270.666992188 149 315.666992188 149 c 257,6,7
 316.666992188 149 316.666992188 149 322.666992188 153 c 257,0,-1
389.666992188 805 m 257,8,-1
 386.666992188 686 l 257,9,10
 368.666992188 685 368.666992188 685 304.166992188 650 c 128,-1,11
 239.666992188 615 239.666992188 615 224.666992188 600 c 257,12,13
 190.666992188 566 190.666992188 566 193.666992188 516 c 257,14,-1
 216.666992188 493 l 257,15,16
 263.666992188 513 263.666992188 513 315.666992188 513 c 257,17,18
 328.666992188 513 328.666992188 513 341.666992188 512 c 257,19,-1
 341.666992188 368 l 257,20,-1
 452.666992188 257 l 257,21,22
 565.666992188 349 565.666992188 349 569.666992188 350 c 257,23,-1
 569.666992188 197 l 257,24,25
 566.666992188 197 566.666992188 197 536.666992188 173 c 257,26,-1
 600.666992188 109 l 257,27,-1
 482.666992188 -9 l 257,28,-1
 406.666992188 68 l 257,29,30
 319.666992188 -2 319.666992188 -2 315.666992188 -2 c 257,31,32
 208.666992188 -2 208.666992188 -2 133.166992188 73 c 128,-1,33
 57.6669921875 148 57.6669921875 148 57.6669921875 255 c 257,34,35
 57.6669921875 325 57.6669921875 325 92.6669921875 385 c 257,36,-1
 76.6669921875 401 l 257,37,38
 56.6669921875 437 56.6669921875 437 51.6669921875 475 c 128,-1,39
 46.6669921875 513 46.6669921875 513 56.6669921875 553.5 c 128,-1,40
 66.6669921875 594 66.6669921875 594 80.1669921875 628 c 128,-1,41
 93.6669921875 662 93.6669921875 662 117.666992188 707 c 257,42,43
 130.666992188 731 130.666992188 731 191.166992188 759 c 128,-1,44
 251.666992188 787 251.666992188 787 312.666992188 801 c 128,-1,45
 373.666992188 815 373.666992188 815 389.666992188 805 c 257,8,-1
EndSplineSet
EndChar

StartChar: asciicircum
Encoding: 94 94 511
GlifName: asciicircum
Width: 502
VWidth: 0
Flags: W
LayerCount: 2
Fore
SplineSet
50 278 m 257,0,-1
 193 612 l 257,1,-1
 194 612 l 257,2,-1
 345 612 l 257,3,-1
 346 612 l 257,4,-1
 452 278 l 257,5,-1
 300 278 l 257,6,-1
 258 492 l 257,7,-1
 202 278 l 257,8,-1
 50 278 l 257,0,-1
EndSplineSet
EndChar

StartChar: asciitilde
Encoding: 126 126 515
GlifName: asciitilde
Width: 599
VWidth: 0
Flags: W
LayerCount: 2
Fore
SplineSet
549 572 m 257,0,-1
 549 420 l 257,1,2
 548 416 548 416 532.5 398 c 128,-1,3
 517 380 517 380 485 359.5 c 128,-1,4
 453 339 453 339 421 339 c 257,5,-1
 321 339 l 257,6,7
 289 339 289 339 244.5 367 c 128,-1,8
 200 395 200 395 168 395 c 257,9,10
 145 395 145 395 115.5 381 c 128,-1,11
 86 367 86 367 68 353 c 257,12,-1
 50 339 l 257,13,-1
 50 491 l 257,14,15
 114 547 114 547 164 547 c 257,16,17
 197 547 197 547 244 519.5 c 128,-1,18
 291 492 291 492 324 492 c 257,19,20
 369 492 369 492 413 492 c 257,21,22
 444 492 444 492 478 512 c 128,-1,23
 512 532 512 532 530 552 c 257,24,-1
 549 572 l 257,0,-1
EndSplineSet
EndChar

StartChar: asterisk
Encoding: 42 42 519
GlifName: asterisk
Width: 644
VWidth: 0
Flags: W
LayerCount: 2
Fore
SplineSet
594 491 m 257,0,-1
 594 339 l 257,1,-1
 505 339 l 257,2,-1
 568 276 l 257,3,-1
 461 169 l 257,4,-1
 398 232 l 257,5,-1
 398 144 l 257,6,-1
 246 144 l 257,7,-1
 246 232 l 257,8,-1
 183 169 l 257,9,-1
 76 276 l 257,10,-1
 139 339 l 257,11,-1
 50 339 l 257,12,-1
 50 491 l 257,13,-1
 139 491 l 257,14,-1
 76 554 l 257,15,-1
 183 661 l 257,16,-1
 246 598 l 257,17,-1
 246 687 l 257,18,-1
 398 687 l 257,19,-1
 398 598 l 257,20,-1
 461 661 l 257,21,-1
 568 554 l 257,22,-1
 505 491 l 257,23,-1
 594 491 l 257,0,-1
EndSplineSet
EndChar

StartChar: at
Encoding: 64 64 523
GlifName: at
Width: 876
VWidth: 0
Flags: W
LayerCount: 2
Fore
SplineSet
567.5546875 231 m 257,0,-1
 567.5546875 231 l 257,0,-1
530.5546875 161 m 257,1,-1
 530.5546875 161 l 257,1,-1
493.5546875 223 m 257,2,-1
 479.5546875 234 l 257,3,4
 425.5546875 234 425.5546875 234 387.5546875 271.5 c 128,-1,5
 349.5546875 309 349.5546875 309 349.5546875 363 c 257,6,7
 349.5546875 416 349.5546875 416 387.5546875 451.5 c 128,-1,8
 425.5546875 487 425.5546875 487 479.5546875 487 c 257,9,-1
 491.5546875 487 l 257,10,-1
 567.5546875 487 l 257,11,-1
 574.5546875 313 l 257,12,13
 576.5546875 301 576.5546875 301 590.0546875 287 c 128,-1,14
 603.5546875 273 603.5546875 273 620.0546875 265.5 c 128,-1,15
 636.5546875 258 636.5546875 258 651.0546875 271 c 128,-1,16
 665.5546875 284 665.5546875 284 668.5546875 321 c 257,17,18
 668.5546875 322 668.5546875 322 666.5546875 329 c 128,-1,19
 664.5546875 336 664.5546875 336 664.5546875 337 c 257,20,21
 673.5546875 391 673.5546875 391 657.5546875 443.5 c 128,-1,22
 641.5546875 496 641.5546875 496 601.5546875 536 c 257,23,24
 533.5546875 603 533.5546875 603 438.0546875 601.5 c 128,-1,25
 342.5546875 600 342.5546875 600 274.5546875 532 c 257,26,27
 205.5546875 463 205.5546875 463 204.5546875 367.5 c 128,-1,28
 203.5546875 272 203.5546875 272 270.5546875 204 c 257,29,30
 322.5546875 152 322.5546875 152 394.5546875 141 c 128,-1,31
 466.5546875 130 466.5546875 130 530.5546875 161 c 257,32,33
 541.5546875 166 541.5546875 166 569.5546875 138 c 128,-1,34
 597.5546875 110 597.5546875 110 620.5546875 79 c 257,35,-1
 643.5546875 49 l 257,36,37
 530.5546875 -27 530.5546875 -27 393.5546875 -15.5 c 128,-1,38
 256.5546875 -4 256.5546875 -4 159.5546875 93 c 257,39,40
 47.5546875 205 47.5546875 205 50.0546875 366 c 128,-1,41
 52.5546875 527 52.5546875 527 167.5546875 642 c 128,-1,42
 282.5546875 757 282.5546875 757 443.0546875 759.5 c 128,-1,43
 603.5546875 762 603.5546875 762 715.5546875 650 c 257,44,45
 799.5546875 566 799.5546875 566 820.5546875 443 c 128,-1,46
 841.5546875 320 841.5546875 320 793.5546875 215 c 257,47,48
 771.5546875 202 771.5546875 202 749.5546875 194 c 128,-1,49
 727.5546875 186 727.5546875 186 703.0546875 184.5 c 128,-1,50
 678.5546875 183 678.5546875 183 661.5546875 182.5 c 128,-1,51
 644.5546875 182 644.5546875 182 617.5546875 188.5 c 128,-1,52
 590.5546875 195 590.5546875 195 578.0546875 198 c 128,-1,53
 565.5546875 201 565.5546875 201 534.0546875 210.5 c 128,-1,54
 502.5546875 220 502.5546875 220 493.5546875 223 c 257,2,-1
491.5546875 415 m 257,55,56
 487.5546875 416 487.5546875 416 479.5546875 416 c 257,57,58
 456.5546875 416 456.5546875 416 441.0546875 400.5 c 128,-1,59
 425.5546875 385 425.5546875 385 425.5546875 363 c 128,-1,60
 425.5546875 341 425.5546875 341 441.0546875 325 c 128,-1,61
 456.5546875 309 456.5546875 309 479.5546875 309 c 257,62,63
 483.5546875 309 483.5546875 309 491.5546875 311 c 257,64,-1
 491.5546875 415 l 257,55,56
EndSplineSet
EndChar

StartChar: b
Encoding: 98 98 531
GlifName: b
Width: 534
VWidth: 0
Flags: W
LayerCount: 2
Fore
SplineSet
202 152 m 257,0,1
 214 149 214 149 226 149 c 257,2,3
 271 149 271 149 302 180 c 128,-1,4
 333 211 333 211 333 255 c 257,5,6
 333 300 333 300 302 331 c 128,-1,7
 271 362 271 362 226 362 c 257,8,9
 214 362 214 362 202 359 c 257,10,-1
 202 152 l 257,0,1
202 775 m 257,11,-1
 202 512 l 257,12,13
 210 513 210 513 226 513 c 257,14,15
 333 513 333 513 408.5 437.5 c 128,-1,16
 484 362 484 362 484 255 c 128,-1,17
 484 148 484 148 408.5 73 c 128,-1,18
 333 -2 333 -2 226 -2 c 257,19,20
 210 -2 210 -2 202 -1 c 257,21,-1
 50 -1 l 257,22,-1
 50 775 l 257,23,-1
 202 775 l 257,11,-1
EndSplineSet
EndChar

StartChar: backslash
Encoding: 92 92 535
GlifName: backslash
Width: 691
VWidth: 0
Flags: W
LayerCount: 2
Fore
SplineSet
156 813 m 257,0,-1
 641 -27 l 257,1,-1
 535 -88 l 257,2,-1
 50 752 l 257,3,-1
 156 813 l 257,0,-1
EndSplineSet
EndChar

StartChar: backslash.0
Encoding: 65937 -1 536
GlifName: backslash.0
Width: 691
VWidth: 0
Flags: W
LayerCount: 2
Fore
SplineSet
156 823 m 257,0,-1
 50 762 l 257,1,-1
 535 -78 l 257,2,-1
 641 -17 l 257,3,-1
 156 823 l 257,0,-1
EndSplineSet
EndChar

StartChar: bar
Encoding: 124 124 539
GlifName: bar
Width: 222
VWidth: 0
Flags: W
LayerCount: 2
Fore
SplineSet
50 866 m 257,0,-1
 172 866 l 257,1,-1
 172 -104 l 257,2,-1
 50 -104 l 257,3,-1
 50 866 l 257,0,-1
EndSplineSet
EndChar

StartChar: braceleft
Encoding: 123 123 543
GlifName: braceleft
Width: 372
VWidth: 0
Flags: W
LayerCount: 2
Fore
SplineSet
322 -90 m 257,0,1
 307 -97 307 -97 285 -97 c 257,2,3
 241 -97 241 -97 206.5 -55 c 128,-1,4
 172 -13 172 -13 160 53 c 257,5,-1
 159 223 l 257,6,-1
 50 353 l 257,7,-1
 159 480 l 257,8,-1
 160 650 l 257,9,10
 172 716 172 716 206.5 758 c 128,-1,11
 241 800 241 800 285 800 c 257,12,13
 307 800 307 800 322 793 c 257,14,-1
 322 658 l 257,15,16
 306 679 306 679 285 679 c 257,17,18
 261 679 261 679 244 649 c 257,19,-1
 245 465 l 257,20,-1
 163 364 l 257,21,-1
 244 223 l 257,22,-1
 244 53 l 257,23,24
 260 24 260 24 285 24 c 257,25,26
 306 24 306 24 322 45 c 257,27,-1
 322 -90 l 257,0,1
EndSplineSet
EndChar

StartChar: braceright
Encoding: 125 125 547
GlifName: braceright
Width: 372
VWidth: 0
Flags: W
LayerCount: 2
Fore
SplineSet
50 -90 m 257,0,-1
 50 45 l 257,1,2
 66 24 66 24 87 24 c 257,3,4
 112 24 112 24 128 53 c 257,5,-1
 128 223 l 257,6,-1
 209 364 l 257,7,-1
 127 465 l 257,8,-1
 128 649 l 257,9,10
 111 679 111 679 87 679 c 257,11,12
 66 679 66 679 50 658 c 257,13,-1
 50 793 l 257,14,15
 65 800 65 800 87 800 c 257,16,17
 131 800 131 800 165.5 758 c 128,-1,18
 200 716 200 716 212 650 c 257,19,-1
 213 480 l 257,20,-1
 322 353 l 257,21,-1
 213 223 l 257,22,-1
 212 53 l 257,23,24
 200 -13 200 -13 165.5 -55 c 128,-1,25
 131 -97 131 -97 87 -97 c 257,26,27
 65 -97 65 -97 50 -90 c 257,0,-1
EndSplineSet
EndChar

StartChar: bracketleft
Encoding: 91 91 551
GlifName: bracketleft
Width: 362
VWidth: 0
Flags: W
LayerCount: 2
Fore
SplineSet
51 -85 m 257,0,-1
 50 -85 l 257,1,-1
 50 -84 l 257,2,-1
 50 768 l 257,3,-1
 50 769 l 257,4,-1
 51 769 l 257,5,-1
 312 769 l 257,6,-1
 311 684 l 257,7,-1
 144 684 l 257,8,-1
 144 0 l 257,9,-1
 311 0 l 257,10,-1
 312 -85 l 257,11,-1
 51 -85 l 257,0,-1
EndSplineSet
EndChar

StartChar: bracketright
Encoding: 93 93 555
GlifName: bracketright
Width: 362
VWidth: 0
Flags: W
LayerCount: 2
Fore
SplineSet
311 -86 m 257,0,-1
 50 -86 l 257,1,-1
 51 -1 l 257,2,-1
 218 -1 l 257,3,-1
 218 684 l 257,4,-1
 51 684 l 257,5,-1
 50 769 l 257,6,-1
 311 769 l 257,7,-1
 312 769 l 257,8,-1
 312 768 l 257,9,-1
 312 -85 l 257,10,-1
 312 -86 l 257,11,-1
 311 -86 l 257,0,-1
EndSplineSet
EndChar

StartChar: brokenbar
Encoding: 166 166 563
GlifName: brokenbar
Width: 252
VWidth: 0
Flags: W
LayerCount: 2
Fore
SplineSet
202 828 m 257,0,-1
 202 454 l 257,1,-1
 50 454 l 257,2,-1
 50 828 l 257,3,-1
 202 828 l 257,0,-1
202 365 m 257,4,-1
 202 -35 l 257,5,-1
 50 -35 l 257,6,-1
 50 365 l 257,7,-1
 202 365 l 257,4,-1
EndSplineSet
EndChar

StartChar: c
Encoding: 99 99 567
GlifName: c
Width: 384
VWidth: 0
Flags: W
LayerCount: 2
Fore
SplineSet
334 -1 m 257,0,1
 321 -2 321 -2 308 -2 c 257,2,3
 201 -2 201 -2 125.5 73 c 128,-1,4
 50 148 50 148 50 255 c 128,-1,5
 50 362 50 362 125.5 437.5 c 128,-1,6
 201 513 201 513 308 513 c 257,7,8
 321 513 321 513 334 512 c 257,9,-1
 334 359 l 257,10,11
 321 362 321 362 308 362 c 257,12,13
 263 362 263 362 232 331 c 128,-1,14
 201 300 201 300 201 255 c 257,15,16
 201 211 201 211 232 180 c 128,-1,17
 263 149 263 149 308 149 c 257,18,19
 321 149 321 149 334 152 c 257,20,-1
 334 -1 l 257,0,1
EndSplineSet
EndChar

StartChar: cent
Encoding: 162 162 599
GlifName: cent
Width: 384
VWidth: 0
Flags: W
LayerCount: 2
Fore
SplineSet
334 -1 m 257,0,1
 321 -2 321 -2 308 -2 c 257,2,3
 296 -2 296 -2 285 -1 c 257,4,-1
 285 -104 l 257,5,-1
 238 -104 l 257,6,-1
 238 8 l 257,7,8
 156 30 156 30 103 98.5 c 128,-1,9
 50 167 50 167 50 255 c 257,10,11
 50 343 50 343 103 411.5 c 128,-1,12
 156 480 156 480 238 503 c 257,13,-1
 238 695 l 257,14,-1
 285 695 l 257,15,-1
 285 512 l 257,16,17
 296 513 296 513 308 513 c 257,18,19
 321 513 321 513 334 512 c 257,20,-1
 334 359 l 257,21,22
 321 362 321 362 308 362 c 257,23,24
 296 362 296 362 285 360 c 257,25,-1
 285 151 l 257,26,27
 296 149 296 149 308 149 c 257,28,29
 321 149 321 149 334 152 c 257,30,-1
 334 -1 l 257,0,1
238 337 m 257,31,32
 201 305 201 305 201 255 c 257,33,34
 201 206 201 206 238 174 c 257,35,-1
 238 337 l 257,31,32
EndSplineSet
EndChar

StartChar: colon
Encoding: 58 58 607
GlifName: colon
Width: 252
VWidth: 0
Flags: W
LayerCount: 2
Fore
SplineSet
50 -7 m 257,0,-1
 50 135 l 257,1,-1
 202 135 l 257,2,-1
 202 -7 l 257,3,-1
 50 -7 l 257,0,-1
50 393 m 257,4,-1
 50 535 l 257,5,-1
 202 535 l 257,6,-1
 202 393 l 257,7,-1
 50 393 l 257,4,-1
EndSplineSet
EndChar

StartChar: comma
Encoding: 44 44 611
GlifName: comma
Width: 252
VWidth: 0
Flags: W
LayerCount: 2
Fore
SplineSet
50 -7 m 257,0,-1
 50 135 l 257,1,-1
 202 135 l 257,2,-1
 202 -7 l 257,3,-1
 142 -139 l 257,4,-1
 84 -135 l 257,5,-1
 93 -7 l 257,6,-1
 50 -7 l 257,0,-1
EndSplineSet
EndChar

StartChar: copyright
Encoding: 169 169 615
GlifName: copyright
Width: 796
VWidth: 0
Flags: W
LayerCount: 2
Fore
SplineSet
691 373 m 257,0,1
 691 497 691 497 605.5 585 c 128,-1,2
 520 673 520 673 398 673 c 128,-1,3
 276 673 276 673 190.5 585 c 128,-1,4
 105 497 105 497 105 373 c 257,5,6
 105 248 105 248 190.5 160 c 128,-1,7
 276 72 276 72 398 72 c 128,-1,8
 520 72 520 72 605.5 160 c 128,-1,9
 691 248 691 248 691 373 c 257,0,1
746 375 m 257,10,11
 746 277 746 277 699.5 194.5 c 128,-1,12
 653 112 653 112 573 64 c 128,-1,13
 493 16 493 16 398 16 c 128,-1,14
 303 16 303 16 223 64 c 128,-1,15
 143 112 143 112 96.5 194.5 c 128,-1,16
 50 277 50 277 50 375 c 257,17,18
 50 472 50 472 96.5 554.5 c 128,-1,19
 143 637 143 637 223 685 c 128,-1,20
 303 733 303 733 398 733 c 128,-1,21
 493 733 493 733 573 685 c 128,-1,22
 653 637 653 637 699.5 554.5 c 128,-1,23
 746 472 746 472 746 375 c 257,10,11
459 191 m 257,24,25
 451 190 451 190 443 190 c 257,26,27
 376 190 376 190 329 237 c 128,-1,28
 282 284 282 284 282 350 c 257,29,30
 282 417 282 417 329 464.5 c 128,-1,31
 376 512 376 512 443 512 c 257,32,33
 451 512 451 512 459 511 c 257,34,-1
 459 415 l 257,35,36
 451 417 451 417 443 417 c 257,37,38
 415 417 415 417 395.5 398 c 128,-1,39
 376 379 376 379 376 350 c 257,40,41
 376 323 376 323 395.5 303.5 c 128,-1,42
 415 284 415 284 443 284 c 257,43,44
 451 284 451 284 459 286 c 257,45,-1
 459 191 l 257,24,25
EndSplineSet
EndChar

StartChar: d
Encoding: 100 100 619
GlifName: d
Width: 534
VWidth: 0
Flags: W
LayerCount: 2
Fore
SplineSet
332 152 m 257,0,-1
 332 359 l 257,1,2
 320 362 320 362 308 362 c 257,3,4
 263 362 263 362 232 331 c 128,-1,5
 201 300 201 300 201 255 c 257,6,7
 201 211 201 211 232 180 c 128,-1,8
 263 149 263 149 308 149 c 257,9,10
 320 149 320 149 332 152 c 257,0,-1
332 775 m 257,11,-1
 484 775 l 257,12,-1
 484 -1 l 257,13,-1
 332 -1 l 257,14,15
 320 -2 320 -2 308 -2 c 257,16,17
 201 -2 201 -2 125.5 73 c 128,-1,18
 50 148 50 148 50 255 c 128,-1,19
 50 362 50 362 125.5 437.5 c 128,-1,20
 201 513 201 513 308 513 c 257,21,22
 320 513 320 513 332 512 c 257,23,-1
 332 775 l 257,11,-1
EndSplineSet
EndChar

StartChar: dcaron
Encoding: 271 271 623
GlifName: dcaron
Width: 718
VWidth: 0
Flags: W
LayerCount: 2
Fore
SplineSet
332 152 m 257,0,-1
 332 359 l 257,1,2
 320 362 320 362 308 362 c 257,3,4
 263 362 263 362 232 331 c 128,-1,5
 201 300 201 300 201 255 c 257,6,7
 201 211 201 211 232 180 c 128,-1,8
 263 149 263 149 308 149 c 257,9,10
 320 149 320 149 332 152 c 257,0,-1
332 775 m 257,11,-1
 484 775 l 257,12,-1
 484 -1 l 257,13,-1
 332 -1 l 257,14,15
 320 -2 320 -2 308 -2 c 257,16,17
 201 -2 201 -2 125.5 73 c 128,-1,18
 50 148 50 148 50 255 c 128,-1,19
 50 362 50 362 125.5 437.5 c 128,-1,20
 201 513 201 513 308 513 c 257,21,22
 320 513 320 513 332 512 c 257,23,-1
 332 775 l 257,11,-1
516 527 m 257,24,-1
 516 784 l 257,25,-1
 668 784 l 257,26,-1
 623 527 l 257,27,-1
 516 527 l 257,24,-1
EndSplineSet
EndChar

StartChar: dcroat
Encoding: 273 273 627
GlifName: dcroat
Width: 585
VWidth: 0
Flags: W
LayerCount: 2
Fore
SplineSet
332 152 m 257,0,-1
 332 359 l 257,1,2
 320 362 320 362 308 362 c 257,3,4
 263 362 263 362 232 331 c 128,-1,5
 201 300 201 300 201 255 c 257,6,7
 201 211 201 211 232 180 c 128,-1,8
 263 149 263 149 308 149 c 257,9,10
 320 149 320 149 332 152 c 257,0,-1
332 775 m 257,11,-1
 484 775 l 257,12,-1
 484 734 l 257,13,-1
 535 734 l 257,14,-1
 535 582 l 257,15,-1
 484 582 l 257,16,-1
 484 -1 l 257,17,-1
 332 -1 l 257,18,19
 320 -2 320 -2 308 -2 c 257,20,21
 201 -2 201 -2 125.5 73 c 128,-1,22
 50 148 50 148 50 255 c 128,-1,23
 50 362 50 362 125.5 437.5 c 128,-1,24
 201 513 201 513 308 513 c 257,25,26
 320 513 320 513 332 512 c 257,27,-1
 332 582 l 257,28,-1
 264 582 l 257,29,-1
 264 734 l 257,30,-1
 332 734 l 257,31,-1
 332 775 l 257,11,-1
EndSplineSet
EndChar

StartChar: dieresis
Encoding: 168 168 635
GlifName: dieresis
Width: 452
VWidth: 0
Flags: W
LayerCount: 2
Fore
SplineSet
50 -7 m 257,0,-1
 50 135 l 257,1,-1
 202 135 l 257,2,-1
 202 -7 l 257,3,-1
 50 -7 l 257,0,-1
250 -7 m 257,4,-1
 250 135 l 257,5,-1
 402 135 l 257,6,-1
 402 -7 l 257,7,-1
 250 -7 l 257,4,-1
EndSplineSet
EndChar

StartChar: divide
Encoding: 247 247 639
GlifName: divide
Width: 644
VWidth: 0
Flags: W
LayerCount: 2
Fore
SplineSet
250 146 m 257,0,-1
 250 288 l 257,1,-1
 402 288 l 257,2,-1
 402 146 l 257,3,-1
 250 146 l 257,0,-1
250 546 m 257,4,-1
 250 688 l 257,5,-1
 402 688 l 257,6,-1
 402 546 l 257,7,-1
 250 546 l 257,4,-1
594 491 m 257,8,-1
 594 339 l 257,9,-1
 50 339 l 257,10,-1
 50 491 l 257,11,-1
 594 491 l 257,8,-1
EndSplineSet
EndChar

StartChar: dollar
Encoding: 36 36 643
GlifName: dollar
Width: 519
VWidth: 0
Flags: W
LayerCount: 2
Fore
SplineSet
243 581 m 257,0,1
 234 572 234 572 227 560 c 257,2,3
 202 519 202 519 222 470 c 257,4,5
 231 451 231 451 243 438 c 257,6,-1
 243 581 l 257,0,1
50 52 m 257,7,-1
 125 177 l 257,8,9
 133 171 133 171 147 162 c 257,10,11
 185 140 185 140 228 150 c 257,12,13
 236 152 236 152 243 155 c 257,14,-1
 243 305 l 257,15,16
 233 308 233 308 222 310 c 257,17,18
 173 337 173 337 137 370 c 128,-1,19
 101 403 101 403 80 444 c 128,-1,20
 59 485 59 485 62 534 c 128,-1,21
 65 583 65 583 96 634 c 257,22,23
 147 718 147 718 243 753 c 257,24,-1
 243 1025 l 257,25,-1
 322 1025 l 257,26,-1
 322 769 l 257,27,28
 393 772 393 772 448 722 c 257,29,30
 451 719 451 719 458.5 714.5 c 128,-1,31
 466 710 466 710 469 707 c 257,32,-1
 394 582 l 257,33,34
 382 592 382 592 372 597 c 257,35,36
 348 610 348 610 322 611 c 257,37,-1
 322 396 l 257,38,39
 351 378 351 378 373 361 c 257,40,41
 406 334 406 334 430.5 299 c 128,-1,42
 455 264 455 264 453.5 220 c 128,-1,43
 452 176 452 176 422 125 c 257,44,45
 387 66 387 66 322 27 c 257,46,-1
 322 -187 l 257,47,-1
 243 -187 l 257,48,-1
 243 -5 l 257,49,50
 217 -11 217 -11 192 -11 c 257,51,52
 125 -12 125 -12 71 37 c 257,53,54
 68 40 68 40 60.5 44.5 c 128,-1,55
 53 49 53 49 50 52 c 257,7,-1
EndSplineSet
EndChar

StartChar: dotbelowcomb
Encoding: 803 803 651
GlifName: dotbelowcomb
Width: 252
VWidth: 0
Flags: W
LayerCount: 2
Fore
SplineSet
50 -7 m 257,0,-1
 50 135 l 257,1,-1
 202 135 l 257,2,-1
 202 -7 l 257,3,-1
 50 -7 l 257,0,-1
EndSplineSet
EndChar

StartChar: dotlessi
Encoding: 305 305 655
GlifName: dotlessi
Width: 252
VWidth: 0
Flags: W
LayerCount: 2
Fore
SplineSet
50 507 m 257,0,-1
 202 507 l 257,1,-1
 202 -7 l 257,2,-1
 50 -7 l 257,3,-1
 50 507 l 257,0,-1
EndSplineSet
EndChar

StartChar: e
Encoding: 101 101 659
GlifName: e
Width: 617
VWidth: 0
Flags: W
LayerCount: 2
Fore
SplineSet
211 292 m 257,0,-1
 407 289 l 257,1,2
 403 293 403 293 387 312 c 128,-1,3
 371 331 371 331 362 340.5 c 128,-1,4
 353 350 353 350 337.5 360 c 128,-1,5
 322 370 322 370 308 370 c 257,6,7
 294 370 294 370 279 360.5 c 128,-1,8
 264 351 264 351 254.5 341 c 128,-1,9
 245 331 245 331 230 314 c 128,-1,10
 215 297 215 297 211 292 c 257,0,-1
566 255 m 257,11,12
 566 245 566 245 566.5 227.5 c 128,-1,13
 567 210 567 210 567 203 c 257,14,-1
 216 200 l 257,15,16
 230 177 230 177 254.5 163 c 128,-1,17
 279 149 279 149 308 149 c 257,18,19
 342 149 342 149 445.5 151.5 c 128,-1,20
 549 154 549 154 557 157 c 257,21,-1
 557 1 l 257,22,23
 538 -2 538 -2 308 -2 c 257,24,25
 201 -2 201 -2 125.5 73 c 128,-1,26
 50 148 50 148 50 255 c 128,-1,27
 50 362 50 362 125.5 437.5 c 128,-1,28
 201 513 201 513 308 513 c 128,-1,29
 415 513 415 513 490.5 437.5 c 128,-1,30
 566 362 566 362 566 255 c 257,11,12
EndSplineSet
EndChar

StartChar: eight
Encoding: 56 56 691
GlifName: eight
Width: 558
VWidth: 0
Flags: W
LayerCount: 2
Fore
SplineSet
278 -2 m 257,0,-1
 277 -2 l 257,1,2
 276 -2 276 -2 274 -2 c 257,3,4
 267 -2 267 -2 262 -1 c 257,5,6
 172 5 172 5 111 70 c 128,-1,7
 50 135 50 135 50 224 c 257,8,9
 50 299 50 299 94 359 c 257,10,11
 50 418 50 418 50 493 c 257,12,13
 50 583 50 583 111 648 c 128,-1,14
 172 713 172 713 262 719 c 257,15,16
 267 720 267 720 274 720 c 257,17,18
 276 720 276 720 277 720 c 257,19,-1
 278 720 l 257,20,21
 279 720 279 720 281 720 c 257,22,23
 375 720 375 720 441.5 653.5 c 128,-1,24
 508 587 508 587 508 493 c 257,25,26
 508 418 508 418 464 359 c 257,27,28
 508 299 508 299 508 224 c 257,29,30
 508 131 508 131 441.5 64.5 c 128,-1,31
 375 -2 375 -2 281 -2 c 257,32,33
 280 -2 280 -2 279 -2 c 2,34,-1
 278 -2 l 257,0,-1
279 587 m 257,35,36
 268 587 268 587 258 584 c 257,37,-1
 258 585 l 257,38,39
 225 578 225 578 204 552.5 c 128,-1,40
 183 527 183 527 183 493 c 257,41,42
 183 459 183 459 204 433.5 c 128,-1,43
 225 408 225 408 258 401 c 257,44,-1
 258 402 l 257,45,46
 268 400 268 400 279 399 c 257,47,48
 290 400 290 400 300 402 c 257,49,-1
 300 401 l 257,50,51
 333 408 333 408 354 433.5 c 128,-1,52
 375 459 375 459 375 493 c 257,53,54
 375 527 375 527 354 552.5 c 128,-1,55
 333 578 333 578 300 585 c 257,56,-1
 300 584 l 257,57,58
 290 587 290 587 279 587 c 257,35,36
279 319 m 257,59,60
 268 318 268 318 258 316 c 257,61,-1
 258 317 l 257,62,63
 225 310 225 310 204 284.5 c 128,-1,64
 183 259 183 259 183 224 c 257,65,66
 183 191 183 191 204 165.5 c 128,-1,67
 225 140 225 140 258 133 c 257,68,-1
 258 134 l 257,69,70
 268 131 268 131 279 131 c 257,71,72
 290 131 290 131 300 134 c 257,73,-1
 300 133 l 257,74,75
 333 140 333 140 354 165.5 c 128,-1,76
 375 191 375 191 375 224 c 257,77,78
 375 259 375 259 354 284.5 c 128,-1,79
 333 310 333 310 300 317 c 257,80,-1
 300 316 l 257,81,82
 290 318 290 318 279 319 c 257,59,60
EndSplineSet
EndChar

StartChar: equal
Encoding: 61 61 703
GlifName: equal
Width: 644
VWidth: 0
Flags: W
LayerCount: 2
Fore
SplineSet
594 541 m 257,0,-1
 594 389 l 257,1,-1
 50 389 l 257,2,-1
 50 541 l 257,3,-1
 594 541 l 257,0,-1
594 291 m 257,4,-1
 594 139 l 257,5,-1
 50 139 l 257,6,-1
 50 291 l 257,7,-1
 594 291 l 257,4,-1
EndSplineSet
EndChar

StartChar: eth
Encoding: 240 240 707
GlifName: eth
Width: 612
VWidth: 0
Flags: W
LayerCount: 2
Fore
SplineSet
135 775 m 257,0,-1
 287 775 l 257,1,2
 295 768 295 768 302 762 c 257,3,-1
 340 800 l 257,4,-1
 427 724 l 257,5,-1
 387 684 l 257,6,7
 434 636 434 636 468 589.5 c 128,-1,8
 502 543 502 543 529 478 c 128,-1,9
 556 413 556 413 561.5 344.5 c 128,-1,10
 567 276 567 276 549 186.5 c 128,-1,11
 531 97 531 97 484 -1 c 257,12,-1
 332 -1 l 257,13,14
 320 -2 320 -2 308 -2 c 257,15,16
 201 -2 201 -2 125.5 73 c 128,-1,17
 50 148 50 148 50 255 c 128,-1,18
 50 362 50 362 125.5 437.5 c 128,-1,19
 201 513 201 513 308 513 c 257,20,21
 320 513 320 513 332 512 c 257,22,-1
 282 579 l 257,23,-1
 245 542 l 257,24,-1
 158 618 l 257,25,-1
 212 672 l 257,26,-1
 135 775 l 257,0,-1
310 362 m 257,27,28
 297 362 297 362 286 359 c 257,29,-1
 286 360 l 257,30,31
 249 352 249 352 225 323 c 128,-1,32
 201 294 201 294 201 255 c 257,33,34
 201 217 201 217 225 188 c 128,-1,35
 249 159 249 159 286 151 c 257,36,-1
 286 152 l 257,37,38
 297 149 297 149 310 149 c 257,39,40
 322 149 322 149 334 152 c 257,41,-1
 334 151 l 257,42,43
 371 159 371 159 395 188 c 128,-1,44
 419 217 419 217 419 255 c 257,45,46
 419 294 419 294 395 323 c 128,-1,47
 371 352 371 352 334 360 c 257,48,-1
 334 359 l 257,49,50
 322 362 322 362 310 362 c 257,27,28
EndSplineSet
EndChar

StartChar: exclam
Encoding: 33 33 711
GlifName: exclam
Width: 252
VWidth: 0
Flags: W
LayerCount: 2
Fore
SplineSet
50 -7 m 257,0,-1
 50 135 l 257,1,-1
 202 135 l 257,2,-1
 202 -7 l 257,3,-1
 50 -7 l 257,0,-1
50 253 m 257,4,-1
 50 767 l 257,5,-1
 202 767 l 257,6,-1
 202 253 l 257,7,-1
 50 253 l 257,4,-1
EndSplineSet
EndChar

StartChar: exclamdown
Encoding: 161 161 715
GlifName: exclamdown
Width: 252
VWidth: 0
Flags: W
LayerCount: 2
Fore
SplineSet
202 767 m 257,0,-1
 202 625 l 257,1,-1
 50 625 l 257,2,-1
 50 767 l 257,3,-1
 202 767 l 257,0,-1
202 507 m 257,4,-1
 202 -7 l 257,5,-1
 50 -7 l 257,6,-1
 50 507 l 257,7,-1
 202 507 l 257,4,-1
EndSplineSet
EndChar

StartChar: f
Encoding: 102 102 719
GlifName: f
Width: 514
VWidth: 0
Flags: W
LayerCount: 2
Fore
SplineSet
464 747 m 257,0,-1
 464 579 l 257,1,2
 433 605 433 605 393 605 c 257,3,4
 344 605 344 605 312 568 c 257,5,-1
 312 506 l 257,6,-1
 409 506 l 257,7,-1
 409 354 l 257,8,-1
 312 354 l 257,9,-1
 312 -8 l 257,10,-1
 145 -8 l 257,11,-1
 147 354 l 257,12,-1
 50 354 l 257,13,-1
 50 506 l 257,14,-1
 148 506 l 257,15,-1
 148 569 l 257,16,17
 172 652 172 652 239 704 c 128,-1,18
 306 756 306 756 393 756 c 257,19,20
 430 756 430 756 464 747 c 257,0,-1
EndSplineSet
EndChar

StartChar: five
Encoding: 53 53 723
GlifName: five
Width: 418
VWidth: 0
Flags: W
LayerCount: 2
Fore
SplineSet
50 -1 m 257,0,-1
 50 152 l 257,1,2
 62 149 62 149 76 149 c 257,3,4
 121 149 121 149 152 180 c 128,-1,5
 183 211 183 211 183 255 c 257,6,7
 183 300 183 300 152 331 c 128,-1,8
 121 362 121 362 76 362 c 257,9,10
 62 362 62 362 50 359 c 257,11,-1
 50 392 l 257,12,-1
 50 512 l 257,13,-1
 50 768 l 257,14,-1
 51 768 l 257,15,-1
 51 769 l 257,16,-1
 368 769 l 257,17,-1
 367 617 l 257,18,-1
 202 617 l 257,19,-1
 202 480 l 257,20,21
 262 446 262 446 298 386.5 c 128,-1,22
 334 327 334 327 334 255 c 257,23,24
 334 148 334 148 258.5 73 c 128,-1,25
 183 -2 183 -2 76 -2 c 257,26,27
 59 -2 59 -2 50 -1 c 257,0,-1
EndSplineSet
EndChar

StartChar: four
Encoding: 52 52 727
GlifName: four
Width: 565
VWidth: 0
Flags: W
LayerCount: 2
Fore
SplineSet
378 336 m 257,0,-1
 378 516 l 257,1,-1
 280 339 l 257,2,-1
 378 336 l 257,0,-1
386 -5 m 257,3,-1
 386 187 l 257,4,-1
 385 186 l 257,5,-1
 50 186 l 257,6,-1
 372 769 l 257,7,-1
 515 769 l 257,8,-1
 515 -5 l 257,9,-1
 386 -5 l 257,3,-1
EndSplineSet
EndChar

StartChar: g
Encoding: 103 103 731
GlifName: g
Width: 620
VWidth: 0
Flags: W
LayerCount: 2
Fore
SplineSet
309 -2 m 257,0,-1
 308 -2 l 257,1,2
 306 -2 306 -2 304 -2 c 257,3,-1
 300 -2 l 257,4,5
 263 -2 263 -2 259 -1 c 257,6,7
 161 6 161 6 105.5 77.5 c 128,-1,8
 50 149 50 149 50 255 c 257,9,10
 50 357 50 357 119.5 431.5 c 128,-1,11
 189 506 189 506 290 512 c 257,12,13
 296 513 296 513 304 513 c 257,14,15
 306 513 306 513 308 513 c 257,16,-1
 309 513 l 257,17,18
 310 513 310 513 312 513 c 257,19,20
 419 513 419 513 494.5 438 c 128,-1,21
 570 363 570 363 570 256 c 257,22,-1
 570 255 l 257,23,24
 570 252 570 252 570 248 c 257,25,-1
 567 -23 l 257,26,27
 543 -106 543 -106 477.5 -158 c 128,-1,28
 412 -210 412 -210 325 -210 c 257,29,30
 154 -210 154 -210 120 -201 c 257,31,-1
 120 -33 l 257,32,33
 132 -43 132 -43 211 -51 c 128,-1,34
 290 -59 290 -59 325 -59 c 257,35,36
 351 -59 351 -59 377.5 -49 c 128,-1,37
 404 -39 404 -39 419 -22 c 257,38,-1
 419 21 l 257,39,40
 368 -2 368 -2 312 -2 c 257,41,42
 311 -2 311 -2 310 -2 c 2,43,-1
 309 -2 l 257,0,-1
310 362 m 257,44,45
 297 362 297 362 286 359 c 257,46,-1
 286 360 l 257,47,48
 249 352 249 352 225 323 c 128,-1,49
 201 294 201 294 201 255 c 257,50,51
 201 217 201 217 225 188 c 128,-1,52
 249 159 249 159 286 151 c 257,53,-1
 286 152 l 257,54,55
 297 149 297 149 310 149 c 257,56,57
 322 149 322 149 334 152 c 257,58,-1
 334 151 l 257,59,60
 371 159 371 159 395 188 c 128,-1,61
 419 217 419 217 419 255 c 257,62,63
 419 294 419 294 395 323 c 128,-1,64
 371 352 371 352 334 360 c 257,65,-1
 334 359 l 257,66,67
 322 362 322 362 310 362 c 257,44,45
EndSplineSet
EndChar

StartChar: germandbls
Encoding: 223 223 747
GlifName: germandbls
Width: 836
VWidth: 0
Flags: W
LayerCount: 2
Fore
SplineSet
283 42 m 257,0,-1
 350 154 l 257,1,2
 357 147 357 147 372 142 c 257,3,4
 412 125 412 125 443.5 129 c 128,-1,5
 475 133 475 133 495 157 c 257,6,7
 518 184 518 184 473 196 c 257,8,9
 461 199 461 199 419 206 c 257,10,11
 353 232 353 232 313 266.5 c 128,-1,12
 273 301 273 301 265 343 c 128,-1,13
 257 385 257 385 295 429 c 257,14,15
 303 439 303 439 320 461 c 128,-1,16
 337 483 337 483 346 493.5 c 128,-1,17
 355 504 355 504 371.5 520.5 c 128,-1,18
 388 537 388 537 402 543.5 c 128,-1,19
 416 550 416 550 435.5 555.5 c 128,-1,20
 455 561 455 561 477.5 557.5 c 128,-1,21
 500 554 500 554 526 544 c 257,22,23
 527 544 527 544 528 544 c 257,24,25
 573 544 573 544 604 575 c 128,-1,26
 635 606 635 606 635 651 c 257,27,28
 635 681 635 681 539.5 697 c 128,-1,29
 444 713 444 713 341 707.5 c 128,-1,30
 238 702 238 702 217 678 c 257,31,-1
 217 -3 l 257,32,-1
 50 -3 l 257,33,-1
 53 679 l 257,34,35
 77 762 77 762 144 814 c 257,36,37
 185 846 185 846 264 858.5 c 128,-1,38
 343 871 343 871 431 861 c 128,-1,39
 519 851 519 851 599.5 826.5 c 128,-1,40
 680 802 680 802 733 755 c 128,-1,41
 786 708 786 708 786 651 c 257,42,43
 786 574 786 574 774.5 527 c 128,-1,44
 763 480 763 480 743 461 c 128,-1,45
 723 442 723 442 698 437 c 128,-1,46
 673 432 673 432 642.5 435.5 c 128,-1,47
 612 439 612 439 583 441 c 128,-1,48
 554 443 554 443 523 432.5 c 128,-1,49
 492 422 492 422 470 395 c 257,50,51
 454 377 454 377 449.5 350 c 128,-1,52
 445 323 445 323 458 299 c 128,-1,53
 471 275 471 275 501 270 c 257,54,55
 540 253 540 253 569 238.5 c 128,-1,56
 598 224 598 224 624.5 204 c 128,-1,57
 651 184 651 184 662.5 164.5 c 128,-1,58
 674 145 674 145 671.5 120.5 c 128,-1,59
 669 96 669 96 647 70 c 257,60,61
 600 13 600 13 500 0.5 c 128,-1,62
 400 -12 400 -12 305 29 c 257,63,64
 297 31 297 31 283 42 c 257,0,-1
EndSplineSet
EndChar

StartChar: grave
Encoding: 96 96 751
GlifName: grave
Width: 390
VWidth: 0
Flags: W
LayerCount: 2
Fore
SplineSet
232 511 m 257,0,-1
 50 693 l 257,1,-1
 158 800 l 257,2,-1
 340 618 l 257,3,-1
 232 511 l 257,0,-1
EndSplineSet
EndChar

StartChar: gravecomb
Encoding: 768 768 755
GlifName: gravecomb
Width: 0
VWidth: 0
Flags: W
LayerCount: 2
Fore
SplineSet
37 511 m 257,0,-1
 -145 693 l 257,1,-1
 -37 800 l 257,2,-1
 145 618 l 257,3,-1
 37 511 l 257,0,-1
EndSplineSet
EndChar

StartChar: greater
Encoding: 62 62 759
GlifName: greater
Width: 644
VWidth: 0
Flags: W
LayerCount: 2
Fore
SplineSet
50 541 m 257,0,-1
 594 398 l 257,1,-1
 594 397 l 257,2,-1
 594 246 l 257,3,-1
 594 245 l 257,4,-1
 50 139 l 257,5,-1
 50 291 l 257,6,-1
 264 333 l 257,7,-1
 50 389 l 257,8,-1
 50 541 l 257,0,-1
EndSplineSet
EndChar

StartChar: guillemotleft
Encoding: 171 171 763
GlifName: guillemotleft
Width: 1244
VWidth: 0
Flags: W
LayerCount: 2
Fore
SplineSet
594 658 m 257,0,-1
 594 506 l 257,1,-1
 188 333 l 257,2,-1
 594 153 l 257,3,-1
 594 1 l 257,4,-1
 50 245 l 257,5,-1
 50 246 l 257,6,-1
 50 397 l 257,7,-1
 50 398 l 257,8,-1
 594 658 l 257,0,-1
1194 658 m 257,9,-1
 1194 506 l 257,10,-1
 788 333 l 257,11,-1
 1194 153 l 257,12,-1
 1194 1 l 257,13,-1
 650 245 l 257,14,-1
 650 246 l 257,15,-1
 650 397 l 257,16,-1
 650 398 l 257,17,-1
 1194 658 l 257,9,-1
EndSplineSet
EndChar

StartChar: guillemotright
Encoding: 187 187 767
GlifName: guillemotright
Width: 1244
VWidth: 0
Flags: W
LayerCount: 2
Fore
SplineSet
650 658 m 257,0,-1
 1194 398 l 257,1,-1
 1194 397 l 257,2,-1
 1194 246 l 257,3,-1
 1194 245 l 257,4,-1
 650 1 l 257,5,-1
 650 153 l 257,6,-1
 1056 333 l 257,7,-1
 650 506 l 257,8,-1
 650 658 l 257,0,-1
50 658 m 257,9,-1
 594 398 l 257,10,-1
 594 397 l 257,11,-1
 594 246 l 257,12,-1
 594 245 l 257,13,-1
 50 1 l 257,14,-1
 50 153 l 257,15,-1
 456 333 l 257,16,-1
 50 506 l 257,17,-1
 50 658 l 257,9,-1
EndSplineSet
EndChar

StartChar: h
Encoding: 104 104 771
GlifName: h
Width: 597
VWidth: 0
Flags: W
LayerCount: 2
Fore
SplineSet
50 763 m 257,0,-1
 219 763 l 257,1,-1
 219 507 l 257,2,3
 258 519 258 519 299 519 c 257,4,5
 386 519 386 519 453 467 c 128,-1,6
 520 415 520 415 544 332 c 257,7,-1
 547 1 l 257,8,-1
 380 1 l 257,9,-1
 380 331 l 257,10,11
 348 368 348 368 299 368 c 257,12,13
 251 368 251 368 219 333 c 257,14,-1
 219 1 l 257,15,-1
 50 1 l 257,16,-1
 50 763 l 257,0,-1
EndSplineSet
EndChar

StartChar: hbar
Encoding: 295 295 775
GlifName: hbar
Width: 658
VWidth: 0
Flags: W
LayerCount: 2
Fore
SplineSet
338 726 m 257,0,-1
 338 574 l 257,1,-1
 280 574 l 257,2,-1
 280 507 l 257,3,4
 319 519 319 519 360 519 c 257,5,6
 447 519 447 519 514 467 c 128,-1,7
 581 415 581 415 605 332 c 257,8,-1
 608 1 l 257,9,-1
 441 1 l 257,10,-1
 441 331 l 257,11,12
 409 368 409 368 360 368 c 257,13,14
 312 368 312 368 280 333 c 257,15,-1
 280 1 l 257,16,-1
 111 1 l 257,17,-1
 111 574 l 257,18,-1
 50 574 l 257,19,-1
 50 726 l 257,20,-1
 111 726 l 257,21,-1
 111 763 l 257,22,-1
 280 763 l 257,23,-1
 280 726 l 257,24,-1
 338 726 l 257,0,-1
EndSplineSet
EndChar

StartChar: hookabovecomb
Encoding: 777 777 783
GlifName: hookabovecomb
Width: 0
VWidth: 0
Flags: W
LayerCount: 2
Fore
SplineSet
-71 427 m 257,0,-1
 -71 504 l 257,1,2
 -63 502 -63 502 -58 502 c 257,3,4
 -35 502 -35 502 -19.5 517.5 c 128,-1,5
 -4 533 -4 533 -4 555 c 128,-1,6
 -4 577 -4 577 -20 593 c 128,-1,7
 -36 609 -36 609 -58 609 c 257,8,9
 -63 609 -63 609 -71 607 c 257,10,-1
 -71 684 l 257,11,-1
 -58 684 l 257,12,13
 -4 684 -4 684 33.5 646.5 c 128,-1,14
 71 609 71 609 71 555 c 257,15,16
 71 502 71 502 33.5 464.5 c 128,-1,17
 -4 427 -4 427 -58 427 c 257,18,-1
 -71 427 l 257,0,-1
EndSplineSet
EndChar

StartChar: hyphen
Encoding: 45 45 791
GlifName: hyphen
Width: 644
VWidth: 0
Flags: W
LayerCount: 2
Fore
SplineSet
594 491 m 257,0,-1
 594 339 l 257,1,-1
 50 339 l 257,2,-1
 50 491 l 257,3,-1
 594 491 l 257,0,-1
EndSplineSet
EndChar

StartChar: i
Encoding: 105 105 795
GlifName: i
Width: 252
VWidth: 0
Flags: W
LayerCount: 2
Fore
SplineSet
50 767 m 257,0,-1
 202 767 l 257,1,-1
 202 625 l 257,2,-1
 50 625 l 257,3,-1
 50 767 l 257,0,-1
50 507 m 257,4,-1
 202 507 l 257,5,-1
 202 -7 l 257,6,-1
 50 -7 l 257,7,-1
 50 507 l 257,4,-1
EndSplineSet
EndChar

StartChar: j
Encoding: 106 106 831
GlifName: j
Width: 419
VWidth: 0
Flags: W
LayerCount: 2
Fore
SplineSet
214 767 m 257,0,-1
 366 767 l 257,1,-1
 366 625 l 257,2,-1
 214 625 l 257,3,-1
 214 767 l 257,0,-1
50 -200 m 257,4,-1
 50 -32 l 257,5,6
 81 -58 81 -58 121 -58 c 257,7,8
 170 -58 170 -58 202 -21 c 257,9,-1
 202 512 l 257,10,-1
 369 512 l 257,11,-1
 366 -22 l 257,12,13
 342 -105 342 -105 275 -157 c 128,-1,14
 208 -209 208 -209 121 -209 c 257,15,16
 84 -209 84 -209 50 -200 c 257,4,-1
EndSplineSet
EndChar

StartChar: k
Encoding: 107 107 839
GlifName: k
Width: 688
VWidth: 0
Flags: W
LayerCount: 2
Fore
SplineSet
50 747 m 257,0,-1
 191 747 l 257,1,-1
 191 312 l 257,2,-1
 436 509 l 257,3,-1
 629 507 l 257,4,-1
 368 279 l 257,5,-1
 638 -8 l 257,6,-1
 452 -7 l 257,7,-1
 248 221 l 257,8,-1
 191 149 l 257,9,-1
 191 -7 l 257,10,-1
 50 -7 l 257,11,-1
 50 747 l 257,0,-1
EndSplineSet
EndChar

StartChar: l
Encoding: 108 108 843
GlifName: l
Width: 419
VWidth: 0
Flags: W
LayerCount: 2
Fore
SplineSet
369 1 m 257,0,1
 335 -8 335 -8 298 -8 c 257,2,3
 211 -8 211 -8 144 44 c 128,-1,4
 77 96 77 96 53 179 c 257,5,-1
 50 756 l 257,6,-1
 217 756 l 257,7,-1
 217 180 l 257,8,9
 249 143 249 143 298 143 c 257,10,11
 338 143 338 143 369 169 c 257,12,-1
 369 1 l 257,0,1
EndSplineSet
EndChar

StartChar: lcaron
Encoding: 318 318 851
GlifName: lcaron
Width: 462
VWidth: 0
Flags: W
LayerCount: 2
Fore
SplineSet
369 1 m 257,0,1
 335 -8 335 -8 298 -8 c 257,2,3
 211 -8 211 -8 144 44 c 128,-1,4
 77 96 77 96 53 179 c 257,5,-1
 50 756 l 257,6,-1
 217 756 l 257,7,-1
 217 180 l 257,8,9
 249 143 249 143 298 143 c 257,10,11
 338 143 338 143 369 169 c 257,12,-1
 369 1 l 257,0,1
260 499 m 257,13,-1
 260 756 l 257,14,-1
 412 756 l 257,15,-1
 367 499 l 257,16,-1
 260 499 l 257,13,-1
EndSplineSet
EndChar

StartChar: less
Encoding: 60 60 859
GlifName: less
Width: 644
VWidth: 0
Flags: W
LayerCount: 2
Fore
SplineSet
594 541 m 257,0,-1
 594 389 l 257,1,-1
 380 333 l 257,2,-1
 594 291 l 257,3,-1
 594 139 l 257,4,-1
 50 245 l 257,5,-1
 50 246 l 257,6,-1
 50 397 l 257,7,-1
 50 398 l 257,8,-1
 594 541 l 257,0,-1
EndSplineSet
EndChar

StartChar: lslash
Encoding: 322 322 863
GlifName: lslash
Width: 563
VWidth: 0
Flags: W
LayerCount: 2
Fore
SplineSet
78 303 m 29,0,-1
 78 423 l 29,1,-1
 497 611 l 29,2,-1
 497 495 l 29,3,-1
 78 303 l 29,0,-1
513 1 m 257,4,5
 479 -8 479 -8 442 -8 c 257,6,7
 355 -8 355 -8 288 44 c 128,-1,8
 221 96 221 96 197 179 c 257,9,-1
 194 756 l 257,10,-1
 361 756 l 257,11,-1
 361 180 l 257,12,13
 393 143 393 143 442 143 c 257,14,15
 482 143 482 143 513 169 c 257,16,-1
 513 1 l 257,4,5
EndSplineSet
EndChar

StartChar: m
Encoding: 109 109 866
GlifName: m
Width: 924
VWidth: 0
Flags: W
LayerCount: 2
Fore
SplineSet
50 517 m 257,0,-1
 219 517 l 257,1,-1
 219 507 l 257,2,3
 258 519 258 519 299 519 c 257,4,5
 389 519 389 519 458 463 c 257,6,-1
 546 507 l 257,7,8
 585 519 585 519 626 519 c 257,9,10
 713 519 713 519 780 467 c 128,-1,11
 847 415 847 415 871 332 c 257,12,-1
 874 1 l 257,13,-1
 707 1 l 257,14,-1
 707 331 l 257,15,16
 675 368 675 368 626 368 c 257,17,18
 578 368 578 368 546 333 c 257,19,-1
 546 111 l 257,20,-1
 547 1 l 257,21,-1
 546 1 l 257,22,-1
 380 1 l 257,23,-1
 377 1 l 257,24,-1
 380 318 l 257,25,-1
 380 331 l 257,26,27
 348 368 348 368 299 368 c 257,28,29
 251 368 251 368 219 333 c 257,30,-1
 219 1 l 257,31,-1
 50 1 l 257,32,-1
 50 517 l 257,0,-1
EndSplineSet
EndChar

StartChar: mu
Encoding: 181 181 874
GlifName: mu
Width: 597
VWidth: 0
Flags: W
LayerCount: 2
Fore
SplineSet
50 -194 m 257,0,-1
 50 519 l 257,1,-1
 219 519 l 257,2,-1
 219 187 l 257,3,4
 251 152 251 152 299 152 c 257,5,6
 348 152 348 152 380 189 c 257,7,-1
 380 519 l 257,8,-1
 547 519 l 257,9,-1
 544 188 l 257,10,11
 520 105 520 105 453 53 c 128,-1,12
 386 1 386 1 299 1 c 257,13,14
 258 1 258 1 219 13 c 257,15,-1
 219 -194 l 257,16,-1
 50 -194 l 257,0,-1
EndSplineSet
EndChar

StartChar: multiply
Encoding: 215 215 878
GlifName: multiply
Width: 724
VWidth: 0
Flags: W
LayerCount: 2
Fore
SplineSet
50 708 m 257,0,-1
 236 706 l 257,1,-1
 365 555 l 257,2,-1
 498 707 l 257,3,-1
 673 706 l 257,4,-1
 453 453 l 257,5,-1
 674 195 l 257,6,-1
 499 193 l 257,7,-1
 362 350 l 257,8,-1
 229 197 l 257,9,-1
 51 194 l 257,10,-1
 274 451 l 257,11,-1
 50 708 l 257,0,-1
EndSplineSet
EndChar

StartChar: n
Encoding: 110 110 882
GlifName: n
Width: 597
VWidth: 0
Flags: W
LayerCount: 2
Fore
SplineSet
50 517 m 257,0,-1
 219 517 l 257,1,-1
 219 507 l 257,2,3
 258 519 258 519 299 519 c 257,4,5
 386 519 386 519 453 467 c 128,-1,6
 520 415 520 415 544 332 c 257,7,-1
 547 1 l 257,8,-1
 380 1 l 257,9,-1
 380 331 l 257,10,11
 348 368 348 368 299 368 c 257,12,13
 251 368 251 368 219 333 c 257,14,-1
 219 1 l 257,15,-1
 50 1 l 257,16,-1
 50 517 l 257,0,-1
EndSplineSet
EndChar

StartChar: nine
Encoding: 57 57 894
GlifName: nine
Width: 709
VWidth: 0
Flags: W
LayerCount: 2
Fore
SplineSet
326 386 m 257,0,1
 337 386 337 386 350 389 c 257,2,-1
 350 388 l 257,3,4
 387 396 387 396 411 425 c 128,-1,5
 435 454 435 454 435 493 c 257,6,7
 435 547 435 547 391 579 c 257,8,9
 376 588 376 588 359 595 c 257,10,11
 354 596 354 596 350 597 c 257,12,-1
 350 596 l 257,13,14
 339 599 339 599 326 599 c 257,15,16
 314 599 314 599 302 596 c 257,17,-1
 302 597 l 257,18,19
 265 589 265 589 241 560 c 128,-1,20
 217 531 217 531 217 493 c 257,21,22
 217 454 217 454 241 425 c 128,-1,23
 265 396 265 396 302 388 c 257,24,-1
 302 389 l 257,25,26
 314 386 314 386 326 386 c 257,0,1
277 141 m 257,27,28
 362 141 362 141 426 197 c 128,-1,29
 490 253 490 253 503 337 c 257,30,31
 433 261 433 261 330 254 c 257,32,33
 322 253 322 253 316 253 c 257,34,35
 313 253 313 253 312 253 c 257,36,-1
 311 253 l 257,37,38
 310 253 310 253 308 253 c 257,39,40
 217 253 217 253 146.5 309.5 c 128,-1,41
 76 366 76 366 56 453 c 257,42,43
 50 481 50 481 50 511 c 257,44,45
 50 551 50 551 62 589 c 257,46,47
 92 683 92 683 178 733 c 257,48,49
 227 767 227 767 277 767 c 257,50,51
 281 767 281 767 284 767 c 257,52,53
 296 768 296 768 308 768 c 257,54,55
 309 768 309 768 310 768 c 2,56,-1
 311 768 l 257,57,-1
 312 768 l 257,58,59
 314 768 314 768 316 768 c 257,60,61
 324 768 324 768 330 767 c 257,62,63
 410 761 410 761 472 712 c 257,64,65
 557 660 557 660 608 570 c 128,-1,66
 659 480 659 480 659 373 c 257,67,68
 659 210 659 210 547 95 c 128,-1,69
 435 -20 435 -20 277 -20 c 257,70,71
 194 -20 194 -20 158 -13 c 257,72,-1
 158 153 l 257,73,74
 173 148 173 148 213 144.5 c 128,-1,75
 253 141 253 141 277 141 c 257,27,28
EndSplineSet
EndChar

StartChar: numbersign
Encoding: 35 35 903
GlifName: numbersign
Width: 648
VWidth: 0
Flags: W
LayerCount: 2
Fore
SplineSet
406 461 m 257,0,-1
 258 461 l 257,1,-1
 241 363 l 257,2,-1
 389 363 l 257,3,-1
 406 461 l 257,0,-1
146 687 m 257,4,-1
 298 687 l 257,5,-1
 285 613 l 257,6,-1
 433 613 l 257,7,-1
 446 687 l 257,8,-1
 598 687 l 257,9,-1
 585 613 l 257,10,-1
 596 613 l 257,11,-1
 596 461 l 257,12,-1
 558 461 l 257,13,-1
 541 363 l 257,14,-1
 596 363 l 257,15,-1
 596 211 l 257,16,-1
 514 211 l 257,17,-1
 502 144 l 257,18,-1
 350 144 l 257,19,-1
 362 211 l 257,20,-1
 214 211 l 257,21,-1
 202 144 l 257,22,-1
 50 144 l 257,23,-1
 62 211 l 257,24,-1
 52 211 l 257,25,-1
 52 363 l 257,26,-1
 89 363 l 257,27,-1
 106 461 l 257,28,-1
 52 461 l 257,29,-1
 52 613 l 257,30,-1
 133 613 l 257,31,-1
 146 687 l 257,4,-1
EndSplineSet
EndChar

StartChar: o
Encoding: 111 111 907
GlifName: o
Width: 620
VWidth: 0
Flags: W
LayerCount: 2
Fore
SplineSet
310 362 m 257,0,1
 297 362 297 362 286 359 c 257,2,-1
 286 360 l 257,3,4
 249 352 249 352 225 323 c 128,-1,5
 201 294 201 294 201 255 c 257,6,7
 201 217 201 217 225 188 c 128,-1,8
 249 159 249 159 286 151 c 257,9,-1
 286 152 l 257,10,11
 297 149 297 149 310 149 c 257,12,13
 322 149 322 149 334 152 c 257,14,-1
 334 151 l 257,15,16
 371 159 371 159 395 188 c 128,-1,17
 419 217 419 217 419 255 c 257,18,19
 419 294 419 294 395 323 c 128,-1,20
 371 352 371 352 334 360 c 257,21,-1
 334 359 l 257,22,23
 322 362 322 362 310 362 c 257,0,1
309 -2 m 257,24,-1
 308 -2 l 257,25,26
 306 -2 306 -2 304 -2 c 257,27,28
 296 -2 296 -2 290 -1 c 257,29,30
 189 5 189 5 119.5 79 c 128,-1,31
 50 153 50 153 50 255 c 257,32,33
 50 357 50 357 119.5 431.5 c 128,-1,34
 189 506 189 506 290 512 c 257,35,36
 296 513 296 513 304 513 c 257,37,38
 306 513 306 513 308 513 c 257,39,-1
 309 513 l 257,40,41
 310 513 310 513 312 513 c 257,42,43
 419 513 419 513 494.5 437.5 c 128,-1,44
 570 362 570 362 570 255 c 128,-1,45
 570 148 570 148 494.5 73 c 128,-1,46
 419 -2 419 -2 312 -2 c 257,47,48
 311 -2 311 -2 310 -2 c 2,49,-1
 309 -2 l 257,24,-1
EndSplineSet
EndChar

StartChar: oe
Encoding: 339 339 927
GlifName: oe
Width: 999
VWidth: 0
Flags: W
LayerCount: 2
Fore
SplineSet
309 -2 m 257,0,-1
 308 -2 l 257,1,2
 306 -2 306 -2 304 -2 c 257,3,4
 296 -2 296 -2 290 -1 c 257,5,6
 189 5 189 5 119.5 79 c 128,-1,7
 50 153 50 153 50 255 c 257,8,9
 50 357 50 357 119.5 431.5 c 128,-1,10
 189 506 189 506 290 512 c 257,11,12
 296 513 296 513 304 513 c 257,13,14
 306 513 306 513 308 513 c 257,15,-1
 309 513 l 257,16,17
 310 513 310 513 312 513 c 257,18,19
 425 513 425 513 501 431 c 257,20,21
 577 513 577 513 690 513 c 257,22,23
 797 513 797 513 872.5 437.5 c 128,-1,24
 948 362 948 362 948 255 c 257,25,26
 948 245 948 245 948.5 227.5 c 128,-1,27
 949 210 949 210 949 203 c 257,28,-1
 598 200 l 257,29,30
 612 177 612 177 636.5 163 c 128,-1,31
 661 149 661 149 690 149 c 257,32,33
 724 149 724 149 827.5 151.5 c 128,-1,34
 931 154 931 154 939 157 c 257,35,-1
 939 1 l 257,36,37
 920 -2 920 -2 690 -2 c 257,38,39
 577 -2 577 -2 501 80 c 257,40,41
 425 -2 425 -2 312 -2 c 257,42,43
 311 -2 311 -2 310 -2 c 2,44,-1
 309 -2 l 257,0,-1
593 292 m 257,45,-1
 789 289 l 257,46,47
 785 293 785 293 769 312 c 128,-1,48
 753 331 753 331 744 340.5 c 128,-1,49
 735 350 735 350 719.5 360 c 128,-1,50
 704 370 704 370 690 370 c 257,51,52
 676 370 676 370 661 360.5 c 128,-1,53
 646 351 646 351 636.5 341 c 128,-1,54
 627 331 627 331 612 314 c 128,-1,55
 597 297 597 297 593 292 c 257,45,-1
310 362 m 257,56,57
 297 362 297 362 286 359 c 257,58,-1
 286 360 l 257,59,60
 249 352 249 352 225 323 c 128,-1,61
 201 294 201 294 201 255 c 257,62,63
 201 217 201 217 225 188 c 128,-1,64
 249 159 249 159 286 151 c 257,65,-1
 286 152 l 257,66,67
 297 149 297 149 310 149 c 257,68,69
 322 149 322 149 334 152 c 257,70,-1
 334 151 l 257,71,72
 371 159 371 159 395 188 c 128,-1,73
 419 217 419 217 419 255 c 257,74,75
 419 294 419 294 395 323 c 128,-1,76
 371 352 371 352 334 360 c 257,77,-1
 334 359 l 257,78,79
 322 362 322 362 310 362 c 257,56,57
EndSplineSet
EndChar

StartChar: one
Encoding: 49 49 947
GlifName: one
Width: 436
VWidth: 0
Flags: W
LayerCount: 2
Fore
SplineSet
158 482 m 257,0,-1
 50 589 l 257,1,-1
 232 771 l 257,2,-1
 234 769 l 257,3,-1
 386 769 l 257,4,-1
 386 -7 l 257,5,-1
 234 -7 l 257,6,-1
 234 558 l 257,7,-1
 158 482 l 257,0,-1
EndSplineSet
EndChar

StartChar: oslash
Encoding: 248 248 967
GlifName: oslash
Width: 620
VWidth: 0
Flags: W
LayerCount: 2
Fore
SplineSet
324 150 m 257,0,1
 329 151 329 151 334 152 c 257,2,-1
 334 151 l 257,3,4
 371 159 371 159 395 188 c 128,-1,5
 419 217 419 217 419 255 c 257,6,7
 419 277 419 277 410 298 c 257,8,-1
 324 150 l 257,0,1
306 362 m 257,9,10
 295 361 295 361 286 359 c 257,11,-1
 286 360 l 257,12,13
 249 352 249 352 225 323 c 128,-1,14
 201 294 201 294 201 255 c 257,15,16
 201 228 201 228 214 204 c 257,17,-1
 306 362 l 257,9,10
50 255 m 257,18,19
 50 362 50 362 124.5 437.5 c 128,-1,20
 199 513 199 513 308 513 c 257,21,-1
 309 513 l 257,22,23
 310 513 310 513 312 513 c 257,24,25
 351 513 351 513 388 502 c 257,26,-1
 458 620 l 257,27,-1
 564 559 l 257,28,-1
 493 439 l 257,29,30
 570 363 570 363 570 255 c 257,31,32
 570 148 570 148 494.5 73 c 128,-1,33
 419 -2 419 -2 312 -2 c 257,34,35
 311 -2 311 -2 310 -2 c 2,36,-1
 309 -2 l 257,37,-1
 308 -2 l 257,38,39
 273 -2 273 -2 240 7 c 257,40,-1
 184 -88 l 257,41,-1
 78 -27 l 257,42,-1
 133 66 l 257,43,44
 94 102 94 102 72 151 c 128,-1,45
 50 200 50 200 50 255 c 257,18,19
EndSplineSet
EndChar

StartChar: otilde.0
Encoding: 66264 -1 972
GlifName: otilde.0
Width: 620
VWidth: 0
Flags: W
LayerCount: 2
Fore
SplineSet
383 700 m 257,0,-1
 373 690 l 257,1,2
 364 680 364 680 347 670 c 257,3,4
 330 660 330 660 315 660 c 257,5,6
 293 660 293 660 270 660 c 257,7,8
 254 660 254 660 231 674 c 257,9,10
 207 687 207 687 190 687 c 257,11,12
 165 687 165 687 133 659 c 257,13,-1
 133 583 l 257,14,-1
 142 590 l 257,15,16
 151 597 151 597 166 604 c 257,17,18
 181 611 181 611 192 611 c 257,19,20
 208 611 208 611 231 597 c 257,21,22
 253 583 253 583 269 583 c 257,23,-1
 319 583 l 257,24,25
 335 583 335 583 351 594 c 257,26,27
 367 604 367 604 375 613 c 257,28,29
 382 622 382 622 383 624 c 257,30,-1
 383 700 l 257,0,-1
310 372 m 257,31,32
 322 372 322 372 334 369 c 257,33,-1
 334 370 l 257,34,35
 371 362 371 362 395 333 c 257,36,37
 419 304 419 304 419 265 c 257,38,39
 419 227 419 227 395 198 c 257,40,41
 371 169 371 169 334 161 c 257,42,-1
 334 162 l 257,43,44
 322 159 322 159 310 159 c 257,45,46
 297 159 297 159 286 162 c 257,47,-1
 286 161 l 257,48,49
 249 169 249 169 225 198 c 257,50,51
 201 227 201 227 201 265 c 257,52,53
 201 304 201 304 225 333 c 257,54,55
 249 362 249 362 286 370 c 257,56,-1
 286 369 l 257,57,58
 297 372 297 372 310 372 c 257,31,32
309 8 m 257,59,-1
 310 8 l 257,60,61
 311 8 311 8 312 8 c 257,62,63
 419 8 419 8 495 83 c 257,64,65
 570 158 570 158 570 265 c 257,66,67
 570 372 570 372 495 448 c 257,68,69
 419 523 419 523 312 523 c 257,70,71
 310 523 310 523 309 523 c 257,72,-1
 308 523 l 257,73,74
 306 523 306 523 304 523 c 257,75,76
 296 523 296 523 290 522 c 257,77,78
 189 516 189 516 120 442 c 257,79,80
 50 367 50 367 50 265 c 257,81,82
 50 163 50 163 120 89 c 257,83,84
 189 15 189 15 290 9 c 257,85,86
 296 8 296 8 304 8 c 257,87,88
 306 8 306 8 308 8 c 257,89,-1
 309 8 l 257,59,-1
EndSplineSet
EndChar

StartChar: otilde.1
Encoding: 66265 -1 973
GlifName: otilde.1
Width: 620
VWidth: 0
Flags: W
LayerCount: 2
Fore
SplineSet
433 690 m 257,0,-1
 423 680 l 257,1,2
 414 670 414 670 397 660 c 257,3,4
 380 650 380 650 365 650 c 257,5,6
 343 650 343 650 320 650 c 257,7,8
 304 650 304 650 281 664 c 257,9,10
 257 677 257 677 240 677 c 257,11,12
 215 677 215 677 183 649 c 257,13,-1
 183 573 l 257,14,-1
 192 580 l 257,15,16
 201 587 201 587 216 594 c 257,17,18
 231 601 231 601 242 601 c 257,19,20
 258 601 258 601 281 587 c 257,21,22
 303 573 303 573 319 573 c 257,23,-1
 369 573 l 257,24,25
 385 573 385 573 401 584 c 257,26,27
 417 594 417 594 425 603 c 257,28,29
 432 612 432 612 433 614 c 257,30,-1
 433 690 l 257,0,-1
310 362 m 257,31,32
 322 362 322 362 334 359 c 257,33,-1
 334 360 l 257,34,35
 371 352 371 352 395 323 c 257,36,37
 419 294 419 294 419 255 c 257,38,39
 419 217 419 217 395 188 c 257,40,41
 371 159 371 159 334 151 c 257,42,-1
 334 152 l 257,43,44
 322 149 322 149 310 149 c 257,45,46
 297 149 297 149 286 152 c 257,47,-1
 286 151 l 257,48,49
 249 159 249 159 225 188 c 257,50,51
 201 217 201 217 201 255 c 257,52,53
 201 294 201 294 225 323 c 257,54,55
 249 352 249 352 286 360 c 257,56,-1
 286 359 l 257,57,58
 297 362 297 362 310 362 c 257,31,32
309 -2 m 257,59,-1
 310 -2 l 257,60,61
 311 -2 311 -2 312 -2 c 257,62,63
 419 -2 419 -2 495 73 c 257,64,65
 570 148 570 148 570 255 c 257,66,67
 570 362 570 362 495 438 c 257,68,69
 419 513 419 513 312 513 c 257,70,71
 310 513 310 513 309 513 c 257,72,-1
 308 513 l 257,73,74
 306 513 306 513 304 513 c 257,75,76
 296 513 296 513 290 512 c 257,77,78
 189 506 189 506 120 432 c 257,79,80
 50 357 50 357 50 255 c 257,81,82
 50 153 50 153 120 79 c 257,83,84
 189 5 189 5 290 -1 c 257,85,86
 296 -2 296 -2 304 -2 c 257,87,88
 306 -2 306 -2 308 -2 c 257,89,-1
 309 -2 l 257,59,-1
EndSplineSet
EndChar

StartChar: p
Encoding: 112 112 975
GlifName: p
Width: 534
VWidth: 0
Flags: W
LayerCount: 2
Fore
SplineSet
202 351 m 257,0,-1
 202 144 l 257,1,2
 214 141 214 141 226 141 c 257,3,4
 271 141 271 141 302 172 c 128,-1,5
 333 203 333 203 333 248 c 257,6,7
 333 292 333 292 302 323 c 128,-1,8
 271 354 271 354 226 354 c 257,9,10
 214 354 214 354 202 351 c 257,0,-1
202 -207 m 257,11,-1
 50 -207 l 257,12,-1
 50 504 l 257,13,-1
 202 504 l 257,14,15
 210 505 210 505 226 505 c 257,16,17
 333 505 333 505 408.5 430 c 128,-1,18
 484 355 484 355 484 248 c 128,-1,19
 484 141 484 141 408.5 65.5 c 128,-1,20
 333 -10 333 -10 226 -10 c 257,21,22
 210 -10 210 -10 202 -9 c 257,23,-1
 202 -207 l 257,11,-1
EndSplineSet
EndChar

StartChar: paragraph
Encoding: 182 182 979
GlifName: paragraph
Width: 752
VWidth: 0
Flags: W
LayerCount: 2
Fore
SplineSet
332 -2 m 257,0,-1
 332 261 l 257,1,2
 324 260 324 260 308 260 c 257,3,4
 201 260 201 260 125.5 335.5 c 128,-1,5
 50 411 50 411 50 518 c 128,-1,6
 50 625 50 625 125.5 700 c 128,-1,7
 201 775 201 775 308 775 c 257,8,9
 324 775 324 775 332 774 c 257,10,-1
 484 774 l 257,11,-1
 484 -2 l 257,12,-1
 332 -2 l 257,0,-1
550 769 m 257,13,-1
 702 769 l 257,14,-1
 702 -7 l 257,15,-1
 550 -7 l 257,16,-1
 550 769 l 257,13,-1
EndSplineSet
EndChar

StartChar: parenleft
Encoding: 40 40 983
GlifName: parenleft
Width: 555
VWidth: 0
Flags: W
LayerCount: 2
Fore
SplineSet
432 739 m 257,0,1
 332 739 332 739 243 628.5 c 128,-1,2
 154 518 154 518 154 373 c 257,3,4
 154 227 154 227 243 116.5 c 128,-1,5
 332 6 332 6 432 6 c 257,6,-1
 505 -12 l 257,7,8
 471 -19 471 -19 432 -19 c 257,9,10
 274 -19 274 -19 162 96.5 c 128,-1,11
 50 212 50 212 50 375 c 128,-1,12
 50 538 50 538 162 653 c 128,-1,13
 274 768 274 768 432 768 c 257,14,15
 471 768 471 768 505 761 c 257,16,-1
 432 739 l 257,0,1
EndSplineSet
EndChar

StartChar: parenright
Encoding: 41 41 987
GlifName: parenright
Width: 555
VWidth: 0
Flags: W
LayerCount: 2
Fore
SplineSet
123 739 m 257,0,-1
 50 761 l 257,1,2
 84 768 84 768 123 768 c 257,3,4
 281 768 281 768 393 653 c 128,-1,5
 505 538 505 538 505 375 c 128,-1,6
 505 212 505 212 393 96.5 c 128,-1,7
 281 -19 281 -19 123 -19 c 257,8,9
 84 -19 84 -19 50 -12 c 257,10,-1
 123 6 l 257,11,12
 223 6 223 6 312 116.5 c 128,-1,13
 401 227 401 227 401 373 c 257,14,15
 401 518 401 518 312 628.5 c 128,-1,16
 223 739 223 739 123 739 c 257,0,-1
EndSplineSet
EndChar

StartChar: percent
Encoding: 37 37 991
GlifName: percent
Width: 691
VWidth: 0
Flags: W
LayerCount: 2
Fore
SplineSet
535 813 m 257,0,-1
 641 752 l 257,1,-1
 156 -88 l 257,2,-1
 50 -27 l 257,3,-1
 535 813 l 257,0,-1
498 257 m 257,4,-1
 498 258 l 256,5,-1
 498 258 l 257,6,7
 479 254 479 254 467.5 239.5 c 128,-1,8
 456 225 456 225 456 205 c 257,9,10
 456 186 456 186 467.5 171.5 c 128,-1,11
 479 157 479 157 498 153 c 257,12,-1
 498 154 l 257,13,14
 506 152 506 152 510 152 c 128,-1,15
 514 152 514 152 522 154 c 257,16,-1
 522 153 l 257,17,18
 541 157 541 157 552.5 171.5 c 128,-1,19
 564 186 564 186 564 205 c 257,20,21
 564 225 564 225 552.5 239.5 c 128,-1,22
 541 254 541 254 522 258 c 257,23,-1
 522 257 l 257,24,25
 514 259 514 259 510 259 c 128,-1,26
 506 259 506 259 498 257 c 257,4,-1
  PathStart: -2
509 77 m 257,27,-1
 507 77 l 257,28,-1
 500 77 l 257,29,30
 449 81 449 81 414.5 117.5 c 128,-1,31
 380 154 380 154 380 205 c 128,-1,32
 380 256 380 256 415 293 c 128,-1,33
 450 330 450 330 500 334 c 257,34,-1
 507 334 l 257,35,-1
 509 334 l 257,36,-1
 511 334 l 257,37,38
 565 334 565 334 602.5 296.5 c 128,-1,39
 640 259 640 259 640 205 c 257,40,41
 640 152 640 152 602.5 114.5 c 128,-1,42
 565 77 565 77 511 77 c 257,43,-1
 509 77 l 257,27,-1
193 658 m 257,44,-1
 193 659 l 256,45,-1
 193 659 l 257,46,47
 174 655 174 655 162.5 640.5 c 128,-1,48
 151 626 151 626 151 606 c 257,49,50
 151 587 151 587 162.5 572.5 c 128,-1,51
 174 558 174 558 193 554 c 257,52,-1
 193 555 l 257,53,54
 201 553 201 553 205 553 c 128,-1,55
 209 553 209 553 217 555 c 257,56,-1
 217 554 l 257,57,58
 236 558 236 558 247.5 572.5 c 128,-1,59
 259 587 259 587 259 606 c 257,60,61
 259 626 259 626 247.5 640.5 c 128,-1,62
 236 655 236 655 217 659 c 257,63,-1
 217 658 l 257,64,65
 209 660 209 660 205 660 c 128,-1,66
 201 660 201 660 193 658 c 257,44,-1
  PathStart: -2
204 478 m 257,67,-1
 202 478 l 257,68,-1
 195 478 l 257,69,70
 144 482 144 482 109.5 518.5 c 128,-1,71
 75 555 75 555 75 606 c 128,-1,72
 75 657 75 657 110 694 c 128,-1,73
 145 731 145 731 195 735 c 257,74,-1
 202 735 l 257,75,-1
 204 735 l 257,76,-1
 206 735 l 257,77,78
 260 735 260 735 297.5 697.5 c 128,-1,79
 335 660 335 660 335 606 c 257,80,81
 335 553 335 553 297.5 515.5 c 128,-1,82
 260 478 260 478 206 478 c 257,83,-1
 204 478 l 257,67,-1
EndSplineSet
EndChar

StartChar: period
Encoding: 46 46 995
GlifName: period
Width: 252
VWidth: 0
Flags: W
LayerCount: 2
Fore
SplineSet
50 -7 m 257,0,-1
 50 135 l 257,1,-1
 202 135 l 257,2,-1
 202 -7 l 257,3,-1
 50 -7 l 257,0,-1
EndSplineSet
EndChar

StartChar: periodcentered
Encoding: 183 183 999
GlifName: periodcentered
Width: 252
VWidth: 0
Flags: W
LayerCount: 2
Fore
SplineSet
50 393 m 257,0,-1
 50 535 l 257,1,-1
 202 535 l 257,2,-1
 202 393 l 257,3,-1
 50 393 l 257,0,-1
EndSplineSet
EndChar

StartChar: plus
Encoding: 43 43 1003
GlifName: plus
Width: 644
VWidth: 0
Flags: W
LayerCount: 2
Fore
SplineSet
246 687 m 257,0,-1
 398 687 l 257,1,-1
 398 491 l 257,2,-1
 594 491 l 257,3,-1
 594 339 l 257,4,-1
 398 339 l 257,5,-1
 398 144 l 257,6,-1
 246 144 l 257,7,-1
 246 339 l 257,8,-1
 50 339 l 257,9,-1
 50 491 l 257,10,-1
 246 491 l 257,11,-1
 246 687 l 257,0,-1
EndSplineSet
EndChar

StartChar: plusminus
Encoding: 177 177 1007
GlifName: plusminus
Width: 644
VWidth: 0
Flags: W
LayerCount: 2
Fore
SplineSet
246 687 m 257,0,-1
 398 687 l 257,1,-1
 398 491 l 257,2,-1
 594 491 l 257,3,-1
 594 339 l 257,4,-1
 398 339 l 257,5,-1
 398 144 l 257,6,-1
 246 144 l 257,7,-1
 246 339 l 257,8,-1
 50 339 l 257,9,-1
 50 491 l 257,10,-1
 246 491 l 257,11,-1
 246 687 l 257,0,-1
594 117 m 257,12,-1
 594 -35 l 257,13,-1
 50 -35 l 257,14,-1
 50 117 l 257,15,-1
 594 117 l 257,12,-1
EndSplineSet
EndChar

StartChar: q
Encoding: 113 113 1011
GlifName: q
Width: 534
VWidth: 0
Flags: W
LayerCount: 2
Fore
SplineSet
332 351 m 257,0,1
 320 354 320 354 308 354 c 257,2,3
 263 354 263 354 232 323 c 128,-1,4
 201 292 201 292 201 248 c 257,5,6
 201 203 201 203 232 172 c 128,-1,7
 263 141 263 141 308 141 c 257,8,9
 320 141 320 141 332 144 c 257,10,-1
 332 351 l 257,0,1
332 -207 m 257,11,-1
 332 -9 l 257,12,13
 324 -10 324 -10 308 -10 c 257,14,15
 201 -10 201 -10 125.5 65.5 c 128,-1,16
 50 141 50 141 50 248 c 128,-1,17
 50 355 50 355 125.5 430 c 128,-1,18
 201 505 201 505 308 505 c 257,19,20
 324 505 324 505 332 504 c 257,21,-1
 484 504 l 257,22,-1
 484 -207 l 257,23,-1
 332 -207 l 257,11,-1
EndSplineSet
EndChar

StartChar: question
Encoding: 63 63 1015
GlifName: question
Width: 384
VWidth: 0
Flags: W
LayerCount: 2
Fore
SplineSet
50 823 m 257,0,1
 59 824 59 824 76 824 c 257,2,3
 183 824 183 824 258.5 749 c 128,-1,4
 334 674 334 674 334 567 c 257,5,6
 334 495 334 495 298 435 c 128,-1,7
 262 375 262 375 202 342 c 257,8,-1
 202 225 l 257,9,-1
 50 225 l 257,10,-1
 50 310 l 257,11,-1
 50 435 l 257,12,-1
 50 463 l 257,13,14
 62 460 62 460 76 460 c 257,15,16
 121 460 121 460 152 491 c 128,-1,17
 183 522 183 522 183 567 c 257,18,19
 183 611 183 611 152 642 c 128,-1,20
 121 673 121 673 76 673 c 257,21,22
 62 673 62 673 50 670 c 257,23,-1
 50 823 l 257,0,1
50 -7 m 257,24,-1
 50 135 l 257,25,-1
 202 135 l 257,26,-1
 202 -7 l 257,27,-1
 50 -7 l 257,24,-1
EndSplineSet
EndChar

StartChar: questiondown
Encoding: 191 191 1019
GlifName: questiondown
Width: 384
VWidth: 0
Flags: W
LayerCount: 2
Fore
SplineSet
334 -6 m 257,0,1
 325 -7 325 -7 308 -7 c 257,2,3
 201 -7 201 -7 125.5 68 c 128,-1,4
 50 143 50 143 50 250 c 257,5,6
 50 322 50 322 86 382 c 128,-1,7
 122 442 122 442 182 475 c 257,8,-1
 182 592 l 257,9,-1
 334 592 l 257,10,-1
 334 507 l 257,11,-1
 334 382 l 257,12,-1
 334 354 l 257,13,14
 322 357 322 357 308 357 c 257,15,16
 263 357 263 357 232 326 c 128,-1,17
 201 295 201 295 201 250 c 257,18,19
 201 206 201 206 232 175 c 128,-1,20
 263 144 263 144 308 144 c 257,21,22
 322 144 322 144 334 147 c 257,23,-1
 334 -6 l 257,0,1
334 824 m 257,24,-1
 334 682 l 257,25,-1
 182 682 l 257,26,-1
 182 824 l 257,27,-1
 334 824 l 257,24,-1
EndSplineSet
EndChar

StartChar: quotedbl
Encoding: 34 34 1023
GlifName: quotedbl
Width: 452
VWidth: 0
Flags: W
LayerCount: 2
Fore
SplineSet
50 527 m 257,0,-1
 50 784 l 257,1,-1
 202 784 l 257,2,-1
 202 527 l 257,3,-1
 50 527 l 257,0,-1
250 527 m 257,4,-1
 250 784 l 257,5,-1
 402 784 l 257,6,-1
 402 527 l 257,7,-1
 250 527 l 257,4,-1
EndSplineSet
EndChar

StartChar: quotesingle
Encoding: 39 39 1027
GlifName: quotesingle
Width: 252
VWidth: 0
Flags: W
LayerCount: 2
Fore
SplineSet
50 527 m 257,0,-1
 50 784 l 257,1,-1
 202 784 l 257,2,-1
 202 527 l 257,3,-1
 50 527 l 257,0,-1
EndSplineSet
EndChar

StartChar: r
Encoding: 114 114 1031
GlifName: r
Width: 587
VWidth: 0
Flags: W
LayerCount: 2
Fore
SplineSet
50 517 m 257,0,-1
 219 517 l 257,1,-1
 219 507 l 257,2,3
 258 519 258 519 299 519 c 257,4,5
 379 519 379 519 443.5 468 c 128,-1,6
 508 417 508 417 537 340 c 257,7,-1
 372 340 l 257,8,-1
 372 339 l 257,9,10
 341 368 341 368 299 368 c 257,11,12
 251 368 251 368 219 333 c 257,13,-1
 219 1 l 257,14,-1
 50 1 l 257,15,-1
 50 517 l 257,0,-1
EndSplineSet
EndChar

StartChar: registered
Encoding: 174 174 1043
GlifName: registered
Width: 656
VWidth: 0
Flags: W
LayerCount: 2
Fore
SplineSet
563 374 m 257,0,1
 563 473 563 473 494.5 543 c 128,-1,2
 426 613 426 613 328 613 c 128,-1,3
 230 613 230 613 161.5 543 c 128,-1,4
 93 473 93 473 93 374 c 257,5,6
 93 274 93 274 161.5 203.5 c 128,-1,7
 230 133 230 133 328 133 c 128,-1,8
 426 133 426 133 494.5 203.5 c 128,-1,9
 563 274 563 274 563 374 c 257,0,1
606 375 m 257,10,11
 606 256 606 256 524.5 172 c 128,-1,12
 443 88 443 88 328 88 c 128,-1,13
 213 88 213 88 131.5 172 c 128,-1,14
 50 256 50 256 50 375 c 257,15,16
 50 494 50 494 131.5 577.5 c 128,-1,17
 213 661 213 661 328 661 c 128,-1,18
 443 661 443 661 524.5 577.5 c 128,-1,19
 606 494 606 494 606 375 c 257,10,11
291 241 m 257,20,-1
 236 241 l 257,21,-1
 236 523 l 257,22,-1
 291 523 l 257,23,24
 294 524 294 524 300 524 c 257,25,26
 339 524 339 524 366.5 496.5 c 128,-1,27
 394 469 394 469 394 430 c 257,28,29
 394 400 394 400 376.5 375.5 c 128,-1,30
 359 351 359 351 332 342 c 257,31,-1
 404 238 l 257,32,-1
 353 238 l 257,33,-1
 293 336 l 257,34,35
 292 336 292 336 291 336 c 257,36,-1
 291 241 l 257,20,-1
291 468 m 257,37,-1
 291 392 l 257,38,39
 296 391 296 391 300 391 c 257,40,41
 316 391 316 391 327.5 402.5 c 128,-1,42
 339 414 339 414 339 430 c 257,43,44
 339 446 339 446 327.5 457.5 c 128,-1,45
 316 469 316 469 300 469 c 257,46,47
 296 469 296 469 291 468 c 257,37,-1
EndSplineSet
EndChar

StartChar: s
Encoding: 115 115 1051
GlifName: s
Width: 508
VWidth: 0
Flags: W
LayerCount: 2
Fore
SplineSet
69.3916015625 42 m 257,0,-1
 136.391601562 154 l 257,1,2
 143.391601562 147 143.391601562 147 158.391601562 142 c 257,3,4
 198.391601562 125 198.391601562 125 229.891601562 129 c 128,-1,5
 261.391601562 133 261.391601562 133 281.391601562 157 c 257,6,7
 304.391601562 184 304.391601562 184 259.391601562 196 c 257,8,9
 247.391601562 199 247.391601562 199 205.391601562 206 c 257,10,11
 139.391601562 232 139.391601562 232 99.3916015625 266.5 c 128,-1,12
 59.3916015625 301 59.3916015625 301 51.3916015625 343 c 128,-1,13
 43.3916015625 385 43.3916015625 385 81.3916015625 429 c 257,14,15
 128.391601562 486 128.391601562 486 228.391601562 497.5 c 128,-1,16
 328.391601562 509 328.391601562 509 424.391601562 468 c 257,17,18
 442.391601562 460 442.391601562 460 446.391601562 457 c 257,19,-1
 379.391601562 327 l 257,20,21
 365.391601562 336 365.391601562 336 357.391601562 339 c 257,22,23
 316.391601562 355 316.391601562 355 296.391601562 351 c 128,-1,24
 276.391601562 347 276.391601562 347 256.391601562 323 c 257,25,26
 231.391601562 297 231.391601562 297 235.891601562 287.5 c 128,-1,27
 240.391601562 278 240.391601562 278 287.391601562 270 c 257,28,29
 326.391601562 253 326.391601562 253 355.391601562 238.5 c 128,-1,30
 384.391601562 224 384.391601562 224 410.891601562 204 c 128,-1,31
 437.391601562 184 437.391601562 184 448.891601562 164.5 c 128,-1,32
 460.391601562 145 460.391601562 145 457.891601562 120.5 c 128,-1,33
 455.391601562 96 455.391601562 96 433.391601562 70 c 257,34,35
 386.391601562 13 386.391601562 13 286.391601562 0.5 c 128,-1,36
 186.391601562 -12 186.391601562 -12 91.3916015625 29 c 257,37,38
 83.3916015625 31 83.3916015625 31 69.3916015625 42 c 257,0,-1
EndSplineSet
EndChar

StartChar: section
Encoding: 167 167 1071
GlifName: section
Width: 599
VWidth: 0
Flags: W
LayerCount: 2
Fore
SplineSet
50 103 m 257,0,-1
 125 228 l 257,1,2
 137 218 137 218 147 213 c 257,3,4
 185 191 185 191 227 201.5 c 128,-1,5
 269 212 269 212 292 248 c 257,6,7
 314 287 314 287 289.5 320.5 c 128,-1,8
 265 354 265 354 222 361 c 257,9,10
 155 397 155 397 114.5 444 c 128,-1,11
 74 491 74 491 63.5 553.5 c 128,-1,12
 53 616 53 616 96 685 c 257,13,14
 135 749 135 749 205 781 c 257,15,16
 172 816 172 816 155.5 854 c 128,-1,17
 139 892 139 892 143 939 c 128,-1,18
 147 986 147 986 176 1034 c 257,19,20
 228 1121 228 1121 331 1146.5 c 128,-1,21
 434 1172 434 1172 528 1122 c 257,22,23
 531 1119 531 1119 538.5 1114.5 c 128,-1,24
 546 1110 546 1110 549 1107 c 257,25,-1
 474 982 l 257,26,27
 462 992 462 992 452 997 c 257,28,29
 414 1018 414 1018 371.5 1007.5 c 128,-1,30
 329 997 329 997 307 960 c 257,31,32
 282 919 282 919 302.5 870 c 128,-1,33
 323 821 323 821 371 813 c 257,34,35
 394 801 394 801 413 789 c 257,36,37
 431 782 431 782 448 773 c 257,38,39
 451 770 451 770 458.5 765.5 c 128,-1,40
 466 761 466 761 469 758 c 257,41,-1
 465 751 l 257,42,43
 580 653 580 653 502 525 c 257,44,45
 456 447 456 447 366 417 c 257,46,47
 505 313 505 313 422 176 c 257,48,49
 370 88 370 88 267.5 62.5 c 128,-1,50
 165 37 165 37 71 88 c 257,51,52
 68 91 68 91 60.5 95.5 c 128,-1,53
 53 100 53 100 50 103 c 257,0,-1
214 570 m 257,54,55
 220 565 220 565 227 562 c 257,56,57
 265 540 265 540 307 550.5 c 128,-1,58
 349 561 349 561 372 597 c 257,59,60
 385 620 385 620 381 643 c 257,61,62
 377 646 377 646 372 648 c 257,63,64
 334 669 334 669 291.5 658.5 c 128,-1,65
 249 648 249 648 227 611 c 257,66,67
 216 592 216 592 214 570 c 257,54,55
EndSplineSet
EndChar

StartChar: semicolon
Encoding: 59 59 1075
GlifName: semicolon
Width: 252
VWidth: 0
Flags: W
LayerCount: 2
Fore
SplineSet
50 393 m 257,0,-1
 50 535 l 257,1,-1
 202 535 l 257,2,-1
 202 393 l 257,3,-1
 50 393 l 257,0,-1
50 -7 m 257,4,-1
 50 135 l 257,5,-1
 202 135 l 257,6,-1
 202 -7 l 257,7,-1
 142 -139 l 257,8,-1
 84 -135 l 257,9,-1
 93 -7 l 257,10,-1
 50 -7 l 257,4,-1
EndSplineSet
EndChar

StartChar: seven
Encoding: 55 55 1079
GlifName: seven
Width: 610
VWidth: 0
Flags: W
LayerCount: 2
Fore
SplineSet
213 -5 m 257,0,-1
 51 -5 l 257,1,-1
 389 605 l 257,2,-1
 50 605 l 257,3,-1
 50 757 l 257,4,-1
 560 757 l 257,5,-1
 560 605 l 257,6,-1
 213 -5 l 257,0,-1
EndSplineSet
EndChar

StartChar: six
Encoding: 54 54 1083
GlifName: six
Width: 709
VWidth: 0
Flags: W
LayerCount: 2
Fore
SplineSet
383 362 m 257,0,1
 372 362 372 362 359 359 c 257,2,-1
 359 360 l 257,3,4
 322 352 322 352 298 323 c 128,-1,5
 274 294 274 294 274 255 c 257,6,7
 274 201 274 201 318 169 c 257,8,9
 333 160 333 160 350 153 c 257,10,11
 355 152 355 152 359 151 c 257,12,-1
 359 152 l 257,13,14
 370 149 370 149 383 149 c 257,15,16
 395 149 395 149 407 152 c 257,17,-1
 407 151 l 257,18,19
 444 159 444 159 468 188 c 128,-1,20
 492 217 492 217 492 255 c 257,21,22
 492 294 492 294 468 323 c 128,-1,23
 444 352 444 352 407 360 c 257,24,-1
 407 359 l 257,25,26
 395 362 395 362 383 362 c 257,0,1
432 607 m 257,27,28
 347 607 347 607 283 551 c 128,-1,29
 219 495 219 495 206 411 c 257,30,31
 276 487 276 487 379 494 c 257,32,33
 387 495 387 495 393 495 c 257,34,35
 396 495 396 495 397 495 c 257,36,-1
 398 495 l 257,37,38
 399 495 399 495 401 495 c 257,39,40
 492 495 492 495 562.5 438.5 c 128,-1,41
 633 382 633 382 653 295 c 257,42,43
 659 267 659 267 659 237 c 257,44,45
 659 197 659 197 647 159 c 257,46,47
 617 65 617 65 531 15 c 257,48,49
 482 -19 482 -19 432 -19 c 257,50,51
 428 -19 428 -19 425 -19 c 257,52,53
 413 -20 413 -20 401 -20 c 257,54,55
 400 -20 400 -20 399 -20 c 2,56,-1
 398 -20 l 257,57,-1
 397 -20 l 257,58,59
 395 -20 395 -20 393 -20 c 257,60,61
 385 -20 385 -20 379 -19 c 257,62,63
 299 -13 299 -13 237 36 c 257,64,65
 152 88 152 88 101 178 c 128,-1,66
 50 268 50 268 50 375 c 257,67,68
 50 538 50 538 162 653 c 128,-1,69
 274 768 274 768 432 768 c 257,70,71
 515 768 515 768 551 761 c 257,72,-1
 551 595 l 257,73,74
 536 600 536 600 496 603.5 c 128,-1,75
 456 607 456 607 432 607 c 257,27,28
EndSplineSet
EndChar

StartChar: slash
Encoding: 47 47 1087
GlifName: slash
Width: 691
VWidth: 0
Flags: W
LayerCount: 2
Fore
SplineSet
535 813 m 257,0,-1
 641 752 l 257,1,-1
 156 -88 l 257,2,-1
 50 -27 l 257,3,-1
 535 813 l 257,0,-1
EndSplineSet
EndChar

StartChar: sterling
Encoding: 163 163 1092
GlifName: sterling
Width: 864
VWidth: 0
Flags: W
LayerCount: 2
Fore
SplineSet
512 747 m 257,0,-1
 512 579 l 257,1,2
 481 605 481 605 441 605 c 257,3,4
 392 605 392 605 360 568 c 257,5,-1
 360 506 l 257,6,-1
 457 506 l 257,7,-1
 457 354 l 257,8,-1
 360 354 l 257,9,-1
 360 161 l 257,10,-1
 626 161 l 257,11,12
 664 193 664 193 664 243 c 257,13,14
 664 283 664 283 638 313 c 257,15,-1
 806 313 l 257,16,17
 814 279 814 279 814 243 c 257,18,19
 814 155 814 155 762 88 c 128,-1,20
 710 21 710 21 628 -3 c 257,21,-1
 360 -4 l 257,22,-1
 360 -8 l 257,23,-1
 193 -8 l 257,24,-1
 193 -5 l 257,25,-1
 50 -5 l 257,26,-1
 50 161 l 257,27,-1
 194 161 l 257,28,-1
 195 354 l 257,29,-1
 98 354 l 257,30,-1
 98 506 l 257,31,-1
 196 506 l 257,32,-1
 196 569 l 257,33,34
 220 652 220 652 287 704 c 128,-1,35
 354 756 354 756 441 756 c 257,36,37
 478 756 478 756 512 747 c 257,0,-1
EndSplineSet
EndChar

StartChar: t
Encoding: 116 116 1096
GlifName: t
Width: 514
VWidth: 0
Flags: W
LayerCount: 2
Fore
SplineSet
464 1 m 257,0,1
 430 -8 430 -8 393 -8 c 257,2,3
 306 -8 306 -8 239 44 c 128,-1,4
 172 96 172 96 148 179 c 257,5,-1
 147 359 l 257,6,-1
 50 359 l 257,7,-1
 50 511 l 257,8,-1
 146 511 l 257,9,-1
 145 756 l 257,10,-1
 312 756 l 257,11,-1
 312 511 l 257,12,-1
 409 511 l 257,13,-1
 409 359 l 257,14,-1
 312 359 l 257,15,-1
 312 180 l 257,16,17
 344 143 344 143 393 143 c 257,18,19
 433 143 433 143 464 169 c 257,20,-1
 464 1 l 257,0,1
EndSplineSet
EndChar

StartChar: tcaron
Encoding: 357 357 1100
GlifName: tcaron
Width: 643
VWidth: 0
Flags: W
LayerCount: 2
Fore
SplineSet
464 1 m 257,0,1
 430 -8 430 -8 393 -8 c 257,2,3
 306 -8 306 -8 239 44 c 128,-1,4
 172 96 172 96 148 179 c 257,5,-1
 147 359 l 257,6,-1
 50 359 l 257,7,-1
 50 511 l 257,8,-1
 146 511 l 257,9,-1
 145 756 l 257,10,-1
 312 756 l 257,11,-1
 312 511 l 257,12,-1
 409 511 l 257,13,-1
 409 359 l 257,14,-1
 312 359 l 257,15,-1
 312 180 l 257,16,17
 344 143 344 143 393 143 c 257,18,19
 433 143 433 143 464 169 c 257,20,-1
 464 1 l 257,0,1
441 499 m 257,21,-1
 441 756 l 257,22,-1
 593 756 l 257,23,-1
 548 499 l 257,24,-1
 441 499 l 257,21,-1
EndSplineSet
EndChar

StartChar: thorn
Encoding: 254 254 1104
GlifName: thorn
Width: 534
VWidth: 0
Flags: W
LayerCount: 2
Fore
SplineSet
202 354 m 257,0,-1
 202 147 l 257,1,2
 214 144 214 144 226 144 c 257,3,4
 271 144 271 144 302 175 c 128,-1,5
 333 206 333 206 333 251 c 257,6,7
 333 295 333 295 302 326 c 128,-1,8
 271 357 271 357 226 357 c 257,9,10
 214 357 214 357 202 354 c 257,0,-1
202 -204 m 257,11,-1
 50 -204 l 257,12,-1
 50 696 l 257,13,-1
 197 696 l 257,14,-1
 202 507 l 257,15,16
 210 508 210 508 226 508 c 257,17,18
 333 508 333 508 408.5 433 c 128,-1,19
 484 358 484 358 484 251 c 128,-1,20
 484 144 484 144 408.5 68.5 c 128,-1,21
 333 -7 333 -7 226 -7 c 257,22,23
 210 -7 210 -7 202 -6 c 257,24,-1
 202 -204 l 257,11,-1
EndSplineSet
EndChar

StartChar: three
Encoding: 51 51 1108
GlifName: three
Width: 435
VWidth: 0
Flags: W
LayerCount: 2
Fore
SplineSet
50 -10 m 257,0,-1
 50 114 l 257,1,2
 63 111 63 111 76 111 c 257,3,4
 142 111 142 111 188 136 c 128,-1,5
 234 161 234 161 234 197 c 257,6,7
 234 231 234 231 207 255 c 128,-1,8
 180 279 180 279 140 283 c 257,9,10
 133 283 133 283 127 283 c 128,-1,11
 121 283 121 283 115 283 c 257,12,13
 108 283 108 283 101 281 c 257,14,-1
 101 284 l 257,15,-1
 101 405 l 257,16,-1
 101 408 l 257,17,18
 108 406 108 406 115 406 c 257,19,20
 121 406 121 406 127 406 c 128,-1,21
 133 406 133 406 140 406 c 257,22,23
 180 409 180 409 207 433.5 c 128,-1,24
 234 458 234 458 234 491 c 257,25,26
 234 528 234 528 190 553 c 128,-1,27
 146 578 146 578 82 578 c 257,28,29
 69 578 69 578 56 575 c 257,30,-1
 56 699 l 257,31,32
 69 700 69 700 82 700 c 257,33,34
 208 700 208 700 296.5 639 c 128,-1,35
 385 578 385 578 385 491 c 257,36,37
 385 405 385 405 310 344 c 257,38,39
 385 283 385 283 385 197 c 128,-1,40
 385 111 385 111 294.5 50 c 128,-1,41
 204 -11 204 -11 76 -11 c 257,42,43
 63 -11 63 -11 50 -10 c 257,0,-1
EndSplineSet
EndChar

StartChar: tildecomb
Encoding: 771 771 1120
GlifName: tildecomb
Width: 0
VWidth: 0
Flags: W
LayerCount: 2
Fore
SplineSet
125 914 m 257,0,-1
 125 838 l 257,1,2
 124 836 124 836 116.5 827 c 128,-1,3
 109 818 109 818 93 807.5 c 128,-1,4
 77 797 77 797 61 797 c 257,5,-1
 11 797 l 257,6,7
 -5 797 -5 797 -27.5 811 c 128,-1,8
 -50 825 -50 825 -66 825 c 257,9,10
 -77 825 -77 825 -92 818 c 128,-1,11
 -107 811 -107 811 -116 804 c 257,12,-1
 -125 797 l 257,13,-1
 -125 873 l 257,14,15
 -93 901 -93 901 -68 901 c 257,16,17
 -51 901 -51 901 -27.5 887.5 c 128,-1,18
 -4 874 -4 874 12 874 c 257,19,20
 35 874 35 874 57 874 c 257,21,22
 72 874 72 874 89 884 c 128,-1,23
 106 894 106 894 115 904 c 257,24,-1
 125 914 l 257,0,-1
EndSplineSet
EndChar

StartChar: two
Encoding: 50 50 1124
GlifName: two
Width: 603
VWidth: 0
Flags: W
LayerCount: 2
Fore
SplineSet
126 581 m 257,0,1
 88 581 88 581 53 571 c 257,2,-1
 53 704 l 257,3,4
 89 710 89 710 126 710 c 257,5,6
 230 710 230 710 318 668 c 128,-1,7
 406 626 406 626 457 553.5 c 128,-1,8
 508 481 508 481 508 395 c 257,9,10
 508 300 508 300 445 226.5 c 128,-1,11
 382 153 382 153 278 119 c 257,12,-1
 553 121 l 257,13,-1
 553 0 l 257,14,-1
 50 -5 l 257,15,-1
 53 231 l 257,16,17
 88 221 88 221 126 221 c 257,18,19
 223 221 223 221 289 269 c 128,-1,20
 355 317 355 317 355 394 c 257,21,22
 355 471 355 471 288 526 c 128,-1,23
 221 581 221 581 126 581 c 257,0,1
EndSplineSet
EndChar

StartChar: u
Encoding: 117 117 1128
GlifName: u
Width: 597
VWidth: 0
Flags: W
LayerCount: 2
Fore
SplineSet
547 -3 m 257,0,-1
 378 -3 l 257,1,-1
 378 7 l 257,2,3
 339 -5 339 -5 298 -5 c 257,4,5
 211 -5 211 -5 144 47 c 128,-1,6
 77 99 77 99 53 182 c 257,7,-1
 50 513 l 257,8,-1
 217 513 l 257,9,-1
 217 183 l 257,10,11
 249 146 249 146 298 146 c 257,12,13
 346 146 346 146 378 181 c 257,14,-1
 378 513 l 257,15,-1
 547 513 l 257,16,-1
 547 -3 l 257,0,-1
EndSplineSet
EndChar

StartChar: u09A4
Encoding: 2468 2468 1132
GlifName: u09a4
Width: 726
VWidth: 0
Flags: W
LayerCount: 2
Fore
SplineSet
390 508 m 257,0,-1
 396 629 l 257,1,2
 397 629 397 629 398 629 c 257,3,4
 525 629 525 629 614.5 537 c 128,-1,5
 704 445 704 445 704 315 c 257,6,7
 704 184 704 184 614.5 92 c 128,-1,8
 525 0 525 0 398 0 c 128,-1,9
 271 0 271 0 181.5 92 c 128,-1,10
 92 184 92 184 92 315 c 257,11,-1
 148 320.5 l 2,12,13
 204 326 204 326 204 327 c 257,14,15
 204 324 204 324 204 321 c 257,16,17
 204 243 204 243 257.5 188 c 128,-1,18
 311 133 311 133 387 133 c 128,-1,19
 463 133 463 133 516.5 188 c 128,-1,20
 570 243 570 243 570 321 c 257,21,22
 570 398 570 398 517.5 452.5 c 128,-1,23
 465 507 465 507 390 508 c 257,0,-1
726 798 m 257,24,-1
 726 666 l 257,25,-1
 0 666 l 257,26,-1
 0 798 l 257,27,-1
 726 798 l 257,24,-1
EndSplineSet
EndChar

StartChar: underscore
Encoding: 95 95 1164
GlifName: underscore
Width: 644
VWidth: 0
Flags: W
LayerCount: 2
Fore
SplineSet
594 191 m 257,0,-1
 594 39 l 257,1,-1
 50 39 l 257,2,-1
 50 191 l 257,3,-1
 594 191 l 257,0,-1
EndSplineSet
EndChar

StartChar: uni0237
Encoding: 567 567 1245
GlifName: uni0237
Width: 419
VWidth: 0
Flags: W
LayerCount: 2
Fore
SplineSet
50 -200 m 257,0,-1
 50 -32 l 257,1,2
 81 -58 81 -58 121 -58 c 257,3,4
 170 -58 170 -58 202 -21 c 257,5,-1
 202 512 l 257,6,-1
 369 512 l 257,7,-1
 366 -22 l 257,8,9
 342 -105 342 -105 275 -157 c 128,-1,10
 208 -209 208 -209 121 -209 c 257,11,12
 84 -209 84 -209 50 -200 c 257,0,-1
EndSplineSet
EndChar

StartChar: uni0302
Encoding: 770 770 1249
GlifName: uni0302
Width: 0
VWidth: 0
Flags: W
LayerCount: 2
Fore
SplineSet
-100 761 m 257,0,-1
 -29 929 l 257,1,-1
 -28 929 l 257,2,-1
 47 929 l 257,3,-1
 48 929 l 257,4,-1
 100 761 l 257,5,-1
 24 761 l 257,6,-1
 4 869 l 257,7,-1
 -24 761 l 257,8,-1
 -100 761 l 257,0,-1
EndSplineSet
EndChar

StartChar: uni0304
Encoding: 772 772 1253
GlifName: uni0304
Width: 0
VWidth: 0
Flags: W
LayerCount: 2
Fore
SplineSet
136 853 m 257,0,-1
 136 777 l 257,1,-1
 -136 777 l 257,2,-1
 -136 853 l 257,3,-1
 136 853 l 257,0,-1
EndSplineSet
EndChar

StartChar: uni0306
Encoding: 774 774 1257
GlifName: uni0306
Width: 0
VWidth: 0
Flags: W
LayerCount: 2
Fore
SplineSet
128 927 m 257,0,-1
 128 913 l 257,1,2
 128 860 128 860 91 822.5 c 128,-1,3
 54 785 54 785 0 785 c 257,4,5
 -54 785 -54 785 -91 822 c 128,-1,6
 -128 859 -128 859 -128 913 c 257,7,-1
 -128 927 l 257,8,-1
 -52 927 l 257,9,10
 -54 919 -54 919 -54 913 c 257,11,12
 -54 891 -54 891 -38 875 c 128,-1,13
 -22 859 -22 859 0.5 859 c 128,-1,14
 23 859 23 859 38.5 875 c 128,-1,15
 54 891 54 891 54 913 c 257,16,17
 54 919 54 919 52 927 c 257,18,-1
 128 927 l 257,0,-1
EndSplineSet
EndChar

StartChar: uni0307
Encoding: 775 775 1261
GlifName: uni0307
Width: 0
VWidth: 0
Flags: W
LayerCount: 2
Fore
SplineSet
-76 493 m 257,0,-1
 -76 635 l 257,1,-1
 76 635 l 257,2,-1
 76 493 l 257,3,-1
 -76 493 l 257,0,-1
EndSplineSet
EndChar

StartChar: uni0308
Encoding: 776 776 1265
GlifName: uni0308
Width: 0
VWidth: 0
Flags: W
LayerCount: 2
Fore
SplineSet
-176 493 m 257,0,-1
 -176 635 l 257,1,-1
 -24 635 l 257,2,-1
 -24 493 l 257,3,-1
 -176 493 l 257,0,-1
24 493 m 257,4,-1
 24 635 l 257,5,-1
 176 635 l 257,6,-1
 176 493 l 257,7,-1
 24 493 l 257,4,-1
EndSplineSet
EndChar

StartChar: uni030A
Encoding: 778 778 1269
GlifName: uni030A_
Width: 0
VWidth: 0
Flags: W
LayerCount: 2
Fore
SplineSet
-12 607 m 257,0,-1
 -12 608 l 256,1,-1
 -12 608 l 257,2,3
 -31 604 -31 604 -42.5 589.5 c 128,-1,4
 -54 575 -54 575 -54 555 c 257,5,6
 -54 536 -54 536 -42.5 521.5 c 128,-1,7
 -31 507 -31 507 -12 503 c 257,8,-1
 -12 504 l 257,9,10
 -4 502 -4 502 0 502 c 128,-1,11
 4 502 4 502 12 504 c 257,12,-1
 12 503 l 257,13,14
 31 507 31 507 42.5 521.5 c 128,-1,15
 54 536 54 536 54 555 c 257,16,17
 54 575 54 575 42.5 589.5 c 128,-1,18
 31 604 31 604 12 608 c 257,19,-1
 12 607 l 257,20,21
 4 609 4 609 0 609 c 128,-1,22
 -4 609 -4 609 -12 607 c 257,0,-1
  PathStart: -2
-1 427 m 257,23,-1
 -3 427 l 257,24,-1
 -10 427 l 257,25,26
 -61 431 -61 431 -95.5 467.5 c 128,-1,27
 -130 504 -130 504 -130 555 c 128,-1,28
 -130 606 -130 606 -95 643 c 128,-1,29
 -60 680 -60 680 -10 684 c 257,30,-1
 -3 684 l 257,31,-1
 -1 684 l 257,32,-1
 1 684 l 257,33,34
 55 684 55 684 92.5 646.5 c 128,-1,35
 130 609 130 609 130 555 c 257,36,37
 130 502 130 502 92.5 464.5 c 128,-1,38
 55 427 55 427 1 427 c 257,39,-1
 -1 427 l 257,23,-1
EndSplineSet
EndChar

StartChar: uni030B
Encoding: 779 779 1273
GlifName: uni030B_
Width: 0
VWidth: 0
Flags: W
LayerCount: 2
Fore
SplineSet
-180 511 m 257,0,-1
 -288 618 l 257,1,-1
 -106 800 l 257,2,-1
 2 693 l 257,3,-1
 -180 511 l 257,0,-1
106 509 m 257,4,-1
 -2 616 l 257,5,-1
 180 798 l 257,6,-1
 288 691 l 257,7,-1
 106 509 l 257,4,-1
EndSplineSet
EndChar

StartChar: uni030C
Encoding: 780 780 1277
GlifName: uni030C_
Width: 0
VWidth: 0
Flags: W
LayerCount: 2
Fore
SplineSet
-100 929 m 257,0,-1
 -24 929 l 257,1,-1
 4 821 l 257,2,-1
 24 929 l 257,3,-1
 100 929 l 257,4,-1
 48 761 l 257,5,-1
 47 761 l 257,6,-1
 -28 761 l 257,7,-1
 -29 761 l 257,8,-1
 -100 929 l 257,0,-1
EndSplineSet
EndChar

StartChar: uni030F
Encoding: 783 783 1281
GlifName: uni030F_
Width: 0
VWidth: 0
Flags: W
LayerCount: 2
Fore
SplineSet
180 511 m 257,0,-1
 -2 693 l 257,1,-1
 106 800 l 257,2,-1
 288 618 l 257,3,-1
 180 511 l 257,0,-1
-106 509 m 257,4,-1
 -288 691 l 257,5,-1
 -180 798 l 257,6,-1
 2 616 l 257,7,-1
 -106 509 l 257,4,-1
EndSplineSet
EndChar

StartChar: uni0312
Encoding: 786 786 1285
GlifName: uni0312
Width: 0
VWidth: 0
Flags: W
LayerCount: 2
Fore
SplineSet
76 403 m 257,0,-1
 76 261 l 257,1,-1
 -76 261 l 257,2,-1
 -76 403 l 257,3,-1
 -16 535 l 257,4,-1
 42 531 l 257,5,-1
 33 403 l 257,6,-1
 76 403 l 257,0,-1
EndSplineSet
EndChar

StartChar: uni0313
Encoding: 787 787 1289
GlifName: uni0313
Width: 0
VWidth: 0
Flags: W
LayerCount: 2
Fore
SplineSet
-76 393 m 257,0,-1
 -76 535 l 257,1,-1
 76 535 l 257,2,-1
 76 393 l 257,3,-1
 16 261 l 257,4,-1
 -42 265 l 257,5,-1
 -33 393 l 257,6,-1
 -76 393 l 257,0,-1
EndSplineSet
EndChar

StartChar: uni0326
Encoding: 806 806 1293
GlifName: uni0326
Width: 0
VWidth: 0
LayerCount: 2
Fore
SplineSet
-126 93 m 257,0,-1
 -126 235 l 257,1,-1
 26 235 l 257,2,-1
 26 93 l 257,3,-1
 -34 -39 l 257,4,-1
 -92 -35 l 257,5,-1
 -83 93 l 257,6,-1
 -126 93 l 257,0,-1
EndSplineSet
EndChar

StartChar: uni0327
Encoding: 807 807 1297
GlifName: uni0327
Width: 0
VWidth: 0
LayerCount: 2
Fore
SplineSet
-121 -73 m 257,0,-1
 -121 4 l 257,1,2
 -113 2 -113 2 -108 2 c 257,3,4
 -85 2 -85 2 -69.5 17.5 c 128,-1,5
 -54 33 -54 33 -54 55 c 128,-1,6
 -54 77 -54 77 -70 93 c 128,-1,7
 -86 109 -86 109 -108 109 c 257,8,9
 -113 109 -113 109 -121 107 c 257,10,-1
 -121 184 l 257,11,-1
 -108 184 l 257,12,13
 -54 184 -54 184 -16.5 146.5 c 128,-1,14
 21 109 21 109 21 55 c 257,15,16
 21 2 21 2 -16.5 -35.5 c 128,-1,17
 -54 -73 -54 -73 -108 -73 c 257,18,-1
 -121 -73 l 257,0,-1
EndSplineSet
EndChar

StartChar: uni0328
Encoding: 808 808 1301
GlifName: uni0328
Width: 0
VWidth: 0
LayerCount: 2
Fore
SplineSet
21 -73 m 257,0,-1
 8 -73 l 257,1,2
 -46 -73 -46 -73 -83.5 -35.5 c 128,-1,3
 -121 2 -121 2 -121 55 c 257,4,5
 -121 109 -121 109 -83.5 146.5 c 128,-1,6
 -46 184 -46 184 8 184 c 257,7,-1
 21 184 l 257,8,-1
 21 107 l 257,9,10
 13 109 13 109 8 109 c 257,11,12
 -14 109 -14 109 -30 93 c 128,-1,13
 -46 77 -46 77 -46 55 c 128,-1,14
 -46 33 -46 33 -30.5 17.5 c 128,-1,15
 -15 2 -15 2 8 2 c 257,16,17
 13 2 13 2 21 4 c 257,18,-1
 21 -73 l 257,0,-1
EndSplineSet
EndChar

StartChar: u0964
Encoding: 2404 2404 1305
GlifName: u0964
Width: 252
VWidth: 0
Flags: W
LayerCount: 2
Fore
SplineSet
202 365 m 257,0,-1
 202 -35 l 257,1,-1
 50 -35 l 257,2,-1
 50 365 l 257,3,-1
 202 365 l 257,0,-1
EndSplineSet
EndChar

StartChar: u0980
Encoding: 2432 2432 1313
GlifName: u0980
Width: 534
VWidth: 0
Flags: W
LayerCount: 2
Fore
SplineSet
210 338 m 257,0,-1
 210 260 l 257,1,2
 107 260 107 260 53.5 332.5 c 128,-1,3
 0 405 0 405 0 518 c 257,4,5
 0 625 0 625 75.5 700 c 128,-1,6
 151 775 151 775 258 775 c 257,7,-1
 264 775 l 257,8,9
 270 775 270 775 276.5 775.5 c 128,-1,10
 283 776 283 776 293.5 775.5 c 128,-1,11
 304 775 304 775 314 774 c 128,-1,12
 324 773 324 773 335.5 771 c 128,-1,13
 347 769 347 769 357 766 c 128,-1,14
 367 763 367 763 377 758 c 128,-1,15
 387 753 387 753 395 747 c 257,16,17
 412 733 412 733 421.5 702.5 c 128,-1,18
 431 672 431 672 432 649 c 257,19,-1
 434 626 l 257,20,-1
 434 -2 l 257,21,-1
 282 -2 l 257,22,-1
 282 261 l 257,23,24
 280 261 280 261 281 292.5 c 128,-1,25
 282 324 282 324 284 351.5 c 128,-1,26
 286 379 286 379 283 383 c 257,27,-1
 282 414 l 257,28,-1
 282 621 l 257,29,30
 270 624 270 624 258 624 c 257,31,32
 213 624 213 624 182 593 c 128,-1,33
 151 562 151 562 151 518 c 257,34,35
 151 493 151 493 151.5 483 c 128,-1,36
 152 473 152 473 154.5 455.5 c 128,-1,37
 157 438 157 438 163 430.5 c 128,-1,38
 169 423 169 423 181 417 c 128,-1,39
 193 411 193 411 210 411 c 257,40,-1
 210 392 l 257,41,42
 210 373 210 373 209.5 357 c 128,-1,43
 209 341 209 341 210 338 c 257,0,-1
EndSplineSet
EndChar

StartChar: u0981
Encoding: 2433 2433 1317
GlifName: u0981
Width: 0
VWidth: 0
LayerCount: 2
Fore
SplineSet
-61 653 m 257,0,-1
 -61 767 l 257,1,-1
 61 767 l 257,2,-1
 61 653 l 257,3,-1
 -61 653 l 257,0,-1
193 614 m 257,4,-1
 193 595 l 257,5,6
 193 514 193 514 137 457.5 c 128,-1,7
 81 401 81 401 1 401 c 257,8,9
 -80 401 -80 401 -136.5 457.5 c 128,-1,10
 -193 514 -193 514 -193 595 c 257,11,-1
 -193 614 l 257,12,-1
 -77 614 l 257,13,14
 -80 605 -80 605 -80 595 c 257,15,16
 -80 561 -80 561 -56.5 537.5 c 128,-1,17
 -33 514 -33 514 1 514 c 128,-1,18
 35 514 35 514 57.5 537.5 c 128,-1,19
 80 561 80 561 80 595 c 257,20,21
 80 605 80 605 77 614 c 257,22,-1
 193 614 l 257,4,-1
EndSplineSet
EndChar

StartChar: u0982
Encoding: 2434 2434 1321
GlifName: u0982
Width: 445
VWidth: 0
Flags: W
LayerCount: 2
Fore
SplineSet
159 422 m 257,0,-1
 392 64 l 257,1,-1
 286 3 l 257,2,-1
 53 361 l 257,3,-1
 159 422 l 257,0,-1
194 658 m 257,4,-1
 194 659 l 256,5,-1
 194 659 l 257,6,7
 175 655 175 655 163.5 640.5 c 128,-1,8
 152 626 152 626 152 606 c 257,9,10
 152 587 152 587 163.5 572.5 c 128,-1,11
 175 558 175 558 194 554 c 257,12,-1
 194 555 l 257,13,14
 202 553 202 553 206 553 c 128,-1,15
 210 553 210 553 218 555 c 257,16,-1
 218 554 l 257,17,18
 237 558 237 558 248.5 572.5 c 128,-1,19
 260 587 260 587 260 606 c 257,20,21
 260 626 260 626 248.5 640.5 c 128,-1,22
 237 655 237 655 218 659 c 257,23,-1
 218 658 l 257,24,25
 210 660 210 660 206 660 c 128,-1,26
 202 660 202 660 194 658 c 257,4,-1
  PathStart: -2
205 478 m 257,27,-1
 203 478 l 257,28,-1
 196 478 l 257,29,30
 145 482 145 482 110.5 518.5 c 128,-1,31
 76 555 76 555 76 606 c 128,-1,32
 76 657 76 657 111 694 c 128,-1,33
 146 731 146 731 196 735 c 257,34,-1
 203 735 l 257,35,-1
 205 735 l 257,36,-1
 207 735 l 257,37,38
 261 735 261 735 298.5 697.5 c 128,-1,39
 336 660 336 660 336 606 c 257,40,41
 336 553 336 553 298.5 515.5 c 128,-1,42
 261 478 261 478 207 478 c 257,43,-1
 205 478 l 257,27,-1
EndSplineSet
EndChar

StartChar: u0983
Encoding: 2435 2435 1325
GlifName: u0983
Width: 445
VWidth: 0
Flags: W
LayerCount: 2
Fore
SplineSet
210.5 658 m 257,0,-1
 210.5 659 l 256,1,-1
 210.5 659 l 257,2,3
 191.5 655 191.5 655 180 640.5 c 128,-1,4
 168.5 626 168.5 626 168.5 606 c 257,5,6
 168.5 587 168.5 587 180 572.5 c 128,-1,7
 191.5 558 191.5 558 210.5 554 c 257,8,-1
 210.5 555 l 257,9,10
 218.5 553 218.5 553 222.5 553 c 128,-1,11
 226.5 553 226.5 553 234.5 555 c 257,12,-1
 234.5 554 l 257,13,14
 253.5 558 253.5 558 265 572.5 c 128,-1,15
 276.5 587 276.5 587 276.5 606 c 257,16,17
 276.5 626 276.5 626 265 640.5 c 128,-1,18
 253.5 655 253.5 655 234.5 659 c 257,19,-1
 234.5 658 l 257,20,21
 226.5 660 226.5 660 222.5 660 c 128,-1,22
 218.5 660 218.5 660 210.5 658 c 257,0,-1
  PathStart: -2
221.5 478 m 257,23,-1
 219.5 478 l 257,24,-1
 212.5 478 l 257,25,26
 161.5 482 161.5 482 127 518.5 c 128,-1,27
 92.5 555 92.5 555 92.5 606 c 128,-1,28
 92.5 657 92.5 657 127.5 694 c 128,-1,29
 162.5 731 162.5 731 212.5 735 c 257,30,-1
 219.5 735 l 257,31,-1
 221.5 735 l 257,32,-1
 223.5 735 l 257,33,34
 277.5 735 277.5 735 315 697.5 c 128,-1,35
 352.5 660 352.5 660 352.5 606 c 257,36,37
 352.5 553 352.5 553 315 515.5 c 128,-1,38
 277.5 478 277.5 478 223.5 478 c 257,39,-1
 221.5 478 l 257,23,-1
210.5 258 m 257,40,-1
 210.5 259 l 256,41,-1
 210.5 259 l 257,42,43
 191.5 255 191.5 255 180 240.5 c 128,-1,44
 168.5 226 168.5 226 168.5 206 c 257,45,46
 168.5 187 168.5 187 180 172.5 c 128,-1,47
 191.5 158 191.5 158 210.5 154 c 257,48,-1
 210.5 155 l 257,49,50
 218.5 153 218.5 153 222.5 153 c 128,-1,51
 226.5 153 226.5 153 234.5 155 c 257,52,-1
 234.5 154 l 257,53,54
 253.5 158 253.5 158 265 172.5 c 128,-1,55
 276.5 187 276.5 187 276.5 206 c 257,56,57
 276.5 226 276.5 226 265 240.5 c 128,-1,58
 253.5 255 253.5 255 234.5 259 c 257,59,-1
 234.5 258 l 257,60,61
 226.5 260 226.5 260 222.5 260 c 128,-1,62
 218.5 260 218.5 260 210.5 258 c 257,40,-1
  PathStart: -2
221.5 78 m 257,63,-1
 219.5 78 l 257,64,-1
 212.5 78 l 257,65,66
 161.5 82 161.5 82 127 118.5 c 128,-1,67
 92.5 155 92.5 155 92.5 206 c 128,-1,68
 92.5 257 92.5 257 127.5 294 c 128,-1,69
 162.5 331 162.5 331 212.5 335 c 257,70,-1
 219.5 335 l 257,71,-1
 221.5 335 l 257,72,-1
 223.5 335 l 257,73,74
 277.5 335 277.5 335 315 297.5 c 128,-1,75
 352.5 260 352.5 260 352.5 206 c 257,76,77
 352.5 153 352.5 153 315 115.5 c 128,-1,78
 277.5 78 277.5 78 223.5 78 c 257,79,-1
 221.5 78 l 257,63,-1
EndSplineSet
EndChar

StartChar: u0985
Encoding: 2437 2437 1329
GlifName: u0985
Width: 946
VWidth: 0
Flags: W
LayerCount: 2
Fore
SplineSet
401 500 m 257,0,-1
 396 629 l 257,1,2
 397 629 397 629 398 629 c 257,3,4
 525 629 525 629 614.5 537 c 128,-1,5
 704 445 704 445 704 315 c 257,6,7
 704 296 704 296 701 278 c 257,8,-1
 773 206 l 257,9,-1
 773 666 l 257,10,-1
 0 666 l 257,11,-1
 0 798 l 257,12,-1
 946 798 l 257,13,-1
 946 666 l 257,14,-1
 925 666 l 257,15,-1
 925 -5 l 257,16,-1
 773 -5 l 257,17,-1
 771 -7 l 257,18,-1
 641 123 l 257,19,20
 598 66 598 66 534.5 33 c 128,-1,21
 471 0 471 0 398 0 c 257,22,23
 271 0 271 0 181.5 92 c 128,-1,24
 92 184 92 184 92 315 c 257,25,-1
 153.5 316.5 l 2,26,27
 215 318 215 318 215 319 c 257,28,29
 215 316 215 316 215 313 c 257,30,31
 215 235 215 235 268.5 180 c 128,-1,32
 322 125 322 125 398 125 c 128,-1,33
 474 125 474 125 527.5 180 c 128,-1,34
 581 235 581 235 581 313 c 257,35,36
 581 390 581 390 528.5 444.5 c 128,-1,37
 476 499 476 499 401 500 c 257,0,-1
EndSplineSet
EndChar

StartChar: u0986
Encoding: 2438 2438 1333
GlifName: u0986
Width: 1261
VWidth: 0
Flags: W
LayerCount: 2
Fore
SplineSet
1061 845 m 257,0,-1
 1213 845 l 257,1,-1
 1213 798 l 257,2,-1
 1261 798 l 257,3,-1
 1261 666 l 257,4,-1
 1213 666 l 257,5,-1
 1213 -7 l 257,6,-1
 1061 -7 l 257,7,-1
 1061 484 l 257,8,-1
 1059 482 l 257,9,-1
 925 620 l 257,10,-1
 925 -5 l 257,11,-1
 773 -5 l 257,12,-1
 771 -7 l 257,13,-1
 641 123 l 257,14,15
 598 66 598 66 534.5 33 c 128,-1,16
 471 0 471 0 398 0 c 257,17,18
 271 0 271 0 181.5 92 c 128,-1,19
 92 184 92 184 92 315 c 257,20,-1
 153.5 316.5 l 2,21,22
 215 318 215 318 215 319 c 257,23,24
 215 316 215 316 215 313 c 257,25,26
 215 235 215 235 268.5 180 c 128,-1,27
 322 125 322 125 398 125 c 128,-1,28
 474 125 474 125 527.5 180 c 128,-1,29
 581 235 581 235 581 313 c 257,30,31
 581 390 581 390 528.5 444.5 c 128,-1,32
 476 499 476 499 401 500 c 257,33,-1
 396 629 l 257,34,35
 397 629 397 629 398 629 c 257,36,37
 525 629 525 629 614.5 537 c 128,-1,38
 704 445 704 445 704 315 c 257,39,40
 704 296 704 296 701 278 c 257,41,-1
 773 206 l 257,42,-1
 773 666 l 257,43,-1
 0 666 l 257,44,-1
 0 795 l 257,45,-1
 754 795 l 257,46,-1
 946 795 l 257,47,-1
 955 795 l 257,48,-1
 1061 692 l 257,49,-1
 1061 845 l 257,0,-1
EndSplineSet
EndChar

StartChar: u0987
Encoding: 2439 2439 1337
GlifName: u0987
Width: 689
VWidth: 0
Flags: W
LayerCount: 2
Fore
SplineSet
689 798 m 257,0,-1
 689 666 l 257,1,-1
 0 666 l 257,2,-1
 0 798 l 257,3,-1
 333 798 l 257,4,5
 324 844 324 844 300 868 c 257,6,7
 268 899 268 899 237 930 c 257,8,9
 213 954 213 954 160.5 967.5 c 128,-1,10
 108 981 108 981 85 1005 c 257,11,12
 69 1020 69 1020 58.5 1050 c 128,-1,13
 48 1080 48 1080 46 1103 c 257,14,-1
 44 1125 l 257,15,-1
 132 1213 l 257,16,17
 133 1204 133 1204 135 1188.5 c 128,-1,18
 137 1173 137 1173 148.5 1139.5 c 128,-1,19
 160 1106 160 1106 176 1090 c 257,20,21
 198 1068 198 1068 249.5 1056 c 128,-1,22
 301 1044 301 1044 324 1022 c 257,23,-1
 394 951 l 257,24,25
 408 937 408 937 416.5 916.5 c 128,-1,26
 425 896 425 896 427 877 c 128,-1,27
 429 858 429 858 429 841 c 128,-1,28
 429 824 429 824 428 813.5 c 2,29,-1
 427 803 l 257,30,-1
 422 798 l 257,31,-1
 689 798 l 257,0,-1
236 467 m 257,32,-1
 128 573 l 257,33,34
 205 650 205 650 311.5 651 c 128,-1,35
 418 652 418 652 495 575 c 257,36,37
 571 498 571 498 570 392 c 128,-1,38
 569 286 569 286 492 209 c 257,39,40
 455 171 455 171 412 151 c 257,41,-1
 593 -6 l 257,42,-1
 434 -6 l 257,43,-1
 226 148 l 257,44,45
 173 170 173 170 131 212 c 257,46,-1
 233 315 l 257,47,-1
 234 314 l 257,48,49
 266 282 266 282 309 282.5 c 128,-1,50
 352 283 352 283 386 316 c 257,51,52
 419 350 419 350 419.5 393 c 128,-1,53
 420 436 420 436 388 468 c 257,54,55
 356 500 356 500 313 500 c 128,-1,56
 270 500 270 500 236 467 c 257,32,-1
EndSplineSet
EndChar

StartChar: u0988
Encoding: 2440 2440 1341
GlifName: u0988
Width: 1077
VWidth: 0
Flags: W
LayerCount: 2
Fore
SplineSet
236 467 m 257,0,-1
 128 573 l 257,1,2
 205 650 205 650 311.5 651 c 128,-1,3
 418 652 418 652 495 575 c 257,4,5
 542 528 542 528 560 465 c 257,6,-1
 639 530 l 257,7,8
 654 554 654 554 675 575 c 257,9,10
 715 615 715 615 768 635 c 257,11,-1
 778 643 l 257,12,-1
 777 638 l 257,13,14
 843 661 843 661 915.5 644 c 128,-1,15
 988 627 988 627 1042 573 c 257,16,-1
 934 467 l 257,17,18
 900 500 900 500 857 500 c 128,-1,19
 814 500 814 500 782 468 c 257,20,21
 750 436 750 436 750.5 393 c 128,-1,22
 751 350 751 350 784 316 c 257,23,24
 818 283 818 283 861 282.5 c 128,-1,25
 904 282 904 282 936 314 c 257,26,-1
 937 315 l 257,27,-1
 1039 212 l 257,28,29
 992 164 992 164 932.5 142.5 c 128,-1,30
 873 121 873 121 804 136 c 128,-1,31
 735 151 735 151 678 209 c 257,32,33
 624 263 624 263 607 336 c 257,34,-1
 534 260 l 257,35,-1
 533 261 l 257,36,37
 516 232 516 232 492 209 c 257,38,39
 435 151 435 151 366 136 c 128,-1,40
 297 121 297 121 237.5 142.5 c 128,-1,41
 178 164 178 164 131 212 c 257,42,-1
 233 315 l 257,43,-1
 234 314 l 257,44,45
 266 282 266 282 309 282.5 c 128,-1,46
 352 283 352 283 386 316 c 257,47,48
 390 320 390 320 393 324 c 257,49,-1
 389 326 l 257,50,-1
 403 337 l 257,51,52
 423 369 423 369 419 405 c 128,-1,53
 415 441 415 441 388 468 c 257,54,55
 356 500 356 500 313 500 c 128,-1,56
 270 500 270 500 236 467 c 257,0,-1
1077 798 m 257,57,-1
 1077 666 l 257,58,-1
 0 666 l 257,59,-1
 0 798 l 257,60,-1
 538 798 l 257,61,62
 529 844 529 844 505 868 c 257,63,64
 473 899 473 899 442 930 c 257,65,66
 418 954 418 954 365.5 967.5 c 128,-1,67
 313 981 313 981 290 1005 c 257,68,69
 274 1020 274 1020 263.5 1050 c 128,-1,70
 253 1080 253 1080 251 1103 c 257,71,-1
 249 1125 l 257,72,-1
 337 1213 l 257,73,74
 338 1204 338 1204 340 1188.5 c 128,-1,75
 342 1173 342 1173 353.5 1139.5 c 128,-1,76
 365 1106 365 1106 381 1090 c 257,77,78
 403 1068 403 1068 454.5 1056 c 128,-1,79
 506 1044 506 1044 529 1022 c 257,80,-1
 599 951 l 257,81,82
 613 937 613 937 621.5 916.5 c 128,-1,83
 630 896 630 896 632 877 c 128,-1,84
 634 858 634 858 634 841 c 128,-1,85
 634 824 634 824 633 813.5 c 2,86,-1
 632 803 l 257,87,-1
 627 798 l 257,88,-1
 1077 798 l 257,57,-1
EndSplineSet
EndChar

StartChar: u0989
Encoding: 2441 2441 1345
GlifName: u0989
Width: 616
VWidth: 0
Flags: W
LayerCount: 2
Fore
SplineSet
616 798 m 257,0,-1
 616 666 l 257,1,-1
 441 666 l 257,2,-1
 441 479 l 257,3,4
 501 445 501 445 536.5 385.5 c 128,-1,5
 572 326 572 326 570 255 c 257,6,7
 567 146 567 146 492 72 c 128,-1,8
 417 -2 417 -2 309 -2 c 257,9,10
 247 -2 247 -2 198 20 c 128,-1,11
 149 42 149 42 118.5 79 c 128,-1,12
 88 116 88 116 72 161.5 c 128,-1,13
 56 207 56 207 56 256 c 257,14,-1
 201 256 l 257,15,-1
 201 255 l 257,16,17
 201 210 201 210 232 180 c 128,-1,18
 263 150 263 150 310 149 c 257,19,20
 357 150 357 150 388 180 c 128,-1,21
 419 210 419 210 419 255 c 257,22,23
 419 297 419 297 392.5 326.5 c 128,-1,24
 366 356 366 356 324 361 c 257,25,-1
 309 361 l 257,26,-1
 309 513 l 257,27,-1
 309 513 l 257,28,-1
 309 666 l 257,29,-1
 0 666 l 257,30,-1
 0 798 l 257,31,-1
 299 798 l 257,32,33
 289 845 289 845 265 870 c 257,34,35
 234 901 234 901 202 933 c 257,36,37
 178 956 178 956 125.5 970 c 128,-1,38
 73 984 73 984 50 1007 c 257,39,40
 34 1023 34 1023 24 1053 c 128,-1,41
 14 1083 14 1083 11 1105 c 257,42,-1
 9 1127 l 257,43,-1
 97 1215 l 257,44,45
 98 1206 98 1206 100.5 1190.5 c 128,-1,46
 103 1175 103 1175 114 1141.5 c 128,-1,47
 125 1108 125 1108 141 1092 c 257,48,49
 164 1070 164 1070 215 1058 c 128,-1,50
 266 1046 266 1046 289 1024 c 258,51,-1
 359 953 l 258,52,53
 373 939 373 939 381.5 918.5 c 128,-1,54
 390 898 390 898 392 879 c 0,55,56
 394.357421875 856.599609375 394.357421875 856.599609375 394 843 c 2,57,-1
 393 805 l 284,58,-1
 385 798 l 257,59,-1
 616 798 l 257,0,-1
EndSplineSet
EndChar

StartChar: u098A
Encoding: 2442 2442 1349
GlifName: u098A_
Width: 616
VWidth: 0
Flags: W
LayerCount: 2
Fore
SplineSet
616 798 m 1,0,-1
 616 666 l 1,1,-1
 441 666 l 1,2,-1
 441 479 l 1,3,4
 501 445 501 445 536.5 385.5 c 128,-1,5
 572 326 572 326 570 255 c 0,6,7
 567 146 567 146 492 72 c 0,8,9
 418 -1 418 -1 311.395507812 -1.9912109375 c 1,10,-1
 172 -55 l 24,11,-1
 8 -6 l 5,12,-1
 20 115 l 5,13,-1
 131.375 64.8642578125 l 1,14,15
 125 72 125 72 118.5 79 c 0,16,17
 88 116 88 116 72 161.5 c 128,-1,18
 56 207 56 207 56 256 c 1,19,-1
 201 256 l 1,20,-1
 201 255 l 2,21,22
 201 210 201 210 232 180 c 0,23,24
 265 148 265 148 310 149 c 0,25,26
 357 150 357 150 388 180 c 128,-1,27
 419 210 419 210 419 255 c 0,28,29
 419 297 419 297 392.5 326.5 c 128,-1,30
 366 356 366 356 324 361 c 1,31,-1
 309 361 l 1,32,-1
 309 513 l 1,33,-1
 309 666 l 1,34,-1
 0 666 l 1,35,-1
 0 798 l 1,36,-1
 299 798 l 1,37,38
 289 845 289 845 265 870 c 0,39,40
 234 901 234 901 202 933 c 0,41,42
 178 956 178 956 125.5 970 c 128,-1,43
 73 984 73 984 50 1007 c 0,44,45
 34 1023 34 1023 24 1053 c 0,46,47
 12.494140625 1088.56347656 12.494140625 1088.56347656 11 1105 c 2,48,-1
 9 1127 l 1,49,-1
 97 1215 l 1,50,51
 98 1206 98 1206 100.5 1190.5 c 128,-1,52
 103 1175 103 1175 114 1141.5 c 128,-1,53
 125 1108 125 1108 141 1092 c 0,54,55
 164 1070 164 1070 215 1058 c 0,56,57
 267.401367188 1045.90722656 267.401367188 1045.90722656 289 1024 c 2,58,-1
 359 953 l 2,59,60
 373 939 373 939 381.5 918.5 c 128,-1,61
 390 898 390 898 392 879 c 128,-1,62
 394 860 394 860 394 843 c 128,-1,63
 394 826 394 826 393 815.5 c 128,-1,64
 392 805 392 805 393 805 c 1,65,-1
 385 798 l 1,66,-1
 616 798 l 1,0,-1
EndSplineSet
EndChar

StartChar: u098B
Encoding: 2443 2443 1351
GlifName: u098B_
Width: 1344
VWidth: 0
Flags: W
LayerCount: 2
Fore
SplineSet
897 772 m 257,0,-1
 1043 772 l 257,1,-1
 1043 281 l 257,2,-1
 1117 206 l 257,3,-1
 1117 771 l 257,4,-1
 1119 771 l 257,5,-1
 1119 790 l 257,6,-1
 1319 790 l 257,7,-1
 1319 658 l 257,8,-1
 1269 658 l 257,9,-1
 1269 -5 l 257,10,-1
 1118 -5 l 257,11,-1
 1115 -7 l 257,12,-1
 1043 65 l 257,13,-1
 1043 -4 l 257,14,-1
 897 -4 l 257,15,-1
 896 -4 l 257,16,-1
 443 175 l 257,17,-1
 443 327 l 257,18,-1
 690 557 l 257,19,-1
 700 624 l 257,20,21
 680 567 680 567 630.5 531 c 128,-1,22
 581 495 581 495 519 495 c 257,23,24
 474 495 474 495 434.5 514 c 128,-1,25
 395 533 395 533 368 566 c 257,26,27
 341 533 341 533 302 514 c 128,-1,28
 263 495 263 495 219 495 c 257,29,30
 138 495 138 495 81.5 551.5 c 128,-1,31
 25 608 25 608 25 689 c 257,32,-1
 25 708 l 257,33,-1
 141 708 l 257,34,35
 138 699 138 699 138 689 c 257,36,37
 138 655 138 655 161.5 631.5 c 128,-1,38
 185 608 185 608 219 608 c 128,-1,39
 253 608 253 608 275.5 631.5 c 128,-1,40
 298 655 298 655 298 689 c 257,41,42
 298 699 298 699 295 708 c 257,43,-1
 325 708 l 257,44,-1
 411 708 l 257,45,-1
 441 708 l 257,46,47
 438 699 438 699 438 689 c 257,48,49
 438 655 438 655 461.5 631.5 c 128,-1,50
 485 608 485 608 519 608 c 128,-1,51
 553 608 553 608 575.5 631.5 c 128,-1,52
 598 655 598 655 598 689 c 257,53,54
 598 699 598 699 595 708 c 257,55,-1
 711 708 l 257,56,-1
 711 696 l 257,57,-1
 713 709 l 257,58,-1
 897 709 l 257,59,-1
 897 772 l 257,0,-1
896 155 m 257,60,-1
 896 704 l 257,61,-1
 729 439 l 257,62,-1
 728 440 l 257,63,-1
 587 269 l 257,64,-1
 896 155 l 257,60,-1
EndSplineSet
EndChar

StartChar: u098B.0
Encoding: 66547 -1 1352
GlifName: u098B_.0
Width: 1344
VWidth: 0
Flags: W
LayerCount: 2
Fore
SplineSet
872 782 m 257,0,-1
 872 719 l 257,1,-1
 688 719 l 257,2,-1
 686 706 l 257,3,-1
 686 718 l 257,4,-1
 570 718 l 257,5,6
 573 709 573 709 573 699 c 257,7,8
 573 665 573 665 551 642 c 257,9,10
 528 618 528 618 494 618 c 257,11,12
 460 618 460 618 437 642 c 257,13,14
 413 665 413 665 413 699 c 257,15,16
 413 709 413 709 416 718 c 257,17,-1
 386 718 l 257,18,-1
 300 718 l 257,19,-1
 270 718 l 257,20,21
 273 709 273 709 273 699 c 257,22,23
 273 665 273 665 251 642 c 257,24,25
 228 618 228 618 194 618 c 257,26,27
 160 618 160 618 137 642 c 257,28,29
 113 665 113 665 113 699 c 257,30,31
 113 709 113 709 116 718 c 257,32,-1
 0 718 l 257,33,-1
 0 699 l 257,34,35
 0 618 0 618 57 562 c 257,36,37
 113 505 113 505 194 505 c 257,38,39
 238 505 238 505 277 524 c 257,40,41
 316 543 316 543 343 576 c 257,42,43
 370 543 370 543 410 524 c 257,44,45
 449 505 449 505 494 505 c 257,46,47
 556 505 556 505 606 541 c 257,48,49
 655 577 655 577 675 634 c 257,50,-1
 665 567 l 257,51,-1
 418 337 l 257,52,-1
 418 185 l 257,53,-1
 871 6 l 257,54,-1
 872 6 l 257,55,-1
 1018 6 l 257,56,-1
 1018 75 l 257,57,-1
 1090 3 l 257,58,-1
 1093 5 l 257,59,-1
 1244 5 l 257,60,-1
 1244 668 l 257,61,-1
 1294 668 l 257,62,-1
 1294 800 l 257,63,-1
 1094 800 l 257,64,-1
 1094 781 l 257,65,-1
 1092 781 l 257,66,-1
 1092 216 l 257,67,-1
 1018 291 l 257,68,-1
 1018 782 l 257,69,-1
 872 782 l 257,0,-1
871 165 m 257,70,-1
 562 279 l 257,71,-1
 703 450 l 257,72,-1
 704 449 l 257,73,-1
 871 714 l 257,74,-1
 871 165 l 257,70,-1
EndSplineSet
EndChar

StartChar: u098C
Encoding: 2444 2444 1355
GlifName: u098C_
Width: 779
VWidth: 0
Flags: W
LayerCount: 2
Fore
SplineSet
103.603515625 99 m 257,0,1
 102.603515625 112 102.603515625 112 102.603515625 125 c 257,2,3
 102.603515625 232 102.603515625 232 177.603515625 307.5 c 128,-1,4
 252.603515625 383 252.603515625 383 359.603515625 383 c 257,5,6
 429.603515625 383 429.603515625 383 488.603515625 348.5 c 128,-1,7
 547.603515625 314 547.603515625 314 581.603515625 256 c 257,8,9
 595.603515625 315 595.603515625 315 579.603515625 374 c 128,-1,10
 563.603515625 433 563.603515625 433 518.603515625 478 c 257,11,12
 449.603515625 547 449.603515625 547 353.603515625 548.5 c 128,-1,13
 257.603515625 550 257.603515625 550 190.603515625 482 c 257,14,15
 163.603515625 456 163.603515625 456 147.603515625 422 c 257,16,-1
 32.603515625 537 l 257,17,18
 53.603515625 567 53.603515625 567 79.603515625 593 c 257,19,20
 152.603515625 667 152.603515625 667 252.103515625 692 c 128,-1,21
 351.603515625 717 351.603515625 717 452.103515625 689 c 128,-1,22
 552.603515625 661 552.603515625 661 628.603515625 585 c 257,23,24
 703.603515625 509 703.603515625 509 731.603515625 409 c 128,-1,25
 759.603515625 309 759.603515625 309 734.603515625 209.5 c 128,-1,26
 709.603515625 110 709.603515625 110 635.603515625 37 c 257,27,28
 609.603515625 11 609.603515625 11 579.603515625 -10 c 257,29,-1
 470.603515625 99 l 257,30,-1
 463.603515625 99 l 257,31,32
 463.603515625 102 463.603515625 102 464.603515625 105 c 257,33,-1
 461.603515625 108 l 257,34,35
 463.603515625 108 463.603515625 108 465.603515625 109 c 257,36,37
 466.603515625 117 466.603515625 117 466.603515625 125 c 257,38,39
 466.603515625 170 466.603515625 170 435.603515625 201 c 128,-1,40
 404.603515625 232 404.603515625 232 359.603515625 232 c 257,41,42
 315.603515625 232 315.603515625 232 284.603515625 201 c 128,-1,43
 253.603515625 170 253.603515625 170 253.603515625 125 c 257,44,45
 253.603515625 112 253.603515625 112 256.603515625 99 c 257,46,-1
 103.603515625 99 l 257,0,1
EndSplineSet
EndChar

StartChar: u098F
Encoding: 2447 2447 1359
GlifName: u098F_
Width: 697
VWidth: 0
Flags: W
LayerCount: 2
Fore
SplineSet
47.5 313 m 257,0,-1
 215.5 313 l 257,1,2
 189.5 282 189.5 282 189.5 243 c 257,3,4
 189.5 193 189.5 193 225.5 161 c 257,5,-1
 492.5 161 l 257,6,-1
 492.5 568 l 257,7,8
 460.5 605 460.5 605 411.5 605 c 257,9,10
 371.5 605 371.5 605 340.5 579 c 257,11,-1
 340.5 747 l 257,12,13
 374.5 756 374.5 756 411.5 756 c 257,14,15
 498.5 756 498.5 756 565.5 704 c 128,-1,16
 632.5 652 632.5 652 656.5 569 c 257,17,-1
 659.5 -8 l 257,18,19
 586.5 -9 586.5 -9 443 -5.5 c 128,-1,20
 299.5 -2 299.5 -2 225.5 -3 c 257,21,22
 142.5 21 142.5 21 90 88.5 c 128,-1,23
 37.5 156 37.5 156 37.5 243 c 257,24,25
 37.5 280 37.5 280 47.5 313 c 257,0,-1
EndSplineSet
EndChar

StartChar: u0990
Encoding: 2448 2448 1363
GlifName: u0990
Width: 956
VWidth: 0
Flags: W
LayerCount: 2
Fore
SplineSet
325.663085938 747 m 257,0,1
 359.663085938 756 359.663085938 756 396.663085938 756 c 257,2,3
 483.663085938 756 483.663085938 756 550.663085938 704 c 128,-1,4
 617.663085938 652 617.663085938 652 641.663085938 569 c 257,5,-1
 642.663085938 434 l 257,6,7
 713.663085938 408 713.663085938 408 756.663085938 409 c 257,8,9
 786.663085938 409 786.663085938 409 795.663085938 448 c 257,10,11
 813.663085938 525 813.663085938 525 779.663085938 608.5 c 128,-1,12
 745.663085938 692 745.663085938 692 683.663085938 754 c 257,13,14
 659.663085938 778 659.663085938 778 607.163085938 791.5 c 128,-1,15
 554.663085938 805 554.663085938 805 531.663085938 829 c 257,16,17
 515.663085938 844 515.663085938 844 505.163085938 874 c 128,-1,18
 494.663085938 904 494.663085938 904 492.663085938 927 c 257,19,-1
 490.663085938 949 l 257,20,-1
 578.663085938 1037 l 257,21,22
 579.663085938 1028 579.663085938 1028 581.663085938 1012.5 c 128,-1,23
 583.663085938 997 583.663085938 997 595.163085938 963.5 c 128,-1,24
 606.663085938 930 606.663085938 930 622.663085938 914 c 257,25,26
 644.663085938 892 644.663085938 892 696.163085938 880 c 128,-1,27
 747.663085938 868 747.663085938 868 770.663085938 846 c 257,28,-1
 840.663085938 775 l 257,29,30
 856.663085938 759 856.663085938 759 876.163085938 716.5 c 128,-1,31
 895.663085938 674 895.663085938 674 910.663085938 617.5 c 128,-1,32
 925.663085938 561 925.663085938 561 931.663085938 505.5 c 128,-1,33
 937.663085938 450 937.663085938 450 922.163085938 403 c 128,-1,34
 906.663085938 356 906.663085938 356 867.663085938 337 c 257,35,36
 803.663085938 307 803.663085938 307 744.663085938 307 c 257,37,38
 706.663085938 307 706.663085938 307 642.663085938 326 c 257,39,-1
 644.663085938 -8 l 257,40,41
 571.663085938 -9 571.663085938 -9 428.163085938 -5.5 c 128,-1,42
 284.663085938 -2 284.663085938 -2 210.663085938 -3 c 257,43,44
 127.663085938 21 127.663085938 21 75.1630859375 88.5 c 128,-1,45
 22.6630859375 156 22.6630859375 156 22.6630859375 243 c 257,46,47
 22.6630859375 280 22.6630859375 280 32.6630859375 313 c 257,48,-1
 200.663085938 313 l 257,49,50
 174.663085938 282 174.663085938 282 174.663085938 243 c 257,51,52
 174.663085938 193 174.663085938 193 210.663085938 161 c 257,53,-1
 477.663085938 161 l 257,54,-1
 477.663085938 568 l 257,55,56
 445.663085938 605 445.663085938 605 396.663085938 605 c 257,57,58
 356.663085938 605 356.663085938 605 325.663085938 579 c 257,59,-1
 325.663085938 747 l 257,0,1
EndSplineSet
EndChar

StartChar: u0993
Encoding: 2451 2451 1367
GlifName: u0993
Width: 616
VWidth: 0
Flags: W
LayerCount: 2
Fore
SplineSet
285 677 m 257,0,1
 237 674 237 674 223 671 c 257,2,3
 224 671 224 671 219 692 c 128,-1,4
 214 713 214 713 209 734 c 128,-1,5
 204 755 204 755 205 755 c 257,6,7
 209 755 209 755 229 765 c 128,-1,8
 249 775 249 775 277.5 787.5 c 128,-1,9
 306 800 306 800 329 803 c 257,10,11
 435 818 435 818 502.5 747 c 128,-1,12
 570 676 570 676 568 560 c 257,13,14
 566 473 566 473 518 408 c 257,15,16
 568 340 568 340 568 255 c 257,17,18
 568 148 568 148 492.5 73 c 128,-1,19
 417 -2 417 -2 310 -2 c 257,20,21
 309 -2 309 -2 308 -2 c 2,22,-1
 307 -2 l 257,23,-1
 306 -2 l 257,24,25
 304 -2 304 -2 302 -2 c 257,26,27
 294 -2 294 -2 288 -1 c 257,28,29
 187 5 187 5 117.5 79 c 128,-1,30
 48 153 48 153 48 255 c 257,31,32
 48 337 48 337 94 403 c 257,33,-1
 106 407 l 257,34,35
 207 379 207 379 210 378 c 257,36,37
 223 372 223 372 218 356 c 257,38,39
 202 308 202 308 200 280 c 257,40,41
 199 268 199 268 199 255 c 257,42,43
 199 210 199 210 230 180 c 128,-1,44
 261 150 261 150 308 149 c 257,45,46
 355 150 355 150 386 180 c 128,-1,47
 417 210 417 210 417 255 c 257,48,49
 417 294 417 294 393 323 c 128,-1,50
 369 352 369 352 332 360 c 257,51,-1
 332 359 l 257,52,-1
 308 454 l 257,53,54
 320 454 320 454 332 457 c 257,55,-1
 332 456 l 257,56,57
 369 464 369 464 393 493 c 128,-1,58
 417 522 417 522 417 560 c 257,59,60
 417 618 417 618 381 649 c 128,-1,61
 345 680 345 680 285 677 c 257,0,1
EndSplineSet
EndChar

StartChar: u0994
Encoding: 2452 2452 1371
GlifName: u0994
Width: 884
VWidth: 0
Flags: W
LayerCount: 2
Fore
SplineSet
285 677 m 257,0,1
 237 674 237 674 223 671 c 257,2,3
 224 671 224 671 219 692 c 128,-1,4
 214 713 214 713 209 734 c 128,-1,5
 204 755 204 755 205 755 c 257,6,7
 209 755 209 755 229 765 c 128,-1,8
 249 775 249 775 277.5 787.5 c 128,-1,9
 306 800 306 800 329 803 c 257,10,11
 435 818 435 818 502.5 747 c 128,-1,12
 570 676 570 676 568 560 c 257,13,14
 567 493 567 493 537 437 c 257,15,16
 613 408 613 408 660 409 c 257,17,18
 690 409 690 409 699 448 c 257,19,20
 717 525 717 525 683 608.5 c 128,-1,21
 649 692 649 692 587 754 c 257,22,23
 563 778 563 778 510.5 791.5 c 128,-1,24
 458 805 458 805 435 829 c 257,25,26
 419 844 419 844 408.5 874 c 128,-1,27
 398 904 398 904 396 927 c 257,28,-1
 394 949 l 257,29,-1
 482 1037 l 257,30,31
 483 1028 483 1028 485 1012.5 c 128,-1,32
 487 997 487 997 498.5 963.5 c 128,-1,33
 510 930 510 930 526 914 c 257,34,35
 548 892 548 892 599.5 880 c 128,-1,36
 651 868 651 868 674 846 c 257,37,-1
 744 775 l 257,38,39
 760 759 760 759 779.5 716.5 c 128,-1,40
 799 674 799 674 814 617.5 c 128,-1,41
 829 561 829 561 835 505.5 c 128,-1,42
 841 450 841 450 825.5 403 c 128,-1,43
 810 356 810 356 771 337 c 257,44,45
 707 307 707 307 648 307 c 257,46,47
 614 307 614 307 559 322 c 257,48,49
 568 289 568 289 568 255 c 257,50,51
 568 148 568 148 492.5 73 c 128,-1,52
 417 -2 417 -2 310 -2 c 257,53,54
 309 -2 309 -2 308 -2 c 2,55,-1
 307 -2 l 257,56,-1
 306 -2 l 257,57,58
 304 -2 304 -2 302 -2 c 257,59,60
 294 -2 294 -2 288 -1 c 257,61,62
 187 5 187 5 117.5 79 c 128,-1,63
 48 153 48 153 48 255 c 257,64,65
 48 337 48 337 94 403 c 257,66,-1
 106 407 l 257,67,68
 207 379 207 379 210 378 c 257,69,70
 223 372 223 372 218 356 c 257,71,72
 202 308 202 308 200 280 c 257,73,74
 199 268 199 268 199 255 c 257,75,76
 199 210 199 210 230 180 c 128,-1,77
 261 150 261 150 308 149 c 257,78,79
 355 150 355 150 386 180 c 128,-1,80
 417 210 417 210 417 255 c 257,81,82
 417 294 417 294 393 323 c 128,-1,83
 369 352 369 352 332 360 c 257,84,-1
 332 359 l 257,85,-1
 308 454 l 257,86,87
 320 454 320 454 332 457 c 257,88,-1
 332 456 l 257,89,90
 369 464 369 464 393 493 c 128,-1,91
 417 522 417 522 417 560 c 257,92,93
 417 618 417 618 381 649 c 128,-1,94
 345 680 345 680 285 677 c 257,0,1
EndSplineSet
EndChar

StartChar: u0995
Encoding: 2453 2453 1375
GlifName: u0995
Width: 1098
VWidth: 0
Flags: W
LayerCount: 2
Fore
SplineSet
1098 798 m 257,0,-1
 1098 666 l 257,1,-1
 670 666 l 257,2,-1
 670 473 l 257,3,4
 722 497 722 497 780 497 c 257,5,6
 888 497 888 497 963 422 c 128,-1,7
 1038 347 1038 347 1038 239 c 257,8,9
 1038 226 1038 226 1037 213 c 257,10,-1
 884 213 l 257,11,12
 888 226 888 226 888 239 c 257,13,14
 888 285 888 285 857 316 c 128,-1,15
 826 347 826 347 780 347 c 257,16,17
 736 347 736 347 705 315.5 c 128,-1,18
 674 284 674 284 674 239 c 257,19,20
 674 226 674 226 678 213 c 257,21,-1
 670 213 l 257,22,-1
 670 -4 l 257,23,-1
 527 -4 l 257,24,-1
 70 269 l 257,25,-1
 70 421 l 257,26,-1
 524 598 l 257,27,-1
 524 666 l 257,28,-1
 0 666 l 257,29,-1
 0 798 l 257,30,-1
 1098 798 l 257,0,-1
525 150 m 257,31,32
 524 447 524 447 524 449 c 257,33,-1
 214 345 l 257,34,-1
 525 150 l 257,31,32
EndSplineSet
EndChar

StartChar: u0996
Encoding: 2454 2454 1379
GlifName: u0996
Width: 674
VWidth: 0
Flags: W
LayerCount: 2
Fore
SplineSet
674 798 m 257,0,-1
 674 666 l 257,1,-1
 600 666 l 257,2,-1
 600 -4 l 257,3,-1
 454 -4 l 257,4,-1
 454 772 l 257,5,-1
 476 772 l 257,6,-1
 476 798 l 257,7,-1
 674 798 l 257,0,-1
270 709 m 257,8,-1
 402 709 l 257,9,-1
 286 439 l 257,10,-1
 285 440 l 257,11,-1
 144 269 l 257,12,-1
 453 155 l 257,13,-1
 453 -3 l 257,14,-1
 0 175 l 257,15,-1
 0 327 l 257,16,-1
 246 557 l 257,17,-1
 257 624 l 257,18,19
 237 567 237 567 187.5 531 c 128,-1,20
 138 495 138 495 76 495 c 257,21,22
 -6 495 -6 495 -62 551.5 c 128,-1,23
 -118 608 -118 608 -118 689 c 257,24,-1
 -118 708 l 257,25,-1
 -2 708 l 257,26,27
 -6 699 -6 699 -6 689 c 257,28,29
 -6 655 -6 655 18 631.5 c 128,-1,30
 42 608 42 608 75.5 608 c 128,-1,31
 109 608 109 608 131.5 631.5 c 128,-1,32
 154 655 154 655 154 689 c 257,33,34
 154 699 154 699 152 708 c 257,35,-1
 268 708 l 257,36,-1
 268 696 l 257,37,-1
 270 709 l 257,8,-1
EndSplineSet
EndChar

StartChar: u0997
Encoding: 2455 2455 1383
GlifName: u0997
Width: 638
VWidth: 0
Flags: W
LayerCount: 2
Fore
SplineSet
19 378 m 257,0,-1
 86 490 l 257,1,2
 93 483 93 483 108 478 c 257,3,4
 148 461 148 461 179.5 465 c 128,-1,5
 211 469 211 469 231 493 c 257,6,7
 254 520 254 520 209 532 c 257,8,9
 197 535 197 535 155 542 c 257,10,11
 89 568 89 568 49 602.5 c 128,-1,12
 9 637 9 637 1 679 c 128,-1,13
 -7 721 -7 721 31 765 c 257,14,15
 78 822 78 822 178 833.5 c 128,-1,16
 278 845 278 845 374 804 c 257,17,18
 382 800 382 800 438 773 c 257,19,-1
 438 845 l 257,20,-1
 590 845 l 257,21,-1
 590 798 l 257,22,-1
 638 798 l 257,23,-1
 638 666 l 257,24,-1
 590 666 l 257,25,-1
 590 -7 l 257,26,-1
 438 -7 l 257,27,-1
 438 608 l 257,28,29
 423 616 423 616 367.5 644.5 c 128,-1,30
 312 673 312 673 307 675 c 257,31,32
 266 691 266 691 246 687 c 128,-1,33
 226 683 226 683 206 659 c 257,34,35
 181 633 181 633 185.5 623.5 c 128,-1,36
 190 614 190 614 237 606 c 257,37,38
 276 589 276 589 305 574.5 c 128,-1,39
 334 560 334 560 360.5 540 c 128,-1,40
 387 520 387 520 398.5 500.5 c 128,-1,41
 410 481 410 481 407.5 456.5 c 128,-1,42
 405 432 405 432 383 406 c 257,43,44
 336 349 336 349 236 336.5 c 128,-1,45
 136 324 136 324 41 365 c 257,46,47
 33 367 33 367 19 378 c 257,0,-1
EndSplineSet
EndChar

StartChar: u0998
Encoding: 2456 2456 1387
GlifName: u0998
Width: 776
VWidth: 0
Flags: W
LayerCount: 2
Fore
SplineSet
86 667 m 257,0,-1
 0 666 l 257,1,-1
 0 798 l 257,2,-1
 776 798 l 257,3,-1
 776 666 l 257,4,-1
 755 666 l 257,5,-1
 755 -5 l 257,6,-1
 365 14 l 257,7,8
 237 14 237 14 146.5 81 c 128,-1,9
 56 148 56 148 56 243 c 128,-1,10
 56 338 56 338 131 405 c 257,11,12
 56 472 56 472 56 567 c 257,13,14
 56 620 56 620 86 667 c 257,0,-1
603 666 m 257,15,-1
 359 662 l 257,16,17
 295 662 295 662 251 634.5 c 128,-1,18
 207 607 207 607 207 567 c 257,19,20
 207 530 207 530 234 503.5 c 128,-1,21
 261 477 261 477 301 473 c 257,22,23
 308 473 308 473 314 473 c 128,-1,24
 320 473 320 473 326 473 c 257,25,26
 333 474 333 474 340 475 c 257,27,-1
 340 472 l 257,28,-1
 340 339 l 257,29,-1
 340 336 l 257,30,31
 333 337 333 337 326 338 c 257,32,33
 320 338 320 338 314 338 c 128,-1,34
 308 338 308 338 301 338 c 257,35,36
 261 334 261 334 234 307 c 128,-1,37
 207 280 207 280 207 243 c 257,38,39
 207 204 207 204 253 176.5 c 128,-1,40
 299 149 299 149 365 149 c 257,41,-1
 606 155 l 257,42,-1
 603 666 l 257,15,-1
EndSplineSet
EndChar

StartChar: u0999
Encoding: 2457 2457 1391
GlifName: u0999
Width: 521
VWidth: 0
Flags: W
LayerCount: 2
Fore
SplineSet
-40 695 m 257,0,-1
 80 791 l 257,1,-1
 262 686 l 257,2,3
 266 732 266 732 300 765 c 128,-1,4
 334 798 334 798 381 802 c 257,5,-1
 388 802 l 257,6,-1
 390 802 l 257,7,-1
 392 802 l 257,8,9
 446 802 446 802 483.5 764.5 c 128,-1,10
 521 727 521 727 521 673 c 257,11,12
 521 641 521 641 482 601.5 c 128,-1,13
 443 562 443 562 405 541 c 257,14,-1
 353 443 l 257,15,16
 390 422 390 422 402.5 415 c 128,-1,17
 415 408 415 408 445 386.5 c 128,-1,18
 475 365 475 365 486.5 349.5 c 128,-1,19
 498 334 498 334 509.5 308.5 c 128,-1,20
 521 283 521 283 520 255 c 257,21,22
 517 146 517 146 442 72 c 128,-1,23
 367 -2 367 -2 259 -2 c 257,24,25
 197 -2 197 -2 148 20 c 128,-1,26
 99 42 99 42 68.5 79 c 128,-1,27
 38 116 38 116 22 161.5 c 128,-1,28
 6 207 6 207 6 256 c 257,29,-1
 151 256 l 257,30,-1
 151 255 l 257,31,32
 151 210 151 210 182 180 c 128,-1,33
 213 150 213 150 260 149 c 257,34,35
 307 150 307 150 338 180 c 128,-1,36
 369 210 369 210 369 255 c 257,37,38
 369 297 369 297 342.5 326.5 c 128,-1,39
 316 356 316 356 274 361 c 257,40,-1
 259 361 l 257,41,-1
 268 513 l 257,42,-1
 268 513 l 257,43,-1
 277 539 l 257,44,-1
 271 562 l 257,45,46
 256 570 256 570 244 582 c 257,47,-1
 -40 695 l 257,0,-1
379 725 m 257,48,-1
 379 726 l 256,49,-1
 379 726 l 257,50,51
 360 722 360 722 348.5 707.5 c 128,-1,52
 337 693 337 693 337 673 c 257,53,54
 337 645 337 645 358 630 c 257,55,-1
 367 625 l 257,56,57
 373 622 373 622 379 621 c 257,58,-1
 379 622 l 257,59,60
 387 620 387 620 391 620 c 128,-1,61
 395 620 395 620 403 622 c 257,62,-1
 403 621 l 257,63,64
 422 625 422 625 433.5 639.5 c 128,-1,65
 445 654 445 654 445 673 c 257,66,67
 445 693 445 693 433.5 707.5 c 128,-1,68
 422 722 422 722 403 726 c 257,69,-1
 403 725 l 257,70,71
 395 727 395 727 391 727 c 128,-1,72
 387 727 387 727 379 725 c 257,48,-1
  PathStart: -2
EndSplineSet
EndChar

StartChar: u099A
Encoding: 2458 2458 1395
GlifName: u099A_
Width: 530
VWidth: 0
Flags: W
LayerCount: 2
Fore
SplineSet
202 153 m 257,0,1
 214 150 214 150 226 150 c 257,2,3
 271 150 271 150 302 180.5 c 128,-1,4
 333 211 333 211 333 256 c 257,5,6
 333 301 333 301 302 332 c 128,-1,7
 271 363 271 363 226 363 c 257,8,9
 214 363 214 363 202 360 c 257,10,-1
 202 153 l 257,0,1
530 798 m 257,11,-1
 530 666 l 257,12,-1
 202 666 l 257,13,-1
 202 513 l 257,14,15
 210 514 210 514 226 514 c 257,16,17
 333 514 333 514 408.5 438.5 c 128,-1,18
 484 363 484 363 484 256 c 257,19,20
 484 149 484 149 408.5 74 c 128,-1,21
 333 -1 333 -1 226 -1 c 257,22,-1
 220 -1.5 l 2,23,24
 214 -2 214 -2 207.5 -2 c 128,-1,25
 201 -2 201 -2 190.5 -1.5 c 128,-1,26
 180 -1 180 -1 170 -0.5 c 128,-1,27
 160 0 160 0 148.5 2 c 128,-1,28
 137 4 137 4 127 7 c 128,-1,29
 117 10 117 10 107 15 c 128,-1,30
 97 20 97 20 89 27 c 257,31,32
 72 41 72 41 62.5 71 c 128,-1,33
 53 101 53 101 51 124 c 257,34,-1
 50 148 l 257,35,-1
 50 666 l 257,36,-1
 0 666 l 257,37,-1
 0 798 l 257,38,-1
 530 798 l 257,11,-1
EndSplineSet
EndChar

StartChar: u099B
Encoding: 2459 2459 1399
GlifName: u099B_
Width: 726
VWidth: 0
Flags: W
LayerCount: 2
Fore
SplineSet
726 798 m 257,0,-1
 726 666 l 257,1,-1
 215 666 l 257,2,-1
 215 566 l 257,3,4
 221 567 221 567 234 567 c 257,5,6
 285 567 285 567 329.5 544 c 128,-1,7
 374 521 374 521 402 481 c 257,8,9
 419 483 419 483 436 483 c 257,10,11
 537 483 537 483 609 424 c 128,-1,12
 681 365 681 365 681 282 c 257,13,14
 681 221 681 221 640.5 174 c 128,-1,15
 600 127 600 127 533 105 c 257,16,-1
 709 107 l 257,17,-1
 709 29 l 257,18,-1
 388 26 l 257,19,-1
 389 177 l 257,20,21
 412 170 412 170 436 170 c 257,22,23
 498 170 498 170 540.5 201 c 128,-1,24
 583 232 583 232 583 281 c 257,25,26
 583 330 583 330 540 365.5 c 128,-1,27
 497 401 497 401 437 401 c 257,28,29
 441 381 441 381 441 361 c 257,30,31
 441 276 441 276 380.5 215.5 c 128,-1,32
 320 155 320 155 234 155 c 257,33,34
 221 155 221 155 215 156 c 257,35,-1
 93 156 l 257,36,-1
 93 666 l 257,37,-1
 0 666 l 257,38,-1
 0 798 l 257,39,-1
 726 798 l 257,0,-1
215 278 m 257,40,41
 225 276 225 276 234 276 c 257,42,43
 270 276 270 276 295 300.5 c 128,-1,44
 320 325 320 325 320 361 c 257,45,46
 320 397 320 397 295 421.5 c 128,-1,47
 270 446 270 446 234 446 c 257,48,49
 225 446 225 446 215 444 c 257,50,-1
 215 278 l 257,40,41
EndSplineSet
EndChar

StartChar: u099C
Encoding: 2460 2460 1403
GlifName: u099C_
Width: 996
VWidth: 0
Flags: W
LayerCount: 2
Fore
SplineSet
996 798 m 1,0,-1
 996 666 l 1,1,-1
 441 666 l 1,2,-1
 441 619.611328125 l 1,3,-1
 990.700195312 623.5 l 1,4,-1
 988.299804688 403.700195312 l 1,5,6
 960 412 960 412 929.900390625 411.700195312 c 0,7,8
 852 412 852 412 799.5 373.299804688 c 0,9,10
 747 335 747 335 746.700195312 273.299804688 c 0,11,12
 747 212 747 212 800.299804688 167.700195312 c 0,13,14
 854 124 854 124 929.900390625 123.700195312 c 0,15,16
 960 124 960 124 988.299804688 131.700195312 c 1,17,-1
 988.299804688 25.2998046875 l 1,18,19
 960 21 960 21 929.900390625 20.5 c 0,20,21
 847 21 847 21 776.299804688 54.099609375 c 0,22,23
 706 88 706 88 665.099609375 145.700195312 c 0,24,25
 624 204 624 204 624.299804688 272.5 c 0,26,27
 624 349 624 349 674.700195312 407.299804688 c 0,28,29
 725 466 725 466 808.299804688 493.299804688 c 1,30,-1
 441 491.765625 l 1,31,-1
 441 479 l 1,32,33
 501 445 501 445 536.5 385.5 c 128,-1,34
 572 326 572 326 570 255 c 0,35,36
 567 146 567 146 492 72 c 128,-1,37
 417 -2 417 -2 309 -2 c 0,38,39
 247 -2 247 -2 198 20 c 128,-1,40
 149 42 149 42 118.5 79 c 128,-1,41
 88 116 88 116 72 161.5 c 128,-1,42
 56 207 56 207 56 256 c 1,43,-1
 201 256 l 1,44,-1
 201 255 l 2,45,46
 201 210 201 210 232 180 c 128,-1,47
 263 150 263 150 310 149 c 0,48,49
 357 150 357 150 388 180 c 128,-1,50
 419 210 419 210 419 255 c 0,51,52
 419 297 419 297 392.5 326.5 c 128,-1,53
 366 356 366 356 324 361 c 1,54,-1
 309 361 l 1,55,-1
 309 513 l 1,56,-1
 309 666 l 1,57,-1
 0 666 l 1,58,-1
 0 798 l 1,59,-1
 996 798 l 1,0,-1
EndSplineSet
EndChar

StartChar: u099D
Encoding: 2461 2461 1407
GlifName: u099D_
Width: 944
VWidth: 0
Flags: W
LayerCount: 2
Fore
SplineSet
670 666 m 257,0,-1
 670 279 l 257,1,-1
 673 282 l 257,2,-1
 749 206 l 257,3,-1
 749 666 l 257,4,-1
 670 666 l 257,0,-1
944 798 m 257,5,-1
 944 666 l 257,6,-1
 901 666 l 257,7,-1
 901 -5 l 257,8,-1
 749 -5 l 257,9,-1
 747 -7 l 257,10,-1
 670 70 l 257,11,-1
 670 -4 l 257,12,-1
 526 -4 l 257,13,-1
 526 -5 l 257,14,-1
 70 269 l 257,15,-1
 70 421 l 257,16,-1
 524 598 l 257,17,-1
 524 666 l 257,18,-1
 0 666 l 257,19,-1
 0 798 l 257,20,-1
 944 798 l 257,5,-1
524 148 m 257,21,-1
 524 449 l 257,22,-1
 214 345 l 257,23,-1
 524 148 l 257,21,-1
EndSplineSet
EndChar

StartChar: u099E
Encoding: 2462 2462 1411
GlifName: u099E_
Width: 730
VWidth: 0
Flags: W
LayerCount: 2
Fore
SplineSet
-37 313 m 257,0,-1
 131 313 l 257,1,2
 105 282 105 282 105 243 c 257,3,4
 105 193 105 193 141 161 c 257,5,-1
 408 161 l 257,6,-1
 408 568 l 257,7,8
 376 605 376 605 327 605 c 257,9,10
 287 605 287 605 256 579 c 257,11,-1
 256 747 l 257,12,13
 290 756 290 756 327 756 c 257,14,15
 410 756 410 756 474.5 709 c 128,-1,16
 539 662 539 662 567 586 c 257,17,18
 594 600 594 600 611 602 c 257,19,20
 664 609 664 609 697.5 573.5 c 128,-1,21
 731 538 731 538 730 480 c 257,22,23
 729 437 729 437 705 404 c 257,24,25
 730 370 730 370 730 328 c 257,26,27
 730 274 730 274 692.5 236.5 c 128,-1,28
 655 199 655 199 601 199 c 257,29,-1
 600.5 199 l 2,30,31
 600 199 600 199 599 199 c 257,32,33
 598 199 598 199 597 199 c 257,34,35
 593 199 593 199 590 200 c 257,36,37
 582 200 582 200 574 202 c 257,38,-1
 575 -8 l 257,39,-1
 408 -8 l 257,40,-1
 408 -5 l 257,41,-1
 141 -3 l 257,42,43
 58 21 58 21 5.5 88.5 c 128,-1,44
 -47 156 -47 156 -47 243 c 257,45,46
 -47 280 -47 280 -37 313 c 257,0,-1
573 281 m 257,47,48
 585 275 585 275 600 275 c 257,49,50
 624 275 624 275 639.5 290 c 128,-1,51
 655 305 655 305 655 328 c 257,52,53
 655 347 655 347 643 361.5 c 128,-1,54
 631 376 631 376 612 380 c 257,55,-1
 600 427 l 257,56,57
 606 427 606 427 612 429 c 257,58,-1
 612 428 l 257,59,60
 631 432 631 432 643 446.5 c 128,-1,61
 655 461 655 461 655 480 c 257,62,63
 655 509 655 509 636.5 524.5 c 128,-1,64
 618 540 618 540 589 539 c 257,65,66
 584 539 584 539 572 537 c 257,67,-1
 573 281 l 257,47,48
EndSplineSet
EndChar

StartChar: u099F
Encoding: 2463 2463 1415
GlifName: u099F_
Width: 639
VWidth: 0
Flags: W
LayerCount: 2
Fore
SplineSet
616 179 m 257,0,1
 600 121 600 121 555.5 79.5 c 128,-1,2
 511 38 511 38 455 18.5 c 128,-1,3
 399 -1 399 -1 335 -1.5 c 128,-1,4
 271 -2 271 -2 214.5 17 c 128,-1,5
 158 36 158 36 114 78 c 128,-1,6
 70 120 70 120 53 179 c 257,7,-1
 50 666 l 257,8,-1
 0 666 l 257,9,-1
 0 798 l 257,10,-1
 252 798 l 257,11,-1
 237 813 l 257,12,13
 214 836 214 836 202.5 887 c 128,-1,14
 191 938 191 938 168 961 c 257,15,16
 152 977 152 977 121.5 988 c 128,-1,17
 91 999 91 999 68 1002 c 257,18,-1
 45 1005 l 257,19,-1
 134 1093 l 257,20,21
 143 1092 143 1092 158 1090.5 c 128,-1,22
 173 1089 173 1089 205.5 1078.5 c 128,-1,23
 238 1068 238 1068 254 1052 c 257,24,25
 277 1029 277 1029 291 976 c 128,-1,26
 305 923 305 923 328 900 c 257,27,28
 360 868 360 868 391 837 c 257,29,30
 424 804 424 804 494 798 c 257,31,-1
 639 798 l 257,32,-1
 639 666 l 257,33,-1
 217 666 l 257,34,-1
 217 180 l 257,35,36
 246 147 246 147 335 146.5 c 128,-1,37
 424 146 424 146 452 180 c 257,38,-1
 452 368 l 257,39,-1
 619 368 l 257,40,-1
 616 179 l 257,0,1
EndSplineSet
EndChar

StartChar: u09A0
Encoding: 2464 2464 1419
GlifName: u09A_0
Width: 751
VWidth: 0
Flags: W
LayerCount: 2
Fore
SplineSet
374 531 m 257,0,-1
 374 531 l 257,0,-1
726 798 m 257,1,-1
 726 666 l 257,2,-1
 615 666 l 257,3,4
 699 594 699 594 733 485 c 128,-1,5
 767 376 767 376 737 263 c 257,6,7
 709 160 709 160 636 85.5 c 128,-1,8
 563 11 563 11 464.5 -17 c 128,-1,9
 366 -45 366 -45 266 -18 c 257,10,11
 230 -8 230 -8 197 8 c 257,12,-1
 237 156 l 257,13,-1
 233 163 l 257,14,15
 236 164 236 164 239 165 c 257,16,-1
 240 168 l 257,17,18
 242 167 242 167 243 166 c 257,19,20
 250 169 250 169 257 173 c 257,21,22
 281 187 281 187 284.5 295 c 128,-1,23
 288 403 288 403 276 513.5 c 128,-1,24
 264 624 264 624 249 650 c 257,25,26
 244 659 244 659 238 666 c 257,27,-1
 0 666 l 257,28,-1
 0 798 l 257,29,-1
 252 798 l 257,30,-1
 237 813 l 257,31,32
 214 836 214 836 202.5 887 c 128,-1,33
 191 938 191 938 168 961 c 257,34,35
 152 977 152 977 121.5 988 c 128,-1,36
 91 999 91 999 68 1002 c 257,37,-1
 45 1005 l 257,38,-1
 134 1093 l 257,39,40
 143 1092 143 1092 158 1090.5 c 128,-1,41
 173 1089 173 1089 205.5 1078.5 c 128,-1,42
 238 1068 238 1068 254 1052 c 257,43,44
 277 1029 277 1029 291 976 c 128,-1,45
 305 923 305 923 328 900 c 257,46,47
 360 868 360 868 391 837 c 257,48,49
 424 804 424 804 494 798 c 257,50,-1
 726 798 l 257,1,-1
386 611 m 257,51,52
 401 582 401 582 415 514 c 128,-1,53
 429 446 429 446 437.5 372.5 c 128,-1,54
 446 299 446 299 444.5 232 c 128,-1,55
 443 165 443 165 429 139 c 257,56,57
 486 156 486 156 529.5 199.5 c 128,-1,58
 573 243 573 243 589 304 c 257,59,60
 602 353 602 353 548.5 471.5 c 128,-1,61
 495 590 495 590 452 647 c 257,62,-1
 386 611 l 257,51,52
EndSplineSet
EndChar

StartChar: u09A1
Encoding: 2465 2465 1423
GlifName: u09A_1
Width: 616
VWidth: 0
Flags: W
LayerCount: 2
Fore
SplineSet
616 798 m 257,0,-1
 616 666 l 257,1,-1
 441 666 l 257,2,-1
 441 479 l 257,3,4
 501 445 501 445 536.5 385.5 c 128,-1,5
 572 326 572 326 570 255 c 257,6,7
 567 146 567 146 492 72 c 128,-1,8
 417 -2 417 -2 309 -2 c 257,9,10
 247 -2 247 -2 198 20 c 128,-1,11
 149 42 149 42 118.5 79 c 128,-1,12
 88 116 88 116 72 161.5 c 128,-1,13
 56 207 56 207 56 256 c 257,14,-1
 201 256 l 257,15,-1
 201 255 l 257,16,17
 201 210 201 210 232 180 c 128,-1,18
 263 150 263 150 310 149 c 257,19,20
 357 150 357 150 388 180 c 128,-1,21
 419 210 419 210 419 255 c 257,22,23
 419 297 419 297 392.5 326.5 c 128,-1,24
 366 356 366 356 324 361 c 257,25,-1
 309 361 l 257,26,-1
 309 513 l 257,27,-1
 309 513 l 257,28,-1
 309 666 l 257,29,-1
 0 666 l 257,30,-1
 0 798 l 257,31,-1
 616 798 l 257,0,-1
EndSplineSet
EndChar

StartChar: u09A2
Encoding: 2466 2466 1425
GlifName: u09A_2
Width: 639
VWidth: 0
Flags: W
LayerCount: 2
Fore
SplineSet
616 179 m 257,0,1
 600 121 600 121 555.5 79.5 c 128,-1,2
 511 38 511 38 455 18.5 c 128,-1,3
 399 -1 399 -1 335 -1.5 c 128,-1,4
 271 -2 271 -2 214.5 17 c 128,-1,5
 158 36 158 36 114 78 c 128,-1,6
 70 120 70 120 53 179 c 257,7,-1
 50 666 l 257,8,-1
 0 666 l 257,9,-1
 0 798 l 257,10,-1
 639 798 l 257,11,-1
 639 666 l 257,12,-1
 217 666 l 257,13,-1
 217 180 l 257,14,15
 246 147 246 147 335 146.5 c 128,-1,16
 424 146 424 146 452 180 c 257,17,-1
 452 368 l 257,18,-1
 619 368 l 257,19,-1
 616 179 l 257,0,1
EndSplineSet
EndChar

StartChar: u09A3
Encoding: 2467 2467 1429
GlifName: u09A_3
Width: 562
VWidth: 0
Flags: W
LayerCount: 2
Fore
SplineSet
362 845 m 257,0,-1
 514 845 l 257,1,-1
 514 798 l 257,2,-1
 562 798 l 257,3,-1
 562 666 l 257,4,-1
 514 666 l 257,5,-1
 514 518 l 257,6,7
 515 504 515 504 515 489 c 257,8,9
 515 476 515 476 514 463 c 257,10,-1
 514 -7 l 257,11,-1
 362 -7 l 257,12,-1
 362 463 l 257,13,-1
 361 463 l 257,14,15
 361 465 361 465 362 466 c 257,16,-1
 362 513 l 257,17,18
 354 550 354 550 325 573.5 c 128,-1,19
 296 597 296 597 257 597 c 257,20,21
 213 597 213 597 182 565.5 c 128,-1,22
 151 534 151 534 151 489 c 257,23,24
 151 476 151 476 154 463 c 257,25,-1
 1 463 l 257,26,27
 0 476 0 476 0 489 c 257,28,29
 0 597 0 597 75 672 c 128,-1,30
 150 747 150 747 257 747 c 257,31,32
 312 747 312 747 362 726 c 257,33,-1
 362 845 l 257,0,-1
EndSplineSet
EndChar

StartChar: u09A5
Encoding: 2469 2469 1433
GlifName: u09A_5
Width: 635
VWidth: 0
Flags: W
LayerCount: 2
Fore
SplineSet
86 761 m 257,0,1
 97 763 97 763 105 763 c 257,2,3
 165 762 165 762 225.5 740.5 c 128,-1,4
 286 719 286 719 331 674.5 c 128,-1,5
 376 630 376 630 380 574 c 257,6,7
 382 536 382 536 368 501.5 c 128,-1,8
 354 467 354 467 332.5 442 c 128,-1,9
 311 417 311 417 276.5 390.5 c 128,-1,10
 242 364 242 364 214.5 348.5 c 128,-1,11
 187 333 187 333 148.5 311 c 128,-1,12
 110 289 110 289 92 278 c 257,13,-1
 436 162 l 257,14,-1
 436 666 l 257,15,-1
 436 772 l 257,16,-1
 436 798 l 257,17,-1
 635 798 l 257,18,-1
 635 666 l 257,19,-1
 582 666 l 257,20,-1
 582 -4 l 257,21,-1
 436 -4 l 257,22,-1
 436 11 l 257,23,-1
 0 192 l 257,24,-1
 0 344 l 257,25,26
 141 441 141 441 223 513 c 257,27,28
 232 521 232 521 241.5 536 c 128,-1,29
 251 551 251 551 256 563 c 257,30,-1
 261 574 l 257,31,32
 261 596 261 596 231.5 612 c 128,-1,33
 202 628 202 628 168.5 635 c 128,-1,34
 135 642 135 642 107 642 c 257,35,36
 97 642 97 642 86 639 c 257,37,-1
 86 761 l 257,0,1
EndSplineSet
EndChar

StartChar: u09A6
Encoding: 2470 2470 1437
GlifName: u09A_6
Width: 726
VWidth: 0
Flags: W
LayerCount: 2
Fore
SplineSet
662 577 m 257,0,-1
 662 -3 l 257,1,-1
 510 -3 l 257,2,-1
 510 395 l 257,3,-1
 244 109 l 257,4,-1
 92 109 l 257,5,-1
 91 666 l 257,6,-1
 0 666 l 257,7,-1
 0 798 l 257,8,-1
 726 798 l 257,9,-1
 726 666 l 257,10,-1
 243 666 l 257,11,-1
 244 291 l 257,12,-1
 510 577 l 257,13,-1
 662 577 l 257,0,-1
EndSplineSet
EndChar

StartChar: u09A7
Encoding: 2471 2471 1441
GlifName: u09A_7
Width: 652
VWidth: 0
Flags: W
LayerCount: 2
Fore
SplineSet
652 798 m 257,0,-1
 652 666 l 257,1,-1
 600 666 l 257,2,-1
 600 -4 l 257,3,-1
 454 -4 l 257,4,-1
 454 -2 l 257,5,-1
 0 269 l 257,6,-1
 0 421 l 257,7,-1
 139 475 l 257,8,9
 92 529 92 529 92 601 c 257,10,11
 92 681 92 681 148.5 738 c 128,-1,12
 205 795 205 795 286 795 c 257,13,-1
 305 795 l 257,14,-1
 305 679 l 257,15,16
 296 681 296 681 286 681 c 257,17,18
 252 681 252 681 228.5 657.5 c 128,-1,19
 205 634 205 634 205 601 c 257,20,21
 205 573 205 573 221.5 552 c 128,-1,22
 238 531 238 531 265 524 c 257,23,-1
 454 598 l 257,24,-1
 454 772 l 257,25,-1
 454 798 l 257,26,-1
 652 798 l 257,0,-1
454 150 m 257,27,-1
 454 449 l 257,28,-1
 144 345 l 257,29,-1
 454 150 l 257,27,-1
EndSplineSet
EndChar

StartChar: u09A8
Encoding: 2472 2472 1445
GlifName: u09A_8
Width: 661
VWidth: 0
Flags: W
LayerCount: 2
Fore
SplineSet
661 798 m 257,0,-1
 661 666 l 257,1,-1
 616 666 l 257,2,-1
 616 118 l 257,3,4
 622 92 622 92 622 65 c 257,5,6
 622 51 622 51 620 39 c 257,7,-1
 616 39 l 257,8,-1
 616 -7 l 257,9,-1
 464 -7 l 257,10,-1
 464 102 l 257,11,12
 453 133 453 133 425.5 152 c 128,-1,13
 398 171 398 171 364 171 c 257,14,15
 319 171 319 171 288.5 140 c 128,-1,16
 258 109 258 109 258 65 c 257,17,18
 258 51 258 51 261 39 c 257,19,-1
 108 39 l 257,20,21
 106 51 106 51 106 65 c 257,22,23
 106 172 106 172 181.5 247.5 c 128,-1,24
 257 323 257 323 364 323 c 257,25,26
 416 323 416 323 464 302 c 257,27,-1
 464 666 l 257,28,-1
 0 666 l 257,29,-1
 0 798 l 257,30,-1
 464 798 l 257,31,-1
 616 798 l 257,32,-1
 661 798 l 257,0,-1
EndSplineSet
EndChar

StartChar: u09AA
Encoding: 2474 2474 1449
GlifName: u09A_A_
Width: 569
VWidth: 0
Flags: W
LayerCount: 2
Fore
SplineSet
175 571 m 257,0,1
 188 609 188 609 217 636.5 c 128,-1,2
 246 664 246 664 284 675 c 257,3,4
 252 693 252 693 213 692.5 c 128,-1,5
 174 692 174 692 140 672 c 257,6,7
 77 636 77 636 67 565 c 257,8,-1
 175 571 l 257,0,1
302 360 m 257,9,10
 294 362 294 362 286 364 c 257,11,12
 279 366 279 366 272 369.5 c 128,-1,13
 265 373 265 373 258.5 378.5 c 128,-1,14
 252 384 252 384 247 388.5 c 128,-1,15
 242 393 242 393 236 401 c 128,-1,16
 230 409 230 409 226.5 413.5 c 128,-1,17
 223 418 223 418 217 428.5 c 128,-1,18
 211 439 211 439 208.5 442.5 c 128,-1,19
 206 446 206 446 200.5 456.5 c 128,-1,20
 195 467 195 467 194 469 c 257,21,-1
 93 462 l 257,22,23
 102 450 102 450 114 439 c 257,24,-1
 26 389 l 257,25,26
 11 406 11 406 -1 426 c 257,27,28
 -50 512 -50 512 -22.5 608.5 c 128,-1,29
 5 705 5 705 93 756 c 257,30,31
 162 794 162 794 237 788.5 c 128,-1,32
 312 783 312 783 369 737 c 257,33,-1
 369 840 l 257,34,-1
 521 840 l 257,35,-1
 521 796 l 257,36,-1
 569 796 l 257,37,-1
 569 664 l 257,38,-1
 521 664 l 257,39,-1
 521 -9 l 257,40,-1
 369 -9 l 257,41,-1
 369 482 l 257,42,-1
 367 480 l 257,43,-1
 368 586 l 257,44,-1
 361 582 l 257,45,-1
 360 578 l 257,46,47
 358 578 358 578 356 579 c 257,48,-1
 354 578 l 257,49,50
 354 579 354 579 354 580 c 257,51,52
 349 582 349 582 345 584 c 257,53,54
 318 591 318 591 294 577.5 c 128,-1,55
 270 564 270 564 263 536 c 257,56,57
 256 510 256 510 269.5 486 c 128,-1,58
 283 462 283 462 310 455 c 257,59,60
 318 453 318 453 326 453 c 257,61,-1
 302 360 l 257,9,10
175 571 m 257,62,-1
 175 571 l 257,62,-1
EndSplineSet
EndChar

StartChar: u09AB
Encoding: 2475 2475 1453
GlifName: u09A_B_
Width: 1167
VWidth: 0
Flags: W
LayerCount: 2
Fore
SplineSet
77 175 m 257,0,-1
 108 322 l 257,1,-1
 379 482 l 257,2,-1
 118 666 l 257,3,-1
 0 666 l 257,4,-1
 0 798 l 257,5,-1
 1167 798 l 257,6,-1
 1167 666 l 257,7,-1
 357 666 l 257,8,-1
 540 564 l 257,9,-1
 509 417 l 257,10,-1
 302 257 l 257,11,-1
 644 152 l 257,12,-1
 644 318 l 257,13,-1
 645 318 l 257,14,15
 646 424 646 424 721 498.5 c 128,-1,16
 796 573 796 573 902 573 c 257,17,18
 1009 573 1009 573 1084.5 498 c 128,-1,19
 1160 423 1160 423 1160 315 c 257,20,21
 1160 302 1160 302 1158 289 c 257,22,-1
 1005 289 l 257,23,24
 1008 302 1008 302 1008 315 c 257,25,26
 1008 361 1008 361 977 392 c 128,-1,27
 946 423 946 423 902 423 c 257,28,29
 858 423 858 423 827 392.5 c 128,-1,30
 796 362 796 362 796 318 c 257,31,-1
 796 305 l 257,32,33
 797 297 797 297 799 289 c 257,34,-1
 796 289 l 257,35,-1
 796 -7 l 257,36,-1
 644 -7 l 257,37,-1
 644 -5 l 257,38,-1
 77 175 l 257,0,-1
EndSplineSet
EndChar

StartChar: u09AC
Encoding: 2476 2476 1457
GlifName: u09A_C_
Width: 723
VWidth: 0
Flags: W
LayerCount: 2
Fore
SplineSet
723 798 m 257,0,-1
 723 666 l 257,1,-1
 670 666 l 257,2,-1
 670 -4 l 257,3,-1
 524 -4 l 257,4,-1
 524 -2 l 257,5,-1
 70 269 l 257,6,-1
 70 421 l 257,7,-1
 524 598 l 257,8,-1
 524 666 l 257,9,-1
 0 666 l 257,10,-1
 0 798 l 257,11,-1
 723 798 l 257,0,-1
524 150 m 257,12,-1
 524 449 l 257,13,-1
 214 345 l 257,14,-1
 524 150 l 257,12,-1
EndSplineSet
EndChar

StartChar: u09AD
Encoding: 2477 2477 1461
GlifName: u09A_D_
Width: 726
VWidth: 0
Flags: W
LayerCount: 2
Fore
SplineSet
726 798 m 257,0,-1
 726 666 l 257,1,-1
 0 666 l 257,2,-1
 0 798 l 257,3,-1
 726 798 l 257,0,-1
395 612 m 257,4,-1
 396 629 l 257,5,6
 397 629 397 629 398 629 c 257,7,8
 450 629 450 629 498 612 c 257,9,-1
 509 612 l 257,10,-1
 509 608 l 257,11,12
 596 573 596 573 650 493.5 c 128,-1,13
 704 414 704 414 704 315 c 257,14,15
 704 184 704 184 614.5 92 c 128,-1,16
 525 0 525 0 398 0 c 128,-1,17
 271 0 271 0 181.5 92 c 128,-1,18
 92 184 92 184 92 315 c 257,19,-1
 148 320.5 l 2,20,21
 204 326 204 326 204 327 c 257,22,23
 204 324 204 324 204 321 c 257,24,25
 204 243 204 243 257.5 188 c 128,-1,26
 311 133 311 133 387 133 c 128,-1,27
 463 133 463 133 516.5 188 c 128,-1,28
 570 243 570 243 570 321 c 257,29,30
 570 373 570 373 544.5 416.5 c 128,-1,31
 519 460 519 460 477 485 c 257,32,33
 450 445 450 445 408 422 c 128,-1,34
 366 399 366 399 317 399 c 257,35,36
 236 399 236 399 179.5 455.5 c 128,-1,37
 123 512 123 512 123 593 c 257,38,-1
 123 612 l 257,39,-1
 239 612 l 257,40,41
 236 603 236 603 236 593 c 257,42,43
 236 559 236 559 259.5 535.5 c 128,-1,44
 283 512 283 512 317 512 c 257,45,46
 344 512 344 512 365 528 c 128,-1,47
 386 544 386 544 393 570 c 257,48,-1
 395 605 l 257,49,50
 394 609 394 609 393 612 c 257,51,-1
 395 612 l 257,4,-1
EndSplineSet
EndChar

StartChar: u09AE
Encoding: 2478 2478 1465
GlifName: u09A_E_
Width: 776
VWidth: 0
Flags: W
LayerCount: 2
Fore
SplineSet
313 441 m 257,0,-1
 313 441 l 257,0,-1
776 798 m 257,1,-1
 776 666 l 257,2,-1
 755 666 l 257,3,-1
 755 -5 l 257,4,-1
 603 -5 l 257,5,-1
 601 -7 l 257,6,-1
 485 109 l 257,7,8
 450 58 450 58 394 28 c 128,-1,9
 338 -2 338 -2 273 -2 c 257,10,11
 272 -2 272 -2 271 -2 c 2,12,-1
 270 -2 l 257,13,-1
 269 -2 l 257,14,15
 267 -2 267 -2 265 -2 c 257,16,17
 257 -2 257 -2 251 -1 c 257,18,19
 150 5 150 5 80.5 79 c 128,-1,20
 11 153 11 153 11 255 c 257,21,22
 11 314 11 314 35.5 365 c 128,-1,23
 60 416 60 416 103 453 c 257,24,25
 33 553 33 553 97 666 c 257,26,-1
 0 666 l 257,27,-1
 0 798 l 257,28,-1
 776 798 l 257,1,-1
271 362 m 257,29,30
 258 362 258 362 247 359 c 257,31,-1
 247 360 l 257,32,33
 210 352 210 352 186 323 c 128,-1,34
 162 294 162 294 162 255 c 257,35,36
 162 217 162 217 186 188 c 128,-1,37
 210 159 210 159 247 151 c 257,38,-1
 247 152 l 257,39,40
 258 149 258 149 271 149 c 257,41,42
 283 149 283 149 295 152 c 257,43,-1
 295 151 l 257,44,45
 332 159 332 159 356 188 c 128,-1,46
 380 217 380 217 380 255 c 257,47,48
 380 294 380 294 356 323 c 128,-1,49
 332 352 332 352 295 360 c 257,50,-1
 295 359 l 257,51,52
 283 362 283 362 271 362 c 257,29,30
603 190 m 257,53,-1
 603 666 l 257,54,-1
 356 666 l 257,55,56
 346 659 346 659 342 661 c 257,57,58
 337 664 337 664 331 666 c 257,59,-1
 292 666 l 257,60,61
 266 655 266 655 232 598 c 257,62,63
 208 557 208 557 227 510 c 257,64,65
 239 512 239 512 251 512 c 257,66,67
 257 513 257 513 265 513 c 257,68,69
 267 513 267 513 269 513 c 257,70,-1
 270 513 l 257,71,72
 271 513 271 513 273 513 c 257,73,74
 380 513 380 513 455.5 437.5 c 128,-1,75
 531 362 531 362 531 255 c 257,76,77
 531 253 531 253 531 251 c 257,78,-1
 603 190 l 257,53,-1
EndSplineSet
EndChar

StartChar: u09AF
Encoding: 2479 2479 1469
GlifName: u09A_F_
Width: 841
VWidth: 0
Flags: W
LayerCount: 2
Fore
SplineSet
77 175 m 257,0,-1
 108 322 l 257,1,-1
 379 482 l 257,2,-1
 118 666 l 257,3,-1
 0 666 l 257,4,-1
 0 798 l 257,5,-1
 644 798 l 257,6,-1
 796 798 l 257,7,-1
 841 798 l 257,8,-1
 841 666 l 257,9,-1
 796 666 l 257,10,-1
 796 -7 l 257,11,-1
 644 -7 l 257,12,-1
 644 -5 l 257,13,-1
 77 175 l 257,0,-1
644 152 m 257,14,-1
 644 666 l 257,15,-1
 357 666 l 257,16,-1
 540 564 l 257,17,-1
 509 417 l 257,18,-1
 302 257 l 257,19,-1
 644 152 l 257,14,-1
EndSplineSet
EndChar

StartChar: u09B0
Encoding: 2480 2480 1473
GlifName: u09B_0
Width: 723
VWidth: 0
Flags: W
LayerCount: 2
Fore
SplineSet
723 798 m 257,0,-1
 723 666 l 257,1,-1
 670 666 l 257,2,-1
 670 -4 l 257,3,-1
 523 -4 l 257,4,-1
 523 -2 l 257,5,-1
 70 269 l 257,6,-1
 70 421 l 257,7,-1
 524 598 l 257,8,-1
 524 666 l 257,9,-1
 0 666 l 257,10,-1
 0 798 l 257,11,-1
 723 798 l 257,0,-1
94 -7 m 257,12,-1
 94 135 l 257,13,-1
 246 135 l 257,14,-1
 246 -7 l 257,15,-1
 94 -7 l 257,12,-1
523 150 m 257,16,-1
 523 449 l 257,17,-1
 214 345 l 257,18,-1
 523 150 l 257,16,-1
EndSplineSet
EndChar

StartChar: u09B2
Encoding: 2482 2482 1477
GlifName: u09B_2
Width: 943
VWidth: 0
Flags: W
LayerCount: 2
Fore
SplineSet
943 798 m 257,0,-1
 943 666 l 257,1,-1
 895 666 l 257,2,-1
 895 42 l 257,3,4
 895 40 895 40 895 39 c 257,5,-1
 895 -7 l 257,6,-1
 743 -7 l 257,7,-1
 743 39 l 257,8,-1
 742 39 l 257,9,10
 743 40 743 40 743 41 c 257,11,-1
 743 88 l 257,12,13
 735 125 735 125 706 148 c 128,-1,14
 677 171 677 171 638 171 c 257,15,16
 600 171 600 171 571 147.5 c 128,-1,17
 542 124 542 124 535 87 c 257,18,19
 536 74 536 74 536 61 c 257,20,21
 536 51 536 51 535 40 c 257,22,23
 535 39 535 39 536 39 c 257,24,-1
 535 39 l 257,25,26
 535 37 535 37 535 35 c 257,27,-1
 382 35 l 257,28,29
 382 37 382 37 383 39 c 257,30,31
 382 52 382 52 382 65 c 257,32,33
 382 75 382 75 382 86 c 257,34,35
 374 122 374 122 345 145 c 128,-1,36
 316 168 316 168 278 168 c 257,37,38
 234 168 234 168 203 137 c 128,-1,39
 172 106 172 106 172 61 c 257,40,41
 172 48 172 48 175 35 c 257,42,-1
 22 35 l 257,43,44
 21 48 21 48 21 61 c 257,45,46
 21 168 21 168 96 243.5 c 128,-1,47
 171 319 171 319 278 319 c 257,48,49
 380 319 380 319 454 250 c 257,50,51
 524 323 524 323 626 323 c 257,52,53
 688 323 688 323 743 295 c 257,54,-1
 743 666 l 257,55,-1
 0 666 l 257,56,-1
 0 798 l 257,57,-1
 743 798 l 257,58,-1
 895 798 l 257,59,-1
 943 798 l 257,0,-1
EndSplineSet
EndChar

StartChar: u09B6
Encoding: 2486 2486 1481
GlifName: u09B_6
Width: 592
VWidth: 0
Flags: W
LayerCount: 2
Fore
SplineSet
-50 701 m 257,0,-1
 -31 701 l 257,1,2
 43 701 43 701 98 652.5 c 128,-1,3
 153 604 153 604 162 533 c 257,4,5
 170 604 170 604 225 652.5 c 128,-1,6
 280 701 280 701 354 701 c 257,7,-1
 373 701 l 257,8,-1
 373 696 l 257,9,-1
 392 679 l 257,10,-1
 392 842 l 257,11,-1
 544 842 l 257,12,-1
 544 798 l 257,13,-1
 592 798 l 257,14,-1
 592 666 l 257,15,-1
 544 666 l 257,16,-1
 544 -7 l 257,17,-1
 392 -7 l 257,18,-1
 392 570 l 257,19,-1
 373 589 l 257,20,-1
 373 585 l 257,21,22
 364 587 364 587 354 587 c 257,23,24
 320 587 320 587 296.5 564.5 c 128,-1,25
 273 542 273 542 273 508.5 c 128,-1,26
 273 475 273 475 296.5 451 c 128,-1,27
 320 427 320 427 354 427 c 257,28,29
 364 427 364 427 373 431 c 257,30,-1
 373 315 l 257,31,-1
 354 315 l 257,32,33
 280 315 280 315 225 363 c 128,-1,34
 170 411 170 411 162 484 c 257,35,36
 153 411 153 411 98 363 c 128,-1,37
 43 315 43 315 -31 315 c 257,38,-1
 -50 315 l 257,39,-1
 -50 431 l 257,40,41
 -41 427 -41 427 -31 427 c 257,42,43
 3 427 3 427 26.5 451 c 128,-1,44
 50 475 50 475 50 508.5 c 128,-1,45
 50 542 50 542 26.5 564.5 c 128,-1,46
 3 587 3 587 -31 587 c 257,47,48
 -41 587 -41 587 -50 585 c 257,49,-1
 -50 701 l 257,0,-1
EndSplineSet
EndChar

StartChar: u09B7
Encoding: 2487 2487 1485
GlifName: u09B_7
Width: 841
VWidth: 0
Flags: W
LayerCount: 2
Fore
SplineSet
644 666 m 257,0,-1
 357 666 l 257,1,-1
 644 524 l 257,2,-1
 644 666 l 257,0,-1
644 152 m 257,3,-1
 644 377 l 257,4,-1
 512 432 l 257,5,-1
 302 257 l 257,6,-1
 644 152 l 257,3,-1
77 175 m 257,7,-1
 108 322 l 257,8,-1
 379 482 l 257,9,-1
 118 666 l 257,10,-1
 0 666 l 257,11,-1
 0 798 l 257,12,-1
 841 798 l 257,13,-1
 841 666 l 257,14,-1
 796 666 l 257,15,-1
 796 -7 l 257,16,-1
 644 -7 l 257,17,-1
 644 -5 l 257,18,-1
 77 175 l 257,7,-1
EndSplineSet
EndChar

StartChar: u09B8
Encoding: 2488 2488 1489
GlifName: u09B_8
Width: 776
VWidth: 0
Flags: W
LayerCount: 2
Fore
SplineSet
55 90 m 257,0,-1
 130 215 l 257,1,2
 142 205 142 205 152 200 c 257,3,4
 190 178 190 178 232 188.5 c 128,-1,5
 274 199 274 199 297 235 c 257,6,7
 319 274 319 274 294.5 307.5 c 128,-1,8
 270 341 270 341 227 348 c 257,9,10
 179 374 179 374 143.5 407 c 128,-1,11
 108 440 108 440 86.5 480 c 128,-1,12
 65 520 65 520 67 568 c 128,-1,13
 69 616 69 616 98 666 c 257,14,-1
 0 666 l 257,15,-1
 0 798 l 257,16,-1
 776 798 l 257,17,-1
 776 666 l 257,18,-1
 755 666 l 257,19,-1
 755 -5 l 257,20,-1
 603 -5 l 257,21,-1
 601 -7 l 257,22,-1
 429 165 l 257,23,24
 428 164 428 164 427 163 c 257,25,26
 375 75 375 75 272.5 49.5 c 128,-1,27
 170 24 170 24 76 75 c 257,28,29
 73 78 73 78 65.5 82.5 c 128,-1,30
 58 87 58 87 55 90 c 257,0,-1
446 321 m 257,31,-1
 446 323 l 257,32,-1
 603 190 l 257,33,-1
 603 666 l 257,34,-1
 356 666 l 257,35,36
 346 659 346 659 342 661 c 257,37,38
 337 664 337 664 331 666 c 257,39,-1
 292 666 l 257,40,41
 266 655 266 655 232 598 c 257,42,43
 207 557 207 557 227.5 508 c 128,-1,44
 248 459 248 459 296 451 c 257,45,46
 414 388 414 388 446 321 c 257,31,-1
EndSplineSet
EndChar

StartChar: u09B9
Encoding: 2489 2489 1493
GlifName: u09B_9
Width: 689
VWidth: 0
Flags: W
LayerCount: 2
Fore
SplineSet
689 798 m 257,0,-1
 689 666 l 257,1,-1
 0 666 l 257,2,-1
 0 798 l 257,3,-1
 689 798 l 257,0,-1
236 467 m 257,4,-1
 128 573 l 257,5,6
 205 650 205 650 311.5 651 c 128,-1,7
 418 652 418 652 495 575 c 257,8,9
 571 498 571 498 570 392 c 128,-1,10
 569 286 569 286 492 209 c 257,11,12
 455 171 455 171 412 151 c 257,13,-1
 593 -6 l 257,14,-1
 434 -6 l 257,15,-1
 226 148 l 257,16,17
 173 170 173 170 131 212 c 257,18,-1
 233 315 l 257,19,-1
 234 314 l 257,20,21
 266 282 266 282 309 282.5 c 128,-1,22
 352 283 352 283 386 316 c 257,23,24
 419 350 419 350 419.5 393 c 128,-1,25
 420 436 420 436 388 468 c 257,26,27
 356 500 356 500 313 500 c 128,-1,28
 270 500 270 500 236 467 c 257,4,-1
EndSplineSet
EndChar

StartChar: u09BC
Encoding: 2492 2492 1497
GlifName: u09B_C_
Width: 0
VWidth: 0
LayerCount: 2
Fore
SplineSet
-510 -202 m 257,0,-1
 -510 -60 l 257,1,-1
 -358 -60 l 257,2,-1
 -358 -202 l 257,3,-1
 -510 -202 l 257,0,-1
EndSplineSet
EndChar

StartChar: u09BD
Encoding: 2493 2493 1501
GlifName: u09B_D_
Width: 689
VWidth: 0
Flags: W
LayerCount: 2
Fore
SplineSet
199 478 m 257,0,-1
 199 462 l 257,1,-1
 189 470 l 257,2,3
 188 469 188 469 186 467 c 257,4,5
 172 481 172 481 154 498 c 257,6,-1
 -50 666 l 257,7,-1
 -50 798 l 257,8,-1
 158 628 l 257,9,10
 228 661 228 661 307.5 647 c 128,-1,11
 387 633 387 633 445 575 c 257,12,13
 521 498 521 498 520 392 c 128,-1,14
 519 286 519 286 442 209 c 257,15,16
 405 171 405 171 362 151 c 257,17,-1
 543 -6 l 257,18,-1
 384 -6 l 257,19,-1
 176 148 l 257,20,21
 123 170 123 170 81 212 c 257,22,-1
 183 315 l 257,23,-1
 184 314 l 257,24,25
 216 282 216 282 259 282.5 c 128,-1,26
 302 283 302 283 336 316 c 257,27,28
 369 350 369 350 369.5 393 c 128,-1,29
 370 436 370 436 338 468 c 257,30,31
 309 497 309 497 270.5 499.5 c 128,-1,32
 232 502 232 502 199 478 c 257,0,-1
EndSplineSet
EndChar

StartChar: u09BE
Encoding: 2494 2494 1505
GlifName: u09B_E_
Width: 507
VWidth: 0
Flags: W
LayerCount: 2
Fore
SplineSet
307 842 m 257,0,-1
 459 842 l 257,1,-1
 459 798 l 257,2,-1
 507 798 l 257,3,-1
 507 666 l 257,4,-1
 459 666 l 257,5,-1
 459 -7 l 257,6,-1
 307 -7 l 257,7,-1
 307 484 l 257,8,-1
 305 482 l 257,9,-1
 0 780 l 257,10,-1
 201 777 l 257,11,-1
 307 683 l 257,12,-1
 307 842 l 257,0,-1
EndSplineSet
EndChar

StartChar: u09BF
Encoding: 2495 2495 1509
GlifName: u09B_F_
Width: 275
VWidth: 0
Flags: W
LayerCount: 2
Fore
SplineSet
272 798 m 257,0,-1
 272 666 l 257,1,-1
 227 666 l 257,2,-1
 227 -7 l 257,3,-1
 75 -7 l 257,4,-1
 75 666 l 257,5,-1
 0 666 l 257,6,-1
 0 798 l 257,7,-1
 75 798 l 257,8,-1
 77 798 l 257,9,10
 76 809 76 809 76 820 c 257,11,12
 76 927 76 927 151 1002.5 c 128,-1,13
 226 1078 226 1078 333 1078 c 128,-1,14
 440 1078 440 1078 515.5 1002.5 c 128,-1,15
 591 927 591 927 591 820 c 257,16,17
 591 807 591 807 590 794 c 257,18,-1
 437 794 l 257,19,20
 440 807 440 807 440 820 c 257,21,22
 440 865 440 865 409 896 c 128,-1,23
 378 927 378 927 333 927 c 257,24,25
 289 927 289 927 258 896 c 128,-1,26
 227 865 227 865 227 820 c 257,27,28
 227 809 227 809 229 798 c 257,29,-1
 272 798 l 257,0,-1
EndSplineSet
EndChar

StartChar: u09C0
Encoding: 2496 2496 1513
GlifName: u09C_0
Width: 196
VWidth: 0
Flags: W
LayerCount: 2
Fore
SplineSet
196 798 m 257,0,-1
 196 666 l 257,1,-1
 151 666 l 257,2,-1
 151 -7 l 257,3,-1
 -1 -7 l 257,4,-1
 -1 666 l 257,5,-1
 -51 666 l 257,6,-1
 -51 798 l 257,7,-1
 -1 798 l 257,8,-1
 0 798 l 257,9,10
 2 811 2 811 2 827 c 257,11,12
 2 872 2 872 -29 903 c 128,-1,13
 -60 934 -60 934 -105 934 c 257,14,15
 -149 934 -149 934 -180 903 c 128,-1,16
 -211 872 -211 872 -211 827 c 257,17,18
 -211 814 -211 814 -208 801 c 257,19,-1
 -361 801 l 257,20,21
 -362 814 -362 814 -362 827 c 257,22,23
 -362 934 -362 934 -287 1009.5 c 128,-1,24
 -212 1085 -212 1085 -105 1085 c 128,-1,25
 2 1085 2 1085 77.5 1009.5 c 128,-1,26
 153 934 153 934 153 827 c 257,27,28
 153 811 153 811 152 798 c 257,29,-1
 196 798 l 257,0,-1
EndSplineSet
EndChar

StartChar: u09C1
Encoding: 2497 2497 1517
GlifName: u09C_1
Width: 0
VWidth: 0
LayerCount: 2
Fore
SplineSet
-520 -122 m 261,0,1
 -530 -123 -530 -123 -539 -125 c 261,2,-1
 -539 -124 l 261,3,4
 -569 -130 -569 -130 -588 -153.5 c 132,-1,5
 -607 -177 -607 -177 -607 -208 c 261,6,7
 -607 -239 -607 -239 -588 -262 c 132,-1,8
 -569 -285 -569 -285 -539 -291 c 261,9,-1
 -539 -290 l 261,10,11
 -530 -293 -530 -293 -520 -293 c 261,12,13
 -510 -293 -510 -293 -501 -290 c 261,14,-1
 -501 -291 l 261,15,16
 -471 -285 -471 -285 -452 -262 c 132,-1,17
 -433 -239 -433 -239 -433 -208 c 261,18,19
 -433 -177 -433 -177 -452 -153.5 c 132,-1,20
 -471 -130 -471 -130 -501 -124 c 261,21,-1
 -501 -125 l 261,22,23
 -510 -123 -510 -123 -520 -122 c 261,0,1
-522 -414 m 261,24,25
 -523 -414 -523 -414 -524 -414 c 261,26,27
 -531 -414 -531 -414 -536 -413 c 261,28,29
 -617 -408 -617 -408 -672.5 -348.5 c 132,-1,30
 -728 -289 -728 -289 -728 -208 c 261,31,32
 -728 -126 -728 -126 -672.5 -67 c 132,-1,33
 -617 -8 -617 -8 -536 -2 c 261,34,35
 -531 -2 -531 -2 -524 -2 c 261,36,37
 -523 -2 -523 -2 -522 -2 c 261,38,-1
 -521 -2 l 261,39,40
 -520 -2 -520 -2 -518 -2 c 261,41,42
 -454 -2 -454 -2 -402.5 -37 c 132,-1,43
 -351 -72 -351 -72 -327 -129 c 261,44,-1
 0 -1 l 261,45,-1
 0 -123 l 261,46,-1
 -294 -222 l 261,47,-1
 0 -321 l 261,48,-1
 0 -443 l 261,49,-1
 -339 -310 l 261,50,51
 -366 -357 -366 -357 -413.5 -385.5 c 132,-1,52
 -461 -414 -461 -414 -518 -414 c 261,53,54
 -519 -414 -519 -414 -519.5 -414 c 132,-1,55
 -520 -414 -520 -414 -520.5 -414 c 132,-1,56
 -521 -414 -521 -414 -522 -414 c 261,24,25
  PathStart: -2
EndSplineSet
EndChar

StartChar: u09C2
Encoding: 2498 2498 1521
GlifName: u09C_2
Width: 0
VWidth: 0
LayerCount: 2
Fore
SplineSet
-27 11 m 257,0,-1
 353 -183 l 257,1,-1
 292 -289 l 257,2,-1
 51 -166 l 257,3,4
 22 -267 22 -267 -69.5 -318.5 c 128,-1,5
 -161 -370 -161 -370 -262 -343 c 257,6,7
 -366 -315 -366 -315 -419 -223 c 128,-1,8
 -472 -131 -472 -131 -445 -27 c 257,9,10
 -441 -14 -441 -14 -437 -2 c 257,11,-1
 -289 -42 l 257,12,13
 -295 -53 -295 -53 -299 -66 c 257,14,15
 -310 -110 -310 -110 -288 -148 c 128,-1,16
 -266 -186 -266 -186 -223 -197 c 257,17,18
 -180 -209 -180 -209 -142.5 -187 c 128,-1,19
 -105 -165 -105 -165 -93 -121 c 257,20,21
 -89 -108 -89 -108 -89 -95 c 257,22,-1
 -87 -96 l 257,23,-1
 -89 -95 l 257,24,-1
 -27 11 l 257,0,-1
EndSplineSet
EndChar

StartChar: u09C3
Encoding: 2499 2499 1525
GlifName: u09C_3
Width: 0
VWidth: 0
LayerCount: 2
Fore
SplineSet
154 -1 m 257,0,-1
 154 -123 l 257,1,-1
 -139 -222 l 257,2,-1
 154 -321 l 257,3,-1
 154 -443 l 257,4,-1
 -254 -283 l 257,5,-1
 -254 -161 l 257,6,-1
 154 -1 l 257,0,-1
EndSplineSet
EndChar

StartChar: u09C4
Encoding: 2500 2500 1529
GlifName: u09C_4
Width: 0
VWidth: 0
LayerCount: 2
Fore
SplineSet
154 -1 m 257,0,-1
 154 -123 l 257,1,-1
 108 -138 l 257,2,-1
 154 -154 l 257,3,-1
 154 -276 l 257,4,-1
 -55 -193 l 257,5,-1
 -139 -222 l 257,6,-1
 154 -321 l 257,7,-1
 154 -443 l 257,8,-1
 -254 -283 l 257,9,-1
 -254 -161 l 257,10,-1
 -196 -138 l 257,11,-1
 -254 -116 l 257,12,-1
 -254 6 l 257,13,-1
 154 166 l 257,14,-1
 154 44 l 257,15,-1
 -139 -55 l 257,16,-1
 -55 -83 l 257,17,-1
 154 -1 l 257,0,-1
EndSplineSet
EndChar

StartChar: u09C7
Encoding: 2503 2503 1533
GlifName: u09C_7
Width: 621
VWidth: 0
Flags: W
LayerCount: 2
Fore
SplineSet
621 798 m 257,0,-1
 621 666 l 257,1,-1
 454 666 l 257,2,-1
 389 656 l 257,3,4
 335 656 335 656 285.5 603.5 c 128,-1,5
 236 551 236 551 209.5 481 c 128,-1,6
 183 411 183 411 183 351 c 257,7,8
 183 264 183 264 243 202 c 128,-1,9
 303 140 303 140 389 140 c 257,10,11
 423 140 423 140 454 151 c 257,12,-1
 454 5 l 257,13,14
 422 -1 422 -1 389 -1 c 257,15,16
 295 -1 295 -1 216 46 c 128,-1,17
 137 93 137 93 91 175 c 128,-1,18
 45 257 45 257 45 353 c 257,19,20
 45 431 45 431 75 515 c 128,-1,21
 105 599 105 599 157 666 c 257,22,-1
 0 666 l 257,23,-1
 0 798 l 257,24,-1
 621 798 l 257,0,-1
EndSplineSet
EndChar

StartChar: u09C8
Encoding: 2504 2504 1537
GlifName: u09C_8
Width: 621
VWidth: 0
Flags: W
LayerCount: 2
Fore
SplineSet
621 798 m 257,0,-1
 621 666 l 257,1,-1
 454 666 l 257,2,-1
 389 656 l 257,3,4
 335 656 335 656 285.5 603.5 c 128,-1,5
 236 551 236 551 209.5 481 c 128,-1,6
 183 411 183 411 183 351 c 257,7,8
 183 264 183 264 243 202 c 128,-1,9
 303 140 303 140 389 140 c 257,10,11
 423 140 423 140 454 151 c 257,12,-1
 454 5 l 257,13,14
 422 -1 422 -1 389 -1 c 257,15,16
 295 -1 295 -1 216 46 c 128,-1,17
 137 93 137 93 91 175 c 128,-1,18
 45 257 45 257 45 353 c 257,19,20
 45 431 45 431 75 515 c 128,-1,21
 105 599 105 599 157 666 c 257,22,-1
 0 666 l 257,23,-1
 0 798 l 257,24,-1
 333 798 l 257,25,26
 324 844 324 844 300 868 c 257,27,28
 268 899 268 899 237 930 c 257,29,30
 213 954 213 954 160.5 967.5 c 128,-1,31
 108 981 108 981 85 1005 c 257,32,33
 69 1020 69 1020 58.5 1050 c 128,-1,34
 48 1080 48 1080 46 1103 c 257,35,-1
 44 1125 l 257,36,-1
 132 1213 l 257,37,38
 133 1204 133 1204 135 1188.5 c 128,-1,39
 137 1173 137 1173 148.5 1139.5 c 128,-1,40
 160 1106 160 1106 176 1090 c 257,41,42
 198 1068 198 1068 249.5 1056 c 128,-1,43
 301 1044 301 1044 324 1022 c 257,44,-1
 394 951 l 257,45,46
 408 937 408 937 416.5 916.5 c 128,-1,47
 425 896 425 896 427 877 c 128,-1,48
 429 858 429 858 429 841 c 128,-1,49
 429 824 429 824 428 813.5 c 2,50,-1
 427 803 l 257,51,-1
 422 798 l 257,52,-1
 621 798 l 257,0,-1
EndSplineSet
EndChar

StartChar: u09CD
Encoding: 2509 2509 1549
GlifName: u09C_D_
Width: 0
VWidth: 0
LayerCount: 2
Fore
SplineSet
-154 -6 m 257,0,-1
 -10 -191 l 257,1,-1
 -116 -252 l 257,2,-1
 -260 -67 l 257,3,-1
 -154 -6 l 257,0,-1
EndSplineSet
EndChar

StartChar: u09CE
Encoding: 2510 2510 1553
GlifName: u09C_E_
Width: 512
VWidth: 0
Flags: W
LayerCount: 2
Fore
SplineSet
216.447265625 -21 m 257,0,1
 224.447265625 2 224.447265625 2 278.447265625 76 c 128,-1,2
 332.447265625 150 332.447265625 150 323.947265625 193 c 128,-1,3
 315.447265625 236 315.447265625 236 298.447265625 266.5 c 128,-1,4
 281.447265625 297 281.447265625 297 263.447265625 296 c 257,5,6
 208.447265625 309 208.447265625 309 165.947265625 331.5 c 128,-1,7
 123.447265625 354 123.447265625 354 91.447265625 389 c 128,-1,8
 59.447265625 424 59.447265625 424 51.447265625 470 c 128,-1,9
 43.447265625 516 43.447265625 516 57.447265625 576 c 257,10,11
 85.447265625 674 85.447265625 674 178.447265625 725 c 128,-1,12
 271.447265625 776 271.447265625 776 374.447265625 752 c 257,13,14
 378.447265625 750 378.447265625 750 386.947265625 747.5 c 128,-1,15
 395.447265625 745 395.447265625 745 399.447265625 743 c 257,16,-1
 359.447265625 603 l 257,17,18
 344.447265625 609 344.447265625 609 333.447265625 612 c 257,19,20
 291.447265625 622 291.447265625 622 253.447265625 601 c 128,-1,21
 215.447265625 580 215.447265625 580 203.447265625 538 c 257,22,23
 190.447265625 492 190.447265625 492 222.947265625 450.5 c 128,-1,24
 255.447265625 409 255.447265625 409 303.447265625 413 c 257,25,26
 350.447265625 402 350.447265625 402 391.447265625 358.5 c 128,-1,27
 432.447265625 315 432.447265625 315 455.947265625 256 c 128,-1,28
 479.447265625 197 479.447265625 197 429.447265625 99.5 c 128,-1,29
 379.447265625 2 379.447265625 2 361.447265625 -57 c 257,30,-1
 216.447265625 -21 l 257,0,1
EndSplineSet
EndChar

StartChar: u09D7
Encoding: 2519 2519 1557
GlifName: u09D_7
Width: 254
VWidth: 0
Flags: W
LayerCount: 2
Fore
SplineSet
205 798 m 257,0,-1
 205 666 l 257,1,-1
 160 666 l 257,2,-1
 160 -7 l 257,3,-1
 8 -7 l 257,4,-1
 8 666 l 257,5,-1
 -50 666 l 257,6,-1
 -50 798 l 257,7,-1
 8 798 l 257,8,-1
 18 798 l 257,9,10
 9 822 9 822 -6 837 c 257,11,12
 -38 868 -38 868 -69 899 c 257,13,14
 -93 923 -93 923 -145.5 936.5 c 128,-1,15
 -198 950 -198 950 -221 974 c 257,16,17
 -237 989 -237 989 -247.5 1019 c 128,-1,18
 -258 1049 -258 1049 -260 1072 c 257,19,-1
 -262 1094 l 257,20,-1
 -174 1182 l 257,21,22
 -173 1173 -173 1173 -171 1157.5 c 128,-1,23
 -169 1142 -169 1142 -157.5 1108.5 c 128,-1,24
 -146 1075 -146 1075 -130 1059 c 257,25,26
 -108 1037 -108 1037 -56.5 1025 c 128,-1,27
 -5 1013 -5 1013 18 991 c 257,28,-1
 19 989 l 257,29,-1
 20 988 l 257,30,-1
 22 986 l 257,31,-1
 23 985 l 257,32,-1
 24 984 l 257,33,-1
 26 982 l 257,34,-1
 27 981 l 257,35,-1
 28 980 l 257,36,-1
 30 979 l 257,37,-1
 31 977 l 257,38,-1
 32 976 l 257,39,-1
 33 975 l 257,40,-1
 34 974 l 257,41,-1
 36 972 l 257,42,-1
 37 971 l 257,43,-1
 38 970 l 257,44,-1
 39 969 l 257,45,-1
 40 968 l 257,46,-1
 41 967 l 257,47,-1
 42 966 l 257,48,-1
 43 965 l 257,49,-1
 44 964 l 257,50,-1
 46 963 l 257,51,-1
 47 962 l 257,52,-1
 48 961 l 257,53,-1
 49 960 l 257,54,-1
 50 959 l 257,55,-1
 51 958 l 257,56,-1
 52 957 l 257,57,-1
 53 955 l 257,58,-1
 54 954 l 257,59,-1
 55 953 l 257,60,-1
 56 952 l 257,61,-1
 57 951 l 257,62,-1
 58 951 l 257,63,-1
 58 950 l 257,64,-1
 59 949 l 257,65,-1
 60 948 l 257,66,-1
 61 948 l 257,67,-1
 61 947 l 257,68,-1
 62 946 l 257,69,-1
 63 945 l 257,70,-1
 64 944 l 257,71,-1
 65 944 l 257,72,-1
 65 943 l 257,73,-1
 66 942 l 257,74,-1
 67 941 l 257,75,-1
 68 940 l 257,76,-1
 69 940 l 257,77,-1
 69 939 l 257,78,-1
 70 938 l 257,79,-1
 71 937 l 257,80,-1
 72 936 l 257,81,-1
 73 935 l 257,82,-1
 74 935 l 257,83,-1
 74 934 l 257,84,-1
 75 933 l 257,85,-1
 76 932 l 257,86,-1
 77 931 l 257,87,-1
 78 930 l 257,88,-1
 79 929 l 257,89,-1
 80 928 l 257,90,-1
 81 927 l 257,91,-1
 82 926 l 257,92,-1
 83 925 l 257,93,-1
 84 924 l 257,94,-1
 85 924 l 257,95,-1
 86 923 l 257,96,-1
 87 922 l 257,97,-1
 88 920 l 257,98,99
 126 882 126 882 123 798 c 257,100,-1
 160 798 l 257,101,-1
 205 798 l 257,0,-1
EndSplineSet
EndChar

StartChar: u09E0
Encoding: 2528 2528 1573
GlifName: u09E_0
Width: 1294
VWidth: 0
Flags: W
LayerCount: 2
Fore
SplineSet
872 772 m 257,0,-1
 1018 772 l 257,1,-1
 1018 281 l 257,2,-1
 1092 206 l 257,3,-1
 1094 790 l 257,4,-1
 1294 790 l 257,5,-1
 1294 658 l 257,6,-1
 1244 658 l 257,7,-1
 1244 -5 l 257,8,-1
 1242 -5 l 257,9,-1
 1242 -94 l 257,10,-1
 948 -193 l 257,11,-1
 1242 -292 l 257,12,-1
 1242 -414 l 257,13,-1
 833 -254 l 257,14,-1
 833 -132 l 257,15,-1
 1159 -5 l 257,16,-1
 1093 -5 l 257,17,-1
 1090 -7 l 257,18,-1
 1018 65 l 257,19,-1
 1018 -4 l 257,20,-1
 871 -4 l 257,21,-1
 871 -2 l 257,22,-1
 418 175 l 257,23,-1
 418 327 l 257,24,-1
 665 557 l 257,25,-1
 675 624 l 257,26,27
 655 567 655 567 605.5 531 c 128,-1,28
 556 495 556 495 494 495 c 257,29,30
 449 495 449 495 409.5 514 c 128,-1,31
 370 533 370 533 343 566 c 257,32,33
 316 533 316 533 277 514 c 128,-1,34
 238 495 238 495 194 495 c 257,35,36
 113 495 113 495 56.5 551.5 c 128,-1,37
 0 608 0 608 0 689 c 257,38,-1
 0 708 l 257,39,-1
 116 708 l 257,40,41
 113 699 113 699 113 689 c 257,42,43
 113 655 113 655 136.5 631.5 c 128,-1,44
 160 608 160 608 194 608 c 128,-1,45
 228 608 228 608 250.5 631.5 c 128,-1,46
 273 655 273 655 273 689 c 257,47,48
 273 699 273 699 270 708 c 257,49,-1
 300 708 l 257,50,-1
 386 708 l 257,51,-1
 416 708 l 257,52,53
 413 699 413 699 413 689 c 257,54,55
 413 655 413 655 436.5 631.5 c 128,-1,56
 460 608 460 608 494 608 c 128,-1,57
 528 608 528 608 550.5 631.5 c 128,-1,58
 573 655 573 655 573 689 c 257,59,60
 573 762 573 762 570 771 c 257,61,-1
 872 772 l 257,0,-1
871 155 m 257,62,-1
 871 704 l 257,63,-1
 704 439 l 257,64,-1
 703 440 l 257,65,-1
 562 269 l 257,66,-1
 871 155 l 257,62,-1
EndSplineSet
EndChar

StartChar: u09E1
Encoding: 2529 2529 1577
GlifName: u09E_1
Width: 779
VWidth: 0
Flags: W
LayerCount: 2
Fore
SplineSet
259 -151 m 257,0,1
 259 -146 259 -146 259 -141 c 257,2,3
 259 -98 259 -98 289 -68 c 128,-1,4
 319 -38 319 -38 362 -38 c 257,5,6
 390 -38 390 -38 413.5 -51.5 c 128,-1,7
 437 -65 437 -65 450 -89 c 257,8,9
 463 -38 463 -38 425 0 c 257,10,11
 398 28 398 28 359.5 28.5 c 128,-1,12
 321 29 321 29 294 2 c 257,13,14
 283 -9 283 -9 277 -22 c 257,15,-1
 231 24 l 257,16,17
 239 36 239 36 250 46 c 257,18,19
 294 91 294 91 358.5 90 c 128,-1,20
 423 89 423 89 469 43 c 128,-1,21
 515 -3 515 -3 516 -67.5 c 128,-1,22
 517 -132 517 -132 472 -176 c 257,23,24
 462 -187 462 -187 450 -195 c 257,25,-1
 406 -151 l 257,26,-1
 403 -151 l 257,27,28
 403 -150 403 -150 404 -149 c 257,29,-1
 403 -148 l 257,30,-1
 404 -147 l 257,31,32
 404 -144 404 -144 404 -141 c 257,33,34
 404 -123 404 -123 392 -110.5 c 128,-1,35
 380 -98 380 -98 362 -98 c 257,36,37
 344 -98 344 -98 331.5 -110.5 c 128,-1,38
 319 -123 319 -123 319 -141 c 257,39,40
 319 -146 319 -146 320 -151 c 257,41,-1
 259 -151 l 257,0,1
49 99 m 257,42,43
 48 112 48 112 48 125 c 257,44,45
 48 232 48 232 123 307.5 c 128,-1,46
 198 383 198 383 305 383 c 257,47,48
 375 383 375 383 434 348.5 c 128,-1,49
 493 314 493 314 527 256 c 257,50,51
 541 315 541 315 525 374 c 128,-1,52
 509 433 509 433 464 478 c 257,53,54
 395 547 395 547 299 548.5 c 128,-1,55
 203 550 203 550 136 482 c 257,56,57
 109 456 109 456 93 422 c 257,58,-1
 -22 537 l 257,59,60
 -1 567 -1 567 25 593 c 257,61,62
 98 667 98 667 197.5 692 c 128,-1,63
 297 717 297 717 397.5 689 c 128,-1,64
 498 661 498 661 574 585 c 257,65,66
 649 509 649 509 677 409 c 128,-1,67
 705 309 705 309 680 209.5 c 128,-1,68
 655 110 655 110 581 37 c 257,69,70
 555 11 555 11 525 -10 c 257,71,-1
 416 99 l 257,72,-1
 409 99 l 257,73,74
 409 102 409 102 410 105 c 257,75,-1
 407 108 l 257,76,77
 409 108 409 108 411 109 c 257,78,79
 412 117 412 117 412 125 c 257,80,81
 412 170 412 170 381 201 c 128,-1,82
 350 232 350 232 305 232 c 257,83,84
 261 232 261 232 230 201 c 128,-1,85
 199 170 199 170 199 125 c 257,86,87
 199 112 199 112 202 99 c 257,88,-1
 49 99 l 257,42,43
EndSplineSet
EndChar

StartChar: u09E2
Encoding: 2530 2530 1581
GlifName: u09E_2
Width: 0
VWidth: 0
LayerCount: 2
Fore
SplineSet
-163 -151 m 257,0,1
 -164 -146 -164 -146 -164 -141 c 257,2,3
 -164 -98 -164 -98 -134 -68 c 128,-1,4
 -104 -38 -104 -38 -61 -38 c 257,5,6
 -33 -38 -33 -38 -9.5 -51.5 c 128,-1,7
 14 -65 14 -65 28 -89 c 257,8,9
 40 -38 40 -38 3 0 c 257,10,11
 -25 28 -25 28 -63.5 28.5 c 128,-1,12
 -102 29 -102 29 -129 2 c 257,13,14
 -139 -9 -139 -9 -146 -22 c 257,15,-1
 -192 24 l 257,16,17
 -183 36 -183 36 -173 46 c 257,18,19
 -128 91 -128 91 -64 90 c 128,-1,20
 0 89 0 89 46.5 43 c 128,-1,21
 93 -3 93 -3 93.5 -67.5 c 128,-1,22
 94 -132 94 -132 50 -176 c 257,23,24
 39 -187 39 -187 27 -195 c 257,25,-1
 -16 -151 l 257,26,-1
 -19 -151 l 257,27,28
 -19 -150 -19 -150 -19 -149 c 257,29,-1
 -20 -148 l 257,30,31
 -19 -148 -19 -148 -19 -147 c 257,32,33
 -18 -144 -18 -144 -18 -141 c 257,34,35
 -18 -123 -18 -123 -30.5 -110.5 c 128,-1,36
 -43 -98 -43 -98 -61 -98 c 257,37,38
 -79 -98 -79 -98 -91 -110.5 c 128,-1,39
 -103 -123 -103 -123 -103 -141 c 257,40,41
 -103 -146 -103 -146 -102 -151 c 257,42,-1
 -163 -151 l 257,0,1
EndSplineSet
EndChar

StartChar: u09E3
Encoding: 2531 2531 1585
GlifName: u09E_3
Width: 0
VWidth: 0
LayerCount: 2
Fore
SplineSet
-7 -300 m 257,0,1
 -8 -294 -8 -294 -8 -289 c 257,2,3
 -8 -246 -8 -246 22 -216 c 128,-1,4
 52 -186 52 -186 95 -186 c 257,5,6
 123 -186 123 -186 146.5 -199.5 c 128,-1,7
 170 -213 170 -213 184 -237 c 257,8,9
 196 -186 196 -186 159 -148 c 257,10,11
 131 -120 131 -120 92.5 -119.5 c 128,-1,12
 54 -119 54 -119 27 -146 c 257,13,14
 17 -157 17 -157 10 -170 c 257,15,-1
 -36 -124 l 257,16,17
 -27 -112 -27 -112 -17 -102 c 257,18,19
 28 -57 28 -57 92 -58 c 128,-1,20
 156 -59 156 -59 202.5 -105 c 128,-1,21
 249 -151 249 -151 249.5 -215.5 c 128,-1,22
 250 -280 250 -280 206 -324 c 257,23,24
 195 -335 195 -335 183 -343 c 257,25,-1
 140 -300 l 257,26,-1
 137 -300 l 257,27,28
 137 -298 137 -298 137 -297 c 257,29,-1
 136 -296 l 257,30,31
 137 -296 137 -296 137 -295 c 257,32,33
 138 -292 138 -292 138 -289 c 257,34,35
 138 -271 138 -271 125.5 -258.5 c 128,-1,36
 113 -246 113 -246 95 -246 c 257,37,38
 77 -246 77 -246 65 -258.5 c 128,-1,39
 53 -271 53 -271 53 -289 c 257,40,41
 53 -294 53 -294 54 -300 c 257,42,-1
 -7 -300 l 257,0,1
-192 -164 m 257,43,44
 -193 -158 -193 -158 -193 -153 c 257,45,46
 -193 -110 -193 -110 -163 -80 c 128,-1,47
 -133 -50 -133 -50 -90 -50 c 257,48,49
 -62 -50 -62 -50 -38.5 -63.5 c 128,-1,50
 -15 -77 -15 -77 -1 -101 c 257,51,52
 11 -50 11 -50 -26 -12 c 257,53,54
 -54 16 -54 16 -92.5 16.5 c 128,-1,55
 -131 17 -131 17 -158 -10 c 257,56,57
 -168 -21 -168 -21 -175 -34 c 257,58,-1
 -221 12 l 257,59,60
 -212 24 -212 24 -202 34 c 257,61,62
 -157 79 -157 79 -93 78 c 128,-1,63
 -29 77 -29 77 17.5 31 c 128,-1,64
 64 -15 64 -15 64.5 -79.5 c 128,-1,65
 65 -144 65 -144 21 -188 c 257,66,67
 10 -199 10 -199 -2 -207 c 257,68,-1
 -45 -164 l 257,69,-1
 -48 -164 l 257,70,71
 -48 -162 -48 -162 -48 -161 c 257,72,-1
 -49 -160 l 257,73,74
 -48 -160 -48 -160 -48 -159 c 257,75,76
 -47 -156 -47 -156 -47 -153 c 257,77,78
 -47 -135 -47 -135 -59.5 -122.5 c 128,-1,79
 -72 -110 -72 -110 -90 -110 c 257,80,81
 -108 -110 -108 -110 -120 -122.5 c 128,-1,82
 -132 -135 -132 -135 -132 -153 c 257,83,84
 -132 -158 -132 -158 -131 -164 c 257,85,-1
 -192 -164 l 257,43,44
EndSplineSet
EndChar

StartChar: u09E6
Encoding: 2534 2534 1589
GlifName: u09E_6
Width: 864
VWidth: 0
Flags: W
LayerCount: 2
Fore
SplineSet
616 373 m 257,0,1
 616 460 616 460 562.5 522 c 128,-1,2
 509 584 509 584 432.5 584 c 128,-1,3
 356 584 356 584 302 522 c 128,-1,4
 248 460 248 460 248 373 c 257,5,6
 248 285 248 285 302 223.5 c 128,-1,7
 356 162 356 162 432.5 162 c 128,-1,8
 509 162 509 162 562.5 223.5 c 128,-1,9
 616 285 616 285 616 373 c 257,0,1
738 375 m 257,10,11
 738 278 738 278 697 196.5 c 128,-1,12
 656 115 656 115 586 67.5 c 128,-1,13
 516 20 516 20 432.5 20 c 128,-1,14
 349 20 349 20 278.5 67.5 c 128,-1,15
 208 115 208 115 167 196.5 c 128,-1,16
 126 278 126 278 126 375 c 257,17,18
 126 471 126 471 167 552.5 c 128,-1,19
 208 634 208 634 278.5 681.5 c 128,-1,20
 349 729 349 729 432.5 729 c 128,-1,21
 516 729 516 729 586 681.5 c 128,-1,22
 656 634 656 634 697 552.5 c 128,-1,23
 738 471 738 471 738 375 c 257,10,11
EndSplineSet
EndChar

StartChar: u09E7
Encoding: 2535 2535 1593
GlifName: u09E_7
Width: 555
VWidth: 0
Flags: W
LayerCount: 2
Fore
SplineSet
123 142 m 257,0,1
 218 142 218 142 285 210.5 c 128,-1,2
 352 279 352 279 352 376 c 257,3,4
 352 474 352 474 285 542.5 c 128,-1,5
 218 611 218 611 123 611 c 257,6,7
 85 611 85 611 50 599 c 257,8,-1
 50 761 l 257,9,10
 86 768 86 768 123 768 c 257,11,12
 281 768 281 768 393 652.5 c 128,-1,13
 505 537 505 537 505 374 c 128,-1,14
 505 211 505 211 393 96 c 128,-1,15
 281 -19 281 -19 123 -19 c 257,16,17
 86 -19 86 -19 50 -12 c 257,18,-1
 50 154 l 257,19,20
 85 142 85 142 123 142 c 257,0,1
EndSplineSet
EndChar

StartChar: u09E8
Encoding: 2536 2536 1597
GlifName: u09E_8
Width: 783
VWidth: 0
Flags: W
LayerCount: 2
Fore
SplineSet
45.5 221 m 257,0,-1
 121.5 353 l 257,1,-1
 502.5 441 l 257,2,-1
 130.5 657 l 257,3,-1
 206.5 789 l 257,4,-1
 737.5 481 l 257,5,-1
 661.5 350 l 257,6,-1
 279.5 262 l 257,7,-1
 623.5 63 l 257,8,-1
 547.5 -69 l 257,9,-1
 45.5 221 l 257,0,-1
EndSplineSet
EndChar

StartChar: u09E9
Encoding: 2537 2537 1601
GlifName: u09E_9
Width: 726
VWidth: 0
Flags: W
LayerCount: 2
Fore
SplineSet
355 508 m 257,0,-1
 361 629 l 257,1,2
 362 629 362 629 363 629 c 257,3,4
 490 629 490 629 579.5 537 c 128,-1,5
 669 445 669 445 669 315 c 257,6,7
 669 184 669 184 579.5 92 c 128,-1,8
 490 0 490 0 363 0 c 128,-1,9
 236 0 236 0 146.5 92 c 128,-1,10
 57 184 57 184 57 315 c 257,11,-1
 113 320.5 l 2,12,13
 169 326 169 326 169 327 c 257,14,15
 169 324 169 324 169 321 c 257,16,17
 169 243 169 243 222.5 188 c 128,-1,18
 276 133 276 133 352 133 c 128,-1,19
 428 133 428 133 481.5 188 c 128,-1,20
 535 243 535 243 535 321 c 257,21,22
 535 398 535 398 482.5 452.5 c 128,-1,23
 430 507 430 507 355 508 c 257,0,-1
EndSplineSet
EndChar

StartChar: u09EA
Encoding: 2538 2538 1605
GlifName: u09E_A_
Width: 616
VWidth: 0
Flags: W
LayerCount: 2
Fore
SplineSet
307 -2 m 257,0,-1
 306 -2 l 257,1,2
 305 -2 305 -2 303 -2 c 257,3,4
 296 -2 296 -2 291 -1 c 257,5,6
 201 5 201 5 140 70 c 128,-1,7
 79 135 79 135 79 224 c 257,8,9
 79 257 79 257 106.5 308 c 128,-1,10
 134 359 134 359 160 395 c 257,11,12
 125 443 125 443 125 502 c 257,13,14
 125 574 125 574 174 626 c 128,-1,15
 223 678 223 678 294 683 c 257,16,17
 298 684 298 684 304 684 c 257,18,19
 305 684 305 684 306.5 684 c 128,-1,20
 308 684 308 684 309 684 c 257,21,22
 385 684 385 684 438 631 c 128,-1,23
 491 578 491 578 491 502 c 257,24,25
 491 443 491 443 456 395 c 257,26,27
 482 359 482 359 509.5 308 c 128,-1,28
 537 257 537 257 537 224 c 257,29,30
 537 131 537 131 470.5 64.5 c 128,-1,31
 404 -2 404 -2 310 -2 c 257,32,33
 309 -2 309 -2 308 -2 c 2,34,-1
 307 -2 l 257,0,-1
308 577 m 257,35,36
 299 577 299 577 291 575 c 257,37,-1
 291 576 l 257,38,39
 265 571 265 571 248 550.5 c 128,-1,40
 231 530 231 530 231 502 c 257,41,42
 231 475 231 475 248 454.5 c 128,-1,43
 265 434 265 434 291 429 c 257,44,-1
 291 430 l 257,45,46
 299 428 299 428 308 427 c 257,47,48
 317 428 317 428 325 430 c 257,49,-1
 325 429 l 257,50,51
 351 434 351 434 368 454.5 c 128,-1,52
 385 475 385 475 385 502 c 257,53,54
 385 530 385 530 368 550.5 c 128,-1,55
 351 571 351 571 325 576 c 257,56,-1
 325 575 l 257,57,58
 317 577 317 577 308 577 c 257,35,36
308 319 m 257,59,60
 297 318 297 318 287 316 c 257,61,-1
 287 317 l 257,62,63
 254 310 254 310 233 284.5 c 128,-1,64
 212 259 212 259 212 224 c 257,65,66
 212 191 212 191 233 165.5 c 128,-1,67
 254 140 254 140 287 133 c 257,68,-1
 287 134 l 257,69,70
 297 131 297 131 308 131 c 257,71,72
 319 131 319 131 329 134 c 257,73,-1
 329 133 l 257,74,75
 362 140 362 140 383 165.5 c 128,-1,76
 404 191 404 191 404 224 c 257,77,78
 404 259 404 259 383 284.5 c 128,-1,79
 362 310 362 310 329 317 c 257,80,-1
 329 316 l 257,81,82
 319 318 319 318 308 319 c 257,59,60
EndSplineSet
EndChar

StartChar: u09EB
Encoding: 2539 2539 1609
GlifName: u09E_B_
Width: 779
VWidth: 0
Flags: W
LayerCount: 2
Fore
SplineSet
357.723632812 379 m 257,0,-1
 356.723632812 380 l 257,1,-1
 357.723632812 379 l 257,0,-1
738.723632812 474 m 257,2,-1
 661.723632812 342 l 257,3,4
 652.723632812 351 652.723632812 351 640.723632812 358 c 257,5,6
 601.723632812 380 601.723632812 380 559.723632812 369 c 128,-1,7
 517.723632812 358 517.723632812 358 494.723632812 319 c 257,8,9
 472.723632812 280 472.723632812 280 484.223632812 238 c 128,-1,10
 495.723632812 196 495.723632812 196 534.723632812 173 c 257,11,12
 540.723632812 169 540.723632812 169 548.723632812 166 c 257,13,14
 549.723632812 167 549.723632812 167 551.723632812 168 c 257,15,-1
 552.723632812 165 l 257,16,17
 555.723632812 164 555.723632812 164 558.723632812 163 c 257,18,-1
 554.723632812 156 l 257,19,-1
 594.723632812 8 l 257,20,21
 561.723632812 -8 561.723632812 -8 525.723632812 -18 c 257,22,23
 425.723632812 -45 425.723632812 -45 327.223632812 -17 c 128,-1,24
 228.723632812 11 228.723632812 11 155.723632812 85.5 c 128,-1,25
 82.7236328125 160 82.7236328125 160 54.7236328125 263 c 257,26,27
 32.7236328125 342 32.7236328125 342 44.2236328125 419 c 128,-1,28
 55.7236328125 496 55.7236328125 496 90.7236328125 561 c 128,-1,29
 125.723632812 626 125.723632812 626 186.223632812 674 c 128,-1,30
 246.723632812 722 246.723632812 722 321.723632812 742 c 257,31,32
 357.723632812 752 357.723632812 752 394.723632812 754 c 257,33,-1
 436.723632812 598 l 257,34,35
 411.723632812 600 411.723632812 600 386.723632812 596 c 257,36,-1
 492.723632812 473 l 257,37,38
 495.723632812 474 495.723632812 474 514.723632812 479.5 c 128,-1,39
 533.723632812 485 533.723632812 485 540.223632812 487 c 128,-1,40
 546.723632812 489 546.723632812 489 564.723632812 493.5 c 128,-1,41
 582.723632812 498 582.723632812 498 592.223632812 499.5 c 128,-1,42
 601.723632812 501 601.723632812 501 617.723632812 503.5 c 128,-1,43
 633.723632812 506 633.723632812 506 644.723632812 505 c 128,-1,44
 655.723632812 504 655.723632812 504 669.223632812 503 c 128,-1,45
 682.723632812 502 682.723632812 502 694.223632812 498 c 128,-1,46
 705.723632812 494 705.723632812 494 716.723632812 488 c 257,47,48
 727.723632812 482 727.723632812 482 738.723632812 474 c 257,2,-1
356.723632812 380 m 257,49,-1
 240.723632812 508 l 257,50,51
 208.723632812 466 208.723632812 466 198.223632812 413.5 c 128,-1,52
 187.723632812 361 187.723632812 361 202.723632812 304 c 257,53,54
 218.723632812 243 218.723632812 243 262.223632812 199.5 c 128,-1,55
 305.723632812 156 305.723632812 156 362.723632812 139 c 257,56,57
 331.723632812 194 331.723632812 194 329.723632812 257 c 128,-1,58
 327.723632812 320 327.723632812 320 356.723632812 380 c 257,49,-1
EndSplineSet
EndChar

StartChar: u09EC
Encoding: 2540 2540 1613
GlifName: u09E_C_
Width: 616
VWidth: 0
Flags: W
LayerCount: 2
Fore
SplineSet
303.946289062 746 m 257,0,-1
 435.946289062 746 l 257,1,-1
 435.946289062 479 l 257,2,3
 495.946289062 445 495.946289062 445 531.446289062 385.5 c 128,-1,4
 566.946289062 326 566.946289062 326 564.946289062 255 c 257,5,6
 561.946289062 146 561.946289062 146 486.946289062 72 c 128,-1,7
 411.946289062 -2 411.946289062 -2 303.946289062 -2 c 257,8,9
 241.946289062 -2 241.946289062 -2 192.946289062 20 c 128,-1,10
 143.946289062 42 143.946289062 42 113.446289062 79 c 128,-1,11
 82.9462890625 116 82.9462890625 116 66.9462890625 161.5 c 128,-1,12
 50.9462890625 207 50.9462890625 207 50.9462890625 256 c 257,13,-1
 195.946289062 256 l 257,14,-1
 195.946289062 255 l 257,15,16
 195.946289062 210 195.946289062 210 226.946289062 180 c 128,-1,17
 257.946289062 150 257.946289062 150 304.946289062 149 c 257,18,19
 351.946289062 150 351.946289062 150 382.946289062 180 c 128,-1,20
 413.946289062 210 413.946289062 210 413.946289062 255 c 257,21,22
 413.946289062 297 413.946289062 297 387.446289062 326.5 c 128,-1,23
 360.946289062 356 360.946289062 356 318.946289062 361 c 257,24,-1
 303.946289062 361 l 257,25,-1
 303.946289062 513 l 257,26,-1
 303.946289062 513 l 257,27,-1
 303.946289062 746 l 257,0,-1
EndSplineSet
EndChar

StartChar: u09ED
Encoding: 2541 2541 1617
GlifName: u09E_D_
Width: 534
VWidth: 0
Flags: W
LayerCount: 2
Fore
SplineSet
332 621 m 257,0,1
 320 624 320 624 308 624 c 257,2,3
 263 624 263 624 232 593 c 128,-1,4
 201 562 201 562 201 518 c 257,5,6
 201 473 201 473 232 442 c 128,-1,7
 263 411 263 411 308 411 c 257,8,9
 320 411 320 411 332 414 c 257,10,-1
 332 621 l 257,0,1
332 -2 m 257,11,-1
 332 261 l 257,12,13
 324 260 324 260 308 260 c 257,14,15
 201 260 201 260 125.5 335.5 c 128,-1,16
 50 411 50 411 50 518 c 128,-1,17
 50 625 50 625 125.5 700 c 128,-1,18
 201 775 201 775 308 775 c 257,19,-1
 314 775 l 257,20,21
 320 775 320 775 326.5 775.5 c 128,-1,22
 333 776 333 776 343.5 775.5 c 128,-1,23
 354 775 354 775 364 774 c 128,-1,24
 374 773 374 773 385.5 771 c 128,-1,25
 397 769 397 769 407 766 c 128,-1,26
 417 763 417 763 427 758 c 128,-1,27
 437 753 437 753 445 747 c 257,28,29
 462 733 462 733 471.5 702.5 c 128,-1,30
 481 672 481 672 482 649 c 257,31,-1
 484 626 l 257,32,-1
 484 -2 l 257,33,-1
 332 -2 l 257,11,-1
EndSplineSet
EndChar

StartChar: u09EE
Encoding: 2542 2542 1621
GlifName: u09E_E_
Width: 692
VWidth: 0
Flags: W
LayerCount: 2
Fore
SplineSet
203.5 776 m 257,0,-1
 203.5 513 l 257,1,2
 211.5 514 211.5 514 227.5 514 c 257,3,4
 241.5 514 241.5 514 256.5 512 c 257,5,-1
 640.5 512 l 257,6,-1
 640.5 360 l 257,7,-1
 463.5 360 l 257,8,9
 485.5 310 485.5 310 485.5 256 c 257,10,11
 485.5 149 485.5 149 410 74 c 128,-1,12
 334.5 -1 334.5 -1 227.5 -1 c 257,13,-1
 221.5 -1.5 l 2,14,15
 215.5 -2 215.5 -2 209 -2 c 128,-1,16
 202.5 -2 202.5 -2 192 -1.5 c 128,-1,17
 181.5 -1 181.5 -1 171.5 -0.5 c 128,-1,18
 161.5 0 161.5 0 150 2 c 128,-1,19
 138.5 4 138.5 4 128.5 7 c 128,-1,20
 118.5 10 118.5 10 108.5 15 c 128,-1,21
 98.5 20 98.5 20 90.5 27 c 257,22,23
 73.5 41 73.5 41 64 71 c 128,-1,24
 54.5 101 54.5 101 52.5 124 c 257,25,-1
 51.5 148 l 257,26,-1
 51.5 776 l 257,27,-1
 203.5 776 l 257,0,-1
203.5 153 m 257,28,29
 215.5 150 215.5 150 227.5 150 c 257,30,31
 272.5 150 272.5 150 303.5 180.5 c 128,-1,32
 334.5 211 334.5 211 334.5 256 c 257,33,34
 334.5 294 334.5 294 311 323 c 128,-1,35
 287.5 352 287.5 352 251.5 360 c 257,36,-1
 205.5 360 l 257,37,38
 204.5 360 204.5 360 203.5 360 c 257,39,-1
 203.5 153 l 257,28,29
EndSplineSet
EndChar

